<svg version="1.1" xmlns="http://www.w3.org/2000/svg" xmlns:xlink="http://www.w3.org/1999/xlink" width="2400" height="2400" viewBox="0,0,2400,2400"><g fill="none" fill-rule="nonzero" stroke="none" stroke-width="1" stroke-linecap="butt" stroke-linejoin="miter" stroke-miterlimit="10" stroke-dasharray="" stroke-dashoffset="0" font-family="none" font-weight="none" font-size="none" text-anchor="none" style="mix-blend-mode: normal"><rect x="0" y="0" width="2400" height="2400" fill="#000000" stroke="#000000"></rect><rect x="0" y="0" width="300" height="300" fill="#ba9ac8" stroke="none"></rect><rect x="75" y="75" width="150" height="150" fill="#3b934c" stroke="none"></rect><rect x="0" y="300" width="300" height="300" fill="#772c84" stroke="none"></rect><rect x="75" y="375" width="150" height="150" fill="#ba9ac8" stroke="none"></rect><rect x="300" y="0" width="300" height="300" fill="#0b5926" stroke="none"></rect><rect x="375" y="75" width="150" height="150" fill="#24803d" stroke="none"></rect><rect x="300" y="300" width="300" height="300" fill="#a27cb3" stroke="none"></rect><rect x="375" y="375" width="150" height="150" fill="#561161" stroke="none"></rect><rect x="0" y="600" width="300" height="300" fill="#0c5b27" stroke="none"></rect><rect x="75" y="675" width="150" height="150" fill="#7d388b" stroke="none"></rect><rect x="0" y="900" width="300" height="300" fill="#661e73" stroke="none"></rect><rect x="75" y="975" width="150" height="150" fill="#540f5f" stroke="none"></rect><rect x="300" y="600" width="300" height="300" fill="#540f5f" stroke="none"></rect><rect x="375" y="675" width="150" height="150" fill="#5fb165" stroke="none"></rect><rect x="300" y="900" width="300" height="300" fill="#a6dba0" stroke="none"></rect><rect x="375" y="975" width="150" height="150" fill="#c9aed4" stroke="none"></rect><rect x="0" y="1200" width="600" height="600" fill="#976ca9" stroke="none"></rect><rect x="-75" y="1125" width="750" height="750" fill="#d1b8d9" stroke="none"></rect><rect x="-75" y="1725" width="750" height="750" fill="#9cd598" stroke="none"></rect><rect x="0" y="1800" width="600" height="600" fill="#2a8541" stroke="none"></rect><rect x="525" y="-75" width="750" height="750" fill="#c8acd3" stroke="none"></rect><rect x="600" y="0" width="600" height="600" fill="#f2ebf2" stroke="none"></rect><rect x="525" y="525" width="750" height="750" fill="#ebf4e9" stroke="none"></rect><rect x="600" y="600" width="600" height="600" fill="#7d388b" stroke="none"></rect><rect x="525" y="1125" width="750" height="750" fill="#2a8541" stroke="none"></rect><rect x="600" y="1200" width="600" height="600" fill="#d8c1de" stroke="none"></rect><rect x="600" y="1800" width="300" height="300" fill="#7e3b8d" stroke="none"></rect><rect x="675" y="1875" width="150" height="150" fill="#450451" stroke="none"></rect><rect x="600" y="2100" width="300" height="300" fill="#d6bedc" stroke="none"></rect><rect x="675" y="2175" width="150" height="150" fill="#caeac4" stroke="none"></rect><rect x="900" y="1800" width="300" height="300" fill="#450451" stroke="none"></rect><rect x="975" y="1875" width="150" height="150" fill="#661d72" stroke="none"></rect><rect x="900" y="2100" width="300" height="300" fill="#3d954e" stroke="none"></rect><rect x="975" y="2175" width="150" height="150" fill="#ede1ee" stroke="none"></rect><rect x="1200" y="0" width="300" height="300" fill="#abdda5" stroke="none"></rect><rect x="1275" y="75" width="150" height="150" fill="#abdda5" stroke="none"></rect><rect x="1200" y="300" width="300" height="300" fill="#b5e1af" stroke="none"></rect><rect x="1275" y="375" width="150" height="150" fill="#abdda5" stroke="none"></rect><rect x="1500" y="0" width="300" height="300" fill="#9f77b0" stroke="none"></rect><rect x="1575" y="75" width="150" height="150" fill="#eff5ed" stroke="none"></rect><rect x="1500" y="300" width="300" height="300" fill="#bea0cb" stroke="none"></rect><rect x="1575" y="375" width="150" height="150" fill="#b5e1af" stroke="none"></rect><rect x="1200" y="600" width="300" height="300" fill="#f5f4f6" stroke="none"></rect><rect x="1275" y="675" width="150" height="150" fill="#97d294" stroke="none"></rect><rect x="1200" y="900" width="300" height="300" fill="#5aae61" stroke="none"></rect><rect x="1275" y="975" width="150" height="150" fill="#e0cbe3" stroke="none"></rect><rect x="1500" y="600" width="300" height="300" fill="#d2bada" stroke="none"></rect><rect x="1575" y="675" width="150" height="150" fill="#d2bada" stroke="none"></rect><rect x="1500" y="900" width="300" height="300" fill="#74bd76" stroke="none"></rect><rect x="1575" y="975" width="150" height="150" fill="#4b0856" stroke="none"></rect><rect x="1125" y="1125" width="750" height="750" fill="#166e31" stroke="none"></rect><rect x="1200" y="1200" width="600" height="600" fill="#f7f7f7" stroke="none"></rect><rect x="1200" y="1800" width="300" height="300" fill="#f1e9f1" stroke="none"></rect><rect x="1275" y="1875" width="150" height="150" fill="#f5f4f6" stroke="none"></rect><rect x="1200" y="2100" width="300" height="300" fill="#ecf4e9" stroke="none"></rect><rect x="1275" y="2175" width="150" height="150" fill="#ecf4e9" stroke="none"></rect><rect x="1500" y="1800" width="300" height="300" fill="#f1eaf1" stroke="none"></rect><rect x="1575" y="1875" width="150" height="150" fill="#c9aed4" stroke="none"></rect><rect x="1500" y="2100" width="300" height="300" fill="#a884b8" stroke="none"></rect><rect x="1575" y="2175" width="150" height="150" fill="#c5e8bf" stroke="none"></rect><rect x="1800" y="0" width="300" height="300" fill="#cdb3d7" stroke="none"></rect><rect x="1875" y="75" width="150" height="150" fill="#6c2279" stroke="none"></rect><rect x="1800" y="300" width="300" height="300" fill="#9d75af" stroke="none"></rect><rect x="1875" y="375" width="150" height="150" fill="#cdb3d7" stroke="none"></rect><rect x="2100" y="0" width="300" height="300" fill="#762a83" stroke="none"></rect><rect x="2175" y="75" width="150" height="150" fill="#0b5926" stroke="none"></rect><rect x="2100" y="300" width="300" height="300" fill="#338d47" stroke="none"></rect><rect x="2175" y="375" width="150" height="150" fill="#9d75af" stroke="none"></rect><rect x="1800" y="600" width="300" height="300" fill="#4fa55a" stroke="none"></rect><rect x="1875" y="675" width="150" height="150" fill="#13682f" stroke="none"></rect><rect x="1800" y="900" width="300" height="300" fill="#dff1da" stroke="none"></rect><rect x="1875" y="975" width="150" height="150" fill="#0b5926" stroke="none"></rect><rect x="2100" y="600" width="300" height="300" fill="#a580b6" stroke="none"></rect><rect x="2175" y="675" width="150" height="150" fill="#c9aed4" stroke="none"></rect><rect x="2100" y="900" width="300" height="300" fill="#dff1da" stroke="none"></rect><rect x="2175" y="975" width="150" height="150" fill="#0b5926" stroke="none"></rect><rect x="1800" y="1200" width="300" height="300" fill="#73277f" stroke="none"></rect><rect x="1875" y="1275" width="150" height="150" fill="#73277f" stroke="none"></rect><rect x="1800" y="1500" width="300" height="300" fill="#a17bb2" stroke="none"></rect><rect x="1875" y="1575" width="150" height="150" fill="#9ed79a" stroke="none"></rect><rect x="2100" y="1200" width="300" height="300" fill="#eef5ec" stroke="none"></rect><rect x="2175" y="1275" width="150" height="150" fill="#0a5826" stroke="none"></rect><rect x="2100" y="1500" width="300" height="300" fill="#e3cfe6" stroke="none"></rect><rect x="2175" y="1575" width="150" height="150" fill="#10632c" stroke="none"></rect><rect x="1800" y="1800" width="300" height="300" fill="#60196d" stroke="none"></rect><rect x="1875" y="1875" width="150" height="150" fill="#91ce8e" stroke="none"></rect><rect x="1800" y="2100" width="300" height="300" fill="#50a55a" stroke="none"></rect><rect x="1875" y="2175" width="150" height="150" fill="#a17bb2" stroke="none"></rect><rect x="2100" y="1800" width="300" height="300" fill="#91ce8e" stroke="none"></rect><rect x="2175" y="1875" width="150" height="150" fill="#e6d3e7" stroke="none"></rect><rect x="2100" y="2100" width="300" height="300" fill="#60196d" stroke="none"></rect><rect x="2175" y="2175" width="150" height="150" fill="#0f612b" stroke="none"></rect></g></svg>