<svg version="1.1" xmlns="http://www.w3.org/2000/svg" xmlns:xlink="http://www.w3.org/1999/xlink" width="2400" height="2400" viewBox="0,0,2400,2400"><g fill="none" fill-rule="nonzero" stroke="none" stroke-width="1" stroke-linecap="butt" stroke-linejoin="miter" stroke-miterlimit="10" stroke-dasharray="" stroke-dashoffset="0" font-family="none" font-weight="none" font-size="none" text-anchor="none" style="mix-blend-mode: normal"><rect x="0" y="0" width="300" height="300" fill="#b2182b"></rect><rect x="0" y="300" width="300" height="300" fill="#b7212f"></rect><rect x="300" y="0" width="300" height="300" fill="#c33b3b"></rect><rect x="300" y="300" width="300" height="300" fill="#870a24"></rect><rect x="0" y="600" width="300" height="300" fill="#f8bb9e"></rect><rect x="0" y="900" width="300" height="300" fill="#720321"></rect><rect x="300" y="600" width="300" height="300" fill="#bf3137"></rect><rect x="300" y="900" width="300" height="300" fill="#b82431"></rect><rect x="0" y="1200" width="300" height="300" fill="#fbcfb7"></rect><rect x="0" y="1500" width="300" height="300" fill="#ba2933"></rect><rect x="300" y="1200" width="300" height="300" fill="#cd4d44"></rect><rect x="300" y="1500" width="300" height="300" fill="#b1182b"></rect><rect x="0" y="1800" width="300" height="300" fill="#f8bc9f"></rect><rect x="0" y="2100" width="300" height="300" fill="#760521"></rect><rect x="300" y="1800" width="300" height="300" fill="#8d0c25"></rect><rect x="300" y="2100" width="300" height="300" fill="#b61f2e"></rect><rect x="600" y="0" width="150" height="150" fill="#de715a"></rect><rect x="600" y="150" width="150" height="150" fill="#9f1228"></rect><rect x="600" y="300" width="150" height="150" fill="#c33b3b"></rect><rect x="600" y="450" width="150" height="150" fill="#890b24"></rect><rect x="750" y="0" width="150" height="150" fill="#c7423f"></rect><rect x="750" y="150" width="150" height="150" fill="#ce5046"></rect><rect x="750" y="300" width="150" height="150" fill="#b72230"></rect><rect x="750" y="450" width="150" height="150" fill="#a81529"></rect><rect x="900" y="0" width="150" height="150" fill="#ca4841"></rect><rect x="900" y="150" width="150" height="150" fill="#850a24"></rect><rect x="900" y="300" width="150" height="150" fill="#f19e7d"></rect><rect x="900" y="450" width="150" height="150" fill="#eb9072"></rect><rect x="1050" y="0" width="150" height="150" fill="#850a24"></rect><rect x="1050" y="150" width="150" height="150" fill="#de725b"></rect><rect x="1050" y="300" width="150" height="150" fill="#700320"></rect><rect x="1050" y="450" width="150" height="150" fill="#6e0220"></rect><rect x="600" y="600" width="150" height="150" fill="#cc4b43"></rect><rect x="600" y="750" width="150" height="150" fill="#b1182b"></rect><rect x="600" y="900" width="150" height="150" fill="#991027"></rect><rect x="600" y="1050" width="150" height="150" fill="#a51429"></rect><rect x="750" y="600" width="150" height="150" fill="#de715a"></rect><rect x="750" y="750" width="150" height="150" fill="#cf5246"></rect><rect x="750" y="900" width="150" height="150" fill="#810823"></rect><rect x="750" y="1050" width="150" height="150" fill="#de725b"></rect><rect x="900" y="600" width="150" height="150" fill="#760521"></rect><rect x="900" y="750" width="150" height="150" fill="#720321"></rect><rect x="900" y="900" width="150" height="150" fill="#7d0722"></rect><rect x="900" y="1050" width="150" height="150" fill="#7a0622"></rect><rect x="1050" y="600" width="150" height="150" fill="#e58368"></rect><rect x="1050" y="750" width="150" height="150" fill="#dc6d57"></rect><rect x="1050" y="900" width="150" height="150" fill="#f4a683"></rect><rect x="1050" y="1050" width="150" height="150" fill="#b82430"></rect><rect x="600" y="1200" width="150" height="150" fill="#a01228"></rect><rect x="600" y="1350" width="150" height="150" fill="#840924"></rect><rect x="600" y="1500" width="150" height="150" fill="#f2a07e"></rect><rect x="600" y="1650" width="150" height="150" fill="#a51429"></rect><rect x="750" y="1200" width="150" height="150" fill="#930e26"></rect><rect x="750" y="1350" width="150" height="150" fill="#f5a987"></rect><rect x="750" y="1500" width="150" height="150" fill="#7c0722"></rect><rect x="750" y="1650" width="150" height="150" fill="#bb2b34"></rect><rect x="900" y="1200" width="150" height="150" fill="#b6202f"></rect><rect x="900" y="1350" width="150" height="150" fill="#67001f"></rect><rect x="900" y="1500" width="150" height="150" fill="#830923"></rect><rect x="900" y="1650" width="150" height="150" fill="#db6c56"></rect><rect x="1050" y="1200" width="150" height="150" fill="#750421"></rect><rect x="1050" y="1350" width="150" height="150" fill="#af172b"></rect><rect x="1050" y="1500" width="150" height="150" fill="#bd2e35"></rect><rect x="1050" y="1650" width="150" height="150" fill="#f9c6ac"></rect><rect x="600" y="1800" width="150" height="150" fill="#bb2b34"></rect><rect x="600" y="1950" width="150" height="150" fill="#9b1127"></rect><rect x="600" y="2100" width="150" height="150" fill="#b1182b"></rect><rect x="600" y="2250" width="150" height="150" fill="#b92631"></rect><rect x="750" y="1800" width="150" height="150" fill="#b7212f"></rect><rect x="750" y="1950" width="150" height="150" fill="#be2f36"></rect><rect x="750" y="2100" width="150" height="150" fill="#fddcc9"></rect><rect x="750" y="2250" width="150" height="150" fill="#950f26"></rect><rect x="900" y="1800" width="150" height="150" fill="#ebf1f5"></rect><rect x="900" y="1950" width="150" height="150" fill="#6c0220"></rect><rect x="900" y="2100" width="150" height="150" fill="#950f26"></rect><rect x="900" y="2250" width="150" height="150" fill="#d05448"></rect><rect x="1050" y="1800" width="150" height="150" fill="#930e26"></rect><rect x="1050" y="1950" width="150" height="150" fill="#f5ab8a"></rect><rect x="1050" y="2100" width="150" height="150" fill="#eb9072"></rect><rect x="1050" y="2250" width="150" height="150" fill="#9d1128"></rect><rect x="1200" y="0" width="150" height="150" fill="#a81529"></rect><rect x="1200" y="150" width="150" height="150" fill="#9a1027"></rect><rect x="1200" y="300" width="150" height="150" fill="#f3f5f6"></rect><rect x="1200" y="450" width="150" height="150" fill="#a71429"></rect><rect x="1350" y="0" width="150" height="150" fill="#db6c57"></rect><rect x="1350" y="150" width="150" height="150" fill="#dd7059"></rect><rect x="1350" y="300" width="150" height="150" fill="#9b1127"></rect><rect x="1350" y="450" width="150" height="150" fill="#faeae0"></rect><rect x="1500" y="0" width="150" height="150" fill="#f9c0a4"></rect><rect x="1500" y="150" width="150" height="150" fill="#8d0c25"></rect><rect x="1500" y="300" width="150" height="150" fill="#fae9df"></rect><rect x="1500" y="450" width="150" height="150" fill="#e27c63"></rect><rect x="1650" y="0" width="150" height="150" fill="#7d0722"></rect><rect x="1650" y="150" width="150" height="150" fill="#ce5146"></rect><rect x="1650" y="300" width="150" height="150" fill="#ea8d6f"></rect><rect x="1650" y="450" width="150" height="150" fill="#c7423f"></rect><rect x="1200" y="600" width="150" height="150" fill="#d05347"></rect><rect x="1200" y="750" width="150" height="150" fill="#bb2933"></rect><rect x="1200" y="900" width="150" height="150" fill="#e37d63"></rect><rect x="1200" y="1050" width="150" height="150" fill="#ef9978"></rect><rect x="1350" y="600" width="150" height="150" fill="#e7876b"></rect><rect x="1350" y="750" width="150" height="150" fill="#f7f7f7"></rect><rect x="1350" y="900" width="150" height="150" fill="#e8896d"></rect><rect x="1350" y="1050" width="150" height="150" fill="#a51429"></rect><rect x="1500" y="600" width="150" height="150" fill="#d7614e"></rect><rect x="1500" y="750" width="150" height="150" fill="#a01228"></rect><rect x="1500" y="900" width="150" height="150" fill="#cc4b43"></rect><rect x="1500" y="1050" width="150" height="150" fill="#9e1228"></rect><rect x="1650" y="600" width="150" height="150" fill="#ed9676"></rect><rect x="1650" y="750" width="150" height="150" fill="#890b24"></rect><rect x="1650" y="900" width="150" height="150" fill="#ca4841"></rect><rect x="1650" y="1050" width="150" height="150" fill="#ae172a"></rect><rect x="1200" y="1200" width="150" height="150" fill="#a21328"></rect><rect x="1200" y="1350" width="150" height="150" fill="#d86350"></rect><rect x="1200" y="1500" width="150" height="150" fill="#ac162a"></rect><rect x="1200" y="1650" width="150" height="150" fill="#e17a61"></rect><rect x="1350" y="1200" width="150" height="150" fill="#b1182b"></rect><rect x="1350" y="1350" width="150" height="150" fill="#c53f3d"></rect><rect x="1350" y="1500" width="150" height="150" fill="#f09d7c"></rect><rect x="1350" y="1650" width="150" height="150" fill="#b7212f"></rect><rect x="1500" y="1200" width="150" height="150" fill="#6a011f"></rect><rect x="1500" y="1350" width="150" height="150" fill="#860a24"></rect><rect x="1500" y="1500" width="150" height="150" fill="#950f26"></rect><rect x="1500" y="1650" width="150" height="150" fill="#700320"></rect><rect x="1650" y="1200" width="150" height="150" fill="#fcdecc"></rect><rect x="1650" y="1350" width="150" height="150" fill="#930e26"></rect><rect x="1650" y="1500" width="150" height="150" fill="#a61429"></rect><rect x="1650" y="1650" width="150" height="150" fill="#bb2a34"></rect><rect x="1200" y="1800" width="150" height="150" fill="#b3192c"></rect><rect x="1200" y="1950" width="150" height="150" fill="#f9ede6"></rect><rect x="1200" y="2100" width="150" height="150" fill="#cf5246"></rect><rect x="1200" y="2250" width="150" height="150" fill="#b82430"></rect><rect x="1350" y="1800" width="150" height="150" fill="#740421"></rect><rect x="1350" y="1950" width="150" height="150" fill="#cc4c43"></rect><rect x="1350" y="2100" width="150" height="150" fill="#ba2732"></rect><rect x="1350" y="2250" width="150" height="150" fill="#fddcc8"></rect><rect x="1500" y="1800" width="150" height="150" fill="#eb9173"></rect><rect x="1500" y="1950" width="150" height="150" fill="#d55f4c"></rect><rect x="1500" y="2100" width="150" height="150" fill="#d6604d"></rect><rect x="1500" y="2250" width="150" height="150" fill="#880b24"></rect><rect x="1650" y="1800" width="150" height="150" fill="#f7ba9c"></rect><rect x="1650" y="1950" width="150" height="150" fill="#b82430"></rect><rect x="1650" y="2100" width="150" height="150" fill="#ef9979"></rect><rect x="1650" y="2250" width="150" height="150" fill="#db6c57"></rect><rect x="1800" y="0" width="600" height="600" fill="#bd2e36"></rect><rect x="1800" y="600" width="600" height="600" fill="#f8f1ec"></rect><rect x="1800" y="1200" width="600" height="600" fill="#053061"></rect><rect x="1800" y="1800" width="600" height="600" fill="#f9f0eb"></rect></g></svg>