<svg version="1.1" xmlns="http://www.w3.org/2000/svg" xmlns:xlink="http://www.w3.org/1999/xlink" width="2400" height="2400" viewBox="0,0,2400,2400"><g fill="none" fill-rule="nonzero" stroke="none" stroke-width="1" stroke-linecap="butt" stroke-linejoin="miter" stroke-miterlimit="10" stroke-dasharray="" stroke-dashoffset="0" font-family="none" font-weight="none" font-size="none" text-anchor="none" style="mix-blend-mode: normal"><circle cx="300" cy="300" r="300" fill="#1a5898"></circle><circle cx="300" cy="300" r="150" fill="#8e0d25"></circle><circle cx="300" cy="300" r="75" fill="#d9e9f2"></circle><circle cx="300" cy="300" r="300" fill="#d05548"></circle><circle cx="300" cy="900" r="300" fill="#0c3e74"></circle><circle cx="300" cy="900" r="150" fill="#ab162a"></circle><circle cx="300" cy="900" r="75" fill="#e88a6e"></circle><circle cx="300" cy="900" r="300" fill="#539dc9"></circle><circle cx="300" cy="1500" r="300" fill="#549ec9"></circle><circle cx="300" cy="1500" r="150" fill="#f8f1ed"></circle><circle cx="300" cy="1500" r="75" fill="#eaf1f5"></circle><circle cx="300" cy="1500" r="300" fill="#10467f"></circle><circle cx="150" cy="1950" r="150" fill="#b0182b"></circle><circle cx="150" cy="1950" r="150" fill="#c3deec"></circle><circle cx="150" cy="1950" r="75" fill="#fac8af"></circle><circle cx="150" cy="2250" r="150" fill="#4d99c6"></circle><circle cx="150" cy="2250" r="150" fill="#4191c2"></circle><circle cx="150" cy="2250" r="75" fill="#bc2b34"></circle><circle cx="450" cy="1950" r="150" fill="#6e0220"></circle><circle cx="450" cy="1950" r="150" fill="#5fa4cc"></circle><circle cx="450" cy="1950" r="75" fill="#8e0c25"></circle><circle cx="450" cy="2250" r="150" fill="#d86651"></circle><circle cx="450" cy="2250" r="150" fill="#fdddca"></circle><circle cx="450" cy="2250" r="75" fill="#f3f5f6"></circle><circle cx="750" cy="150" r="150" fill="#f7b597"></circle><circle cx="750" cy="150" r="150" fill="#f8f4f1"></circle><circle cx="750" cy="150" r="75" fill="#ab162a"></circle><circle cx="750" cy="450" r="150" fill="#f19e7c"></circle><circle cx="750" cy="450" r="150" fill="#cb4a43"></circle><circle cx="750" cy="450" r="75" fill="#9e1228"></circle><circle cx="1050" cy="150" r="150" fill="#2d75b4"></circle><circle cx="1050" cy="150" r="150" fill="#a51429"></circle><circle cx="1050" cy="150" r="75" fill="#d7e8f1"></circle><circle cx="1050" cy="450" r="150" fill="#c03438"></circle><circle cx="1050" cy="450" r="150" fill="#0f427a"></circle><circle cx="1050" cy="450" r="75" fill="#327db8"></circle><circle cx="750" cy="750" r="150" fill="#114780"></circle><circle cx="750" cy="750" r="150" fill="#2065aa"></circle><circle cx="750" cy="750" r="75" fill="#940f26"></circle><circle cx="750" cy="1050" r="150" fill="#72b1d3"></circle><circle cx="750" cy="1050" r="150" fill="#f5a886"></circle><circle cx="750" cy="1050" r="75" fill="#15508d"></circle><circle cx="1050" cy="750" r="150" fill="#276eb0"></circle><circle cx="1050" cy="750" r="150" fill="#8bc0dc"></circle><circle cx="1050" cy="750" r="75" fill="#4796c4"></circle><circle cx="1050" cy="1050" r="150" fill="#1d5fa2"></circle><circle cx="1050" cy="1050" r="150" fill="#175492"></circle><circle cx="1050" cy="1050" r="75" fill="#fce1d2"></circle><circle cx="900" cy="1500" r="300" fill="#f9c6ac"></circle><circle cx="900" cy="1500" r="300" fill="#a01228"></circle><circle cx="900" cy="1500" r="150" fill="#deebf2"></circle><circle cx="900" cy="1500" r="75" fill="#eff3f5"></circle><circle cx="750" cy="1950" r="150" fill="#f7b698"></circle><circle cx="750" cy="1950" r="150" fill="#d15648"></circle><circle cx="750" cy="1950" r="75" fill="#eef3f5"></circle><circle cx="750" cy="2250" r="150" fill="#fac8ae"></circle><circle cx="750" cy="2250" r="150" fill="#d35b4a"></circle><circle cx="750" cy="2250" r="75" fill="#730421"></circle><circle cx="1050" cy="1950" r="150" fill="#ee9778"></circle><circle cx="1050" cy="1950" r="150" fill="#347fb9"></circle><circle cx="1050" cy="1950" r="75" fill="#e17960"></circle><circle cx="1050" cy="2250" r="150" fill="#f9c2a8"></circle><circle cx="1050" cy="2250" r="150" fill="#4796c4"></circle><circle cx="1050" cy="2250" r="75" fill="#83bbd9"></circle><circle cx="1350" cy="150" r="150" fill="#1d5fa2"></circle><circle cx="1350" cy="150" r="150" fill="#deebf2"></circle><circle cx="1350" cy="150" r="75" fill="#1a5999"></circle><circle cx="1350" cy="450" r="150" fill="#f8bea1"></circle><circle cx="1350" cy="450" r="150" fill="#df745c"></circle><circle cx="1350" cy="450" r="75" fill="#74b2d4"></circle><circle cx="1650" cy="150" r="150" fill="#539dc9"></circle><circle cx="1650" cy="150" r="150" fill="#d6e7f1"></circle><circle cx="1650" cy="150" r="75" fill="#1e60a4"></circle><circle cx="1650" cy="450" r="150" fill="#f7f6f5"></circle><circle cx="1650" cy="450" r="150" fill="#bd2e35"></circle><circle cx="1650" cy="450" r="75" fill="#67aacf"></circle><circle cx="1500" cy="900" r="300" fill="#e58368"></circle><circle cx="1500" cy="900" r="300" fill="#114781"></circle><circle cx="1500" cy="900" r="75" fill="#e48166"></circle><circle cx="1500" cy="900" r="150" fill="#e7876b"></circle><circle cx="1500" cy="1500" r="300" fill="#b2d5e7"></circle><circle cx="1500" cy="1500" r="300" fill="#88beda"></circle><circle cx="1500" cy="1500" r="75" fill="#408fc1"></circle><circle cx="1500" cy="1500" r="150" fill="#fddbc6"></circle><circle cx="1500" cy="2100" r="300" fill="#fac9b0"></circle><circle cx="1500" cy="2100" r="300" fill="#0b3b70"></circle><circle cx="1500" cy="2100" r="75" fill="#fcd4bf"></circle><circle cx="1500" cy="2100" r="150" fill="#69011f"></circle><circle cx="2100" cy="300" r="300" fill="#64a8ce"></circle><circle cx="2100" cy="300" r="75" fill="#95c6df"></circle><circle cx="2100" cy="300" r="300" fill="#bd2e36"></circle><circle cx="2100" cy="300" r="150" fill="#fcdecd"></circle><circle cx="2100" cy="900" r="300" fill="#cae1ee"></circle><circle cx="2100" cy="900" r="75" fill="#f3a380"></circle><circle cx="2100" cy="900" r="300" fill="#cbe2ee"></circle><circle cx="2100" cy="900" r="150" fill="#063263"></circle><circle cx="1950" cy="1350" r="150" fill="#f9ece4"></circle><circle cx="1950" cy="1350" r="150" fill="#830924"></circle><circle cx="1950" cy="1350" r="75" fill="#fbccb4"></circle><circle cx="1950" cy="1650" r="150" fill="#df745d"></circle><circle cx="1950" cy="1650" r="150" fill="#cfe4ef"></circle><circle cx="1950" cy="1650" r="75" fill="#0d4078"></circle><circle cx="2250" cy="1350" r="150" fill="#a6cfe4"></circle><circle cx="2250" cy="1350" r="150" fill="#d2e6f0"></circle><circle cx="2250" cy="1350" r="75" fill="#fddcc9"></circle><circle cx="2250" cy="1650" r="150" fill="#e58368"></circle><circle cx="2250" cy="1650" r="150" fill="#3b89be"></circle><circle cx="2250" cy="1650" r="75" fill="#3c8abe"></circle><circle cx="2100" cy="2100" r="300" fill="#ca4741"></circle><circle cx="2100" cy="2100" r="75" fill="#e9f1f4"></circle><circle cx="2100" cy="2100" r="300" fill="#8ec2dd"></circle><circle cx="2100" cy="2100" r="150" fill="#e8896d"></circle></g></svg>