<svg version="1.1" xmlns="http://www.w3.org/2000/svg" xmlns:xlink="http://www.w3.org/1999/xlink" width="2400" height="2400" viewBox="0,0,2400,2400"><g fill="none" fill-rule="nonzero" stroke="none" stroke-width="1" stroke-linecap="butt" stroke-linejoin="miter" stroke-miterlimit="10" stroke-dasharray="" stroke-dashoffset="0" font-family="none" font-weight="none" font-size="none" text-anchor="none" style="mix-blend-mode: normal"><rect x="0" y="0" width="2400" height="2400" fill="#000000" stroke="#000000"></rect><rect x="0" y="0" width="600" height="600" fill="#e0e0e0" stroke="none"></rect><rect x="-75" y="-75" width="750" height="750" fill="#bcbcbc" stroke="none"></rect><rect x="-75" y="525" width="750" height="750" fill="#949494" stroke="none"></rect><rect x="0" y="600" width="600" height="600" fill="#393939" stroke="none"></rect><rect x="0" y="1200" width="600" height="600" fill="#939393" stroke="none"></rect><rect x="-75" y="1125" width="750" height="750" fill="#6c6c6c" stroke="none"></rect><rect x="0" y="1800" width="300" height="300" fill="#949494" stroke="none"></rect><rect x="75" y="1875" width="150" height="150" fill="#a2a2a2" stroke="none"></rect><rect x="0" y="2100" width="300" height="300" fill="#c1c1c1" stroke="none"></rect><rect x="75" y="2175" width="150" height="150" fill="#888888" stroke="none"></rect><rect x="300" y="1800" width="300" height="300" fill="#4e4e4e" stroke="none"></rect><rect x="375" y="1875" width="150" height="150" fill="#f4f4f4" stroke="none"></rect><rect x="300" y="2100" width="300" height="300" fill="#181818" stroke="none"></rect><rect x="375" y="2175" width="150" height="150" fill="#a2a2a2" stroke="none"></rect><rect x="600" y="0" width="300" height="300" fill="#444444" stroke="none"></rect><rect x="675" y="75" width="150" height="150" fill="#787878" stroke="none"></rect><rect x="600" y="300" width="300" height="300" fill="#787878" stroke="none"></rect><rect x="675" y="375" width="150" height="150" fill="#494949" stroke="none"></rect><rect x="900" y="0" width="300" height="300" fill="#323232" stroke="none"></rect><rect x="975" y="75" width="150" height="150" fill="#222222" stroke="none"></rect><rect x="900" y="300" width="300" height="300" fill="#272727" stroke="none"></rect><rect x="975" y="375" width="150" height="150" fill="#323232" stroke="none"></rect><rect x="525" y="525" width="750" height="750" fill="#464646" stroke="none"></rect><rect x="600" y="600" width="600" height="600" fill="#181818" stroke="none"></rect><rect x="600" y="1200" width="300" height="300" fill="#d7d7d7" stroke="none"></rect><rect x="675" y="1275" width="150" height="150" fill="#9f9f9f" stroke="none"></rect><rect x="600" y="1500" width="300" height="300" fill="#a6a6a6" stroke="none"></rect><rect x="675" y="1575" width="150" height="150" fill="#848484" stroke="none"></rect><rect x="900" y="1200" width="300" height="300" fill="#777777" stroke="none"></rect><rect x="975" y="1275" width="150" height="150" fill="#b6b6b6" stroke="none"></rect><rect x="900" y="1500" width="300" height="300" fill="#5d5d5d" stroke="none"></rect><rect x="975" y="1575" width="150" height="150" fill="#919191" stroke="none"></rect><rect x="600" y="1800" width="300" height="300" fill="#353535" stroke="none"></rect><rect x="675" y="1875" width="150" height="150" fill="#040404" stroke="none"></rect><rect x="600" y="2100" width="300" height="300" fill="#676767" stroke="none"></rect><rect x="675" y="2175" width="150" height="150" fill="#c5c5c5" stroke="none"></rect><rect x="900" y="1800" width="300" height="300" fill="#d0d0d0" stroke="none"></rect><rect x="975" y="1875" width="150" height="150" fill="#040404" stroke="none"></rect><rect x="900" y="2100" width="300" height="300" fill="#040404" stroke="none"></rect><rect x="975" y="2175" width="150" height="150" fill="#727272" stroke="none"></rect><rect x="1200" y="0" width="600" height="600" fill="#0f0f0f" stroke="none"></rect><rect x="1125" y="-75" width="750" height="750" fill="#4d4d4d" stroke="none"></rect><rect x="1200" y="600" width="300" height="300" fill="#676767" stroke="none"></rect><rect x="1275" y="675" width="150" height="150" fill="#e2e2e2" stroke="none"></rect><rect x="1200" y="900" width="300" height="300" fill="#4b4b4b" stroke="none"></rect><rect x="1275" y="975" width="150" height="150" fill="#f0f0f0" stroke="none"></rect><rect x="1500" y="600" width="300" height="300" fill="#f2f2f2" stroke="none"></rect><rect x="1575" y="675" width="150" height="150" fill="#c2c2c2" stroke="none"></rect><rect x="1500" y="900" width="300" height="300" fill="#5c5c5c" stroke="none"></rect><rect x="1575" y="975" width="150" height="150" fill="#e2e2e2" stroke="none"></rect><rect x="1125" y="1125" width="750" height="750" fill="#999999" stroke="none"></rect><rect x="1200" y="1200" width="600" height="600" fill="#cecece" stroke="none"></rect><rect x="1200" y="1800" width="300" height="300" fill="#777777" stroke="none"></rect><rect x="1275" y="1875" width="150" height="150" fill="#8b8b8b" stroke="none"></rect><rect x="1200" y="2100" width="300" height="300" fill="#dfdfdf" stroke="none"></rect><rect x="1275" y="2175" width="150" height="150" fill="#777777" stroke="none"></rect><rect x="1500" y="1800" width="300" height="300" fill="#777777" stroke="none"></rect><rect x="1575" y="1875" width="150" height="150" fill="#b2b2b2" stroke="none"></rect><rect x="1500" y="2100" width="300" height="300" fill="#888888" stroke="none"></rect><rect x="1575" y="2175" width="150" height="150" fill="#f2f2f2" stroke="none"></rect><rect x="1800" y="0" width="300" height="300" fill="#cecece" stroke="none"></rect><rect x="1875" y="75" width="150" height="150" fill="#6f6f6f" stroke="none"></rect><rect x="1800" y="300" width="300" height="300" fill="#8b8b8b" stroke="none"></rect><rect x="1875" y="375" width="150" height="150" fill="#3c3c3c" stroke="none"></rect><rect x="2100" y="0" width="300" height="300" fill="#bdbdbd" stroke="none"></rect><rect x="2175" y="75" width="150" height="150" fill="#cecece" stroke="none"></rect><rect x="2100" y="300" width="300" height="300" fill="#6c6c6c" stroke="none"></rect><rect x="2175" y="375" width="150" height="150" fill="#3e3e3e" stroke="none"></rect><rect x="1800" y="600" width="300" height="300" fill="#f9f9f9" stroke="none"></rect><rect x="1875" y="675" width="150" height="150" fill="#f9f9f9" stroke="none"></rect><rect x="1800" y="900" width="300" height="300" fill="#a2a2a2" stroke="none"></rect><rect x="1875" y="975" width="150" height="150" fill="#d7d7d7" stroke="none"></rect><rect x="2100" y="600" width="300" height="300" fill="#222222" stroke="none"></rect><rect x="2175" y="675" width="150" height="150" fill="#202020" stroke="none"></rect><rect x="2100" y="900" width="300" height="300" fill="#cccccc" stroke="none"></rect><rect x="2175" y="975" width="150" height="150" fill="#f5f5f5" stroke="none"></rect><rect x="1725" y="1125" width="750" height="750" fill="#eaeaea" stroke="none"></rect><rect x="1800" y="1200" width="600" height="600" fill="#f2f2f2" stroke="none"></rect><rect x="1725" y="1725" width="750" height="750" fill="#eaeaea" stroke="none"></rect><rect x="1800" y="1800" width="600" height="600" fill="#818181" stroke="none"></rect></g></svg>