<svg version="1.1" xmlns="http://www.w3.org/2000/svg" xmlns:xlink="http://www.w3.org/1999/xlink" width="2400" height="2400" viewBox="0,0,2400,2400"><g fill="none" fill-rule="nonzero" stroke="none" stroke-width="1" stroke-linecap="butt" stroke-linejoin="miter" stroke-miterlimit="10" stroke-dasharray="" stroke-dashoffset="0" font-family="none" font-weight="none" font-size="none" text-anchor="none" style="mix-blend-mode: normal"><rect x="0" y="0" width="300" height="300" fill="#92c5de"></rect><rect x="37.5" y="37.5" width="225" height="225" fill="#fbe6da"></rect><rect x="75" y="75" width="150" height="150" fill="#6bacd1"></rect><rect x="0" y="300" width="300" height="300" fill="#8ac0db"></rect><rect x="37.5" y="337.5" width="225" height="225" fill="#fbe6da"></rect><rect x="75" y="375" width="150" height="150" fill="#2f78b5"></rect><rect x="300" y="0" width="300" height="300" fill="#c8433f"></rect><rect x="337.5" y="37.5" width="225" height="225" fill="#6bacd1"></rect><rect x="375" y="75" width="150" height="150" fill="#6bacd1"></rect><rect x="300" y="300" width="300" height="300" fill="#92c5de"></rect><rect x="337.5" y="337.5" width="225" height="225" fill="#dc6e58"></rect><rect x="375" y="375" width="150" height="150" fill="#f8f4f2"></rect><rect x="0" y="600" width="300" height="300" fill="#bedbeb"></rect><rect x="37.5" y="637.5" width="225" height="225" fill="#d2594a"></rect><rect x="75" y="675" width="150" height="150" fill="#3581ba"></rect><rect x="0" y="900" width="300" height="300" fill="#f8f4f2"></rect><rect x="37.5" y="937.5" width="225" height="225" fill="#f9c5ab"></rect><rect x="75" y="975" width="150" height="150" fill="#3581ba"></rect><rect x="300" y="600" width="300" height="300" fill="#63a7ce"></rect><rect x="337.5" y="637.5" width="225" height="225" fill="#195695"></rect><rect x="375" y="675" width="150" height="150" fill="#195695"></rect><rect x="300" y="900" width="300" height="300" fill="#f8f4f2"></rect><rect x="337.5" y="937.5" width="225" height="225" fill="#f8f4f2"></rect><rect x="375" y="975" width="150" height="150" fill="#d2594a"></rect><rect x="0" y="1200" width="300" height="300" fill="#fbe3d5"></rect><rect x="37.5" y="1237.5" width="225" height="225" fill="#d9e9f1"></rect><rect x="75" y="1275" width="150" height="150" fill="#72b1d3"></rect><rect x="0" y="1500" width="300" height="300" fill="#fbe3d5"></rect><rect x="37.5" y="1537.5" width="225" height="225" fill="#f8f1ed"></rect><rect x="75" y="1575" width="150" height="150" fill="#10467f"></rect><rect x="300" y="1200" width="300" height="300" fill="#d9e9f1"></rect><rect x="337.5" y="1237.5" width="225" height="225" fill="#72b1d3"></rect><rect x="375" y="1275" width="150" height="150" fill="#fbe3d5"></rect><rect x="300" y="1500" width="300" height="300" fill="#d1e5f0"></rect><rect x="337.5" y="1537.5" width="225" height="225" fill="#fbe3d5"></rect><rect x="375" y="1575" width="150" height="150" fill="#f8f4f2"></rect><rect x="0" y="1800" width="300" height="300" fill="#3986bc"></rect><rect x="37.5" y="1837.5" width="225" height="225" fill="#083569"></rect><rect x="75" y="1875" width="150" height="150" fill="#083569"></rect><rect x="0" y="2100" width="300" height="300" fill="#083569"></rect><rect x="37.5" y="2137.5" width="225" height="225" fill="#a31329"></rect><rect x="75" y="2175" width="150" height="150" fill="#850a24"></rect><rect x="300" y="1800" width="300" height="300" fill="#ee9777"></rect><rect x="337.5" y="1837.5" width="225" height="225" fill="#f8f4f2"></rect><rect x="375" y="1875" width="150" height="150" fill="#3986bc"></rect><rect x="300" y="2100" width="300" height="300" fill="#a31329"></rect><rect x="337.5" y="2137.5" width="225" height="225" fill="#f8f4f2"></rect><rect x="375" y="2175" width="150" height="150" fill="#083569"></rect><rect x="600" y="0" width="300" height="300" fill="#850a24"></rect><rect x="637.5" y="37.5" width="225" height="225" fill="#fae9df"></rect><rect x="675" y="75" width="150" height="150" fill="#d1e5f0"></rect><rect x="600" y="300" width="300" height="300" fill="#eff3f6"></rect><rect x="637.5" y="337.5" width="225" height="225" fill="#d1e5f0"></rect><rect x="675" y="375" width="150" height="150" fill="#e8896d"></rect><rect x="900" y="0" width="300" height="300" fill="#fae9df"></rect><rect x="937.5" y="37.5" width="225" height="225" fill="#1b5b9d"></rect><rect x="975" y="75" width="150" height="150" fill="#fae9df"></rect><rect x="900" y="300" width="300" height="300" fill="#1e61a5"></rect><rect x="937.5" y="337.5" width="225" height="225" fill="#7ab6d6"></rect><rect x="975" y="375" width="150" height="150" fill="#0d4078"></rect><rect x="600" y="600" width="150" height="150" fill="#760521"></rect><rect x="618.75" y="618.75" width="112.5" height="112.5" fill="#72b1d3"></rect><rect x="637.5" y="637.5" width="75" height="75" fill="#72b1d3"></rect><rect x="600" y="750" width="150" height="150" fill="#4b98c6"></rect><rect x="618.75" y="768.75" width="112.5" height="112.5" fill="#d96752"></rect><rect x="637.5" y="787.5" width="75" height="75" fill="#eb9072"></rect><rect x="600" y="900" width="150" height="150" fill="#d96752"></rect><rect x="618.75" y="918.75" width="112.5" height="112.5" fill="#4b98c6"></rect><rect x="637.5" y="937.5" width="75" height="75" fill="#eb9072"></rect><rect x="600" y="1050" width="150" height="150" fill="#eb9072"></rect><rect x="618.75" y="1068.75" width="112.5" height="112.5" fill="#408fc1"></rect><rect x="637.5" y="1087.5" width="75" height="75" fill="#760521"></rect><rect x="750" y="600" width="150" height="150" fill="#ab162a"></rect><rect x="768.75" y="618.75" width="112.5" height="112.5" fill="#72b1d3"></rect><rect x="787.5" y="637.5" width="75" height="75" fill="#4b98c6"></rect><rect x="750" y="750" width="150" height="150" fill="#408fc1"></rect><rect x="768.75" y="768.75" width="112.5" height="112.5" fill="#760521"></rect><rect x="787.5" y="787.5" width="75" height="75" fill="#760521"></rect><rect x="750" y="900" width="150" height="150" fill="#ab162a"></rect><rect x="768.75" y="918.75" width="112.5" height="112.5" fill="#760521"></rect><rect x="787.5" y="937.5" width="75" height="75" fill="#d96752"></rect><rect x="750" y="1050" width="150" height="150" fill="#72b1d3"></rect><rect x="768.75" y="1068.75" width="112.5" height="112.5" fill="#d96752"></rect><rect x="787.5" y="1087.5" width="75" height="75" fill="#760521"></rect><rect x="900" y="600" width="150" height="150" fill="#72b1d3"></rect><rect x="918.75" y="618.75" width="112.5" height="112.5" fill="#408fc1"></rect><rect x="937.5" y="637.5" width="75" height="75" fill="#cbe2ee"></rect><rect x="900" y="750" width="150" height="150" fill="#eb9072"></rect><rect x="918.75" y="768.75" width="112.5" height="112.5" fill="#d1e5f0"></rect><rect x="937.5" y="787.5" width="75" height="75" fill="#408fc1"></rect><rect x="900" y="900" width="150" height="150" fill="#eb9072"></rect><rect x="918.75" y="918.75" width="112.5" height="112.5" fill="#72b1d3"></rect><rect x="937.5" y="937.5" width="75" height="75" fill="#760521"></rect><rect x="900" y="1050" width="150" height="150" fill="#4b98c6"></rect><rect x="918.75" y="1068.75" width="112.5" height="112.5" fill="#ab162a"></rect><rect x="937.5" y="1087.5" width="75" height="75" fill="#72b1d3"></rect><rect x="1050" y="600" width="150" height="150" fill="#ab162a"></rect><rect x="1068.75" y="618.75" width="112.5" height="112.5" fill="#eb9072"></rect><rect x="1087.5" y="637.5" width="75" height="75" fill="#d96752"></rect><rect x="1050" y="750" width="150" height="150" fill="#eb9072"></rect><rect x="1068.75" y="768.75" width="112.5" height="112.5" fill="#d96752"></rect><rect x="1087.5" y="787.5" width="75" height="75" fill="#cbe2ee"></rect><rect x="1050" y="900" width="150" height="150" fill="#72b1d3"></rect><rect x="1068.75" y="918.75" width="112.5" height="112.5" fill="#760521"></rect><rect x="1087.5" y="937.5" width="75" height="75" fill="#cbe2ee"></rect><rect x="1050" y="1050" width="150" height="150" fill="#d96752"></rect><rect x="1068.75" y="1068.75" width="112.5" height="112.5" fill="#d1e5f0"></rect><rect x="1087.5" y="1087.5" width="75" height="75" fill="#d1e5f0"></rect><rect x="600" y="1200" width="300" height="300" fill="#3c8abe"></rect><rect x="637.5" y="1237.5" width="225" height="225" fill="#d2594a"></rect><rect x="675" y="1275" width="150" height="150" fill="#4393c3"></rect><rect x="600" y="1500" width="300" height="300" fill="#fcd6c0"></rect><rect x="637.5" y="1537.5" width="225" height="225" fill="#4393c3"></rect><rect x="675" y="1575" width="150" height="150" fill="#10467f"></rect><rect x="900" y="1200" width="300" height="300" fill="#4393c3"></rect><rect x="937.5" y="1237.5" width="225" height="225" fill="#4393c3"></rect><rect x="975" y="1275" width="150" height="150" fill="#3c8abe"></rect><rect x="900" y="1500" width="300" height="300" fill="#3c8abe"></rect><rect x="937.5" y="1537.5" width="225" height="225" fill="#10467f"></rect><rect x="975" y="1575" width="150" height="150" fill="#539dc8"></rect><rect x="600" y="1800" width="600" height="600" fill="#f4a582"></rect><rect x="810" y="2010" width="180" height="180" fill="#327db8"></rect><rect x="630" y="1830" width="540" height="540" fill="#d5e7f1"></rect><rect x="780" y="1980" width="240" height="240" fill="#3c8abe"></rect><rect x="660" y="1860" width="480" height="480" fill="#fbe3d5"></rect><rect x="690" y="1890" width="420" height="420" fill="#bd2e35"></rect><rect x="720" y="1920" width="360" height="360" fill="#bd2e35"></rect><rect x="750" y="1950" width="300" height="300" fill="#f4a582"></rect><rect x="1200" y="0" width="300" height="300" fill="#f7f7f7"></rect><rect x="1237.5" y="37.5" width="225" height="225" fill="#5ba2cb"></rect><rect x="1275" y="75" width="150" height="150" fill="#195695"></rect><rect x="1200" y="300" width="300" height="300" fill="#cf5246"></rect><rect x="1237.5" y="337.5" width="225" height="225" fill="#f7f7f7"></rect><rect x="1275" y="375" width="150" height="150" fill="#195695"></rect><rect x="1500" y="0" width="300" height="300" fill="#c43c3c"></rect><rect x="1537.5" y="37.5" width="225" height="225" fill="#b92632"></rect><rect x="1575" y="75" width="150" height="150" fill="#5ba2cb"></rect><rect x="1500" y="300" width="300" height="300" fill="#195695"></rect><rect x="1537.5" y="337.5" width="225" height="225" fill="#9c1127"></rect><rect x="1575" y="375" width="150" height="150" fill="#c43c3c"></rect><rect x="1200" y="600" width="300" height="300" fill="#7ab6d6"></rect><rect x="1237.5" y="637.5" width="225" height="225" fill="#ecf2f5"></rect><rect x="1275" y="675" width="150" height="150" fill="#195695"></rect><rect x="1200" y="900" width="300" height="300" fill="#7ab6d6"></rect><rect x="1237.5" y="937.5" width="225" height="225" fill="#fbd0b9"></rect><rect x="1275" y="975" width="150" height="150" fill="#e8f0f4"></rect><rect x="1500" y="600" width="300" height="300" fill="#195695"></rect><rect x="1537.5" y="637.5" width="225" height="225" fill="#ecf2f5"></rect><rect x="1575" y="675" width="150" height="150" fill="#b92632"></rect><rect x="1500" y="900" width="300" height="300" fill="#67001f"></rect><rect x="1537.5" y="937.5" width="225" height="225" fill="#ecf2f5"></rect><rect x="1575" y="975" width="150" height="150" fill="#e8f0f4"></rect><rect x="1200" y="1200" width="150" height="150" fill="#d9e9f1"></rect><rect x="1218.75" y="1218.75" width="112.5" height="112.5" fill="#fbe6da"></rect><rect x="1237.5" y="1237.5" width="75" height="75" fill="#d2594a"></rect><rect x="1200" y="1350" width="150" height="150" fill="#82bbd9"></rect><rect x="1218.75" y="1368.75" width="112.5" height="112.5" fill="#9c1127"></rect><rect x="1237.5" y="1387.5" width="75" height="75" fill="#0d4078"></rect><rect x="1200" y="1500" width="150" height="150" fill="#9c1127"></rect><rect x="1218.75" y="1518.75" width="112.5" height="112.5" fill="#408fc1"></rect><rect x="1237.5" y="1537.5" width="75" height="75" fill="#d2594a"></rect><rect x="1200" y="1650" width="150" height="150" fill="#f8f1ed"></rect><rect x="1218.75" y="1668.75" width="112.5" height="112.5" fill="#bedbeb"></rect><rect x="1237.5" y="1687.5" width="75" height="75" fill="#408fc1"></rect><rect x="1350" y="1200" width="150" height="150" fill="#d9e9f1"></rect><rect x="1368.75" y="1218.75" width="112.5" height="112.5" fill="#f8f1ed"></rect><rect x="1387.5" y="1237.5" width="75" height="75" fill="#bedbeb"></rect><rect x="1350" y="1350" width="150" height="150" fill="#9c1127"></rect><rect x="1368.75" y="1368.75" width="112.5" height="112.5" fill="#f9ece4"></rect><rect x="1387.5" y="1387.5" width="75" height="75" fill="#0d4078"></rect><rect x="1350" y="1500" width="150" height="150" fill="#bedbeb"></rect><rect x="1368.75" y="1518.75" width="112.5" height="112.5" fill="#9c1127"></rect><rect x="1387.5" y="1537.5" width="75" height="75" fill="#f8f1ed"></rect><rect x="1350" y="1650" width="150" height="150" fill="#bedbeb"></rect><rect x="1368.75" y="1668.75" width="112.5" height="112.5" fill="#f8f1ed"></rect><rect x="1387.5" y="1687.5" width="75" height="75" fill="#0d4078"></rect><rect x="1500" y="1200" width="150" height="150" fill="#d9e9f1"></rect><rect x="1518.75" y="1218.75" width="112.5" height="112.5" fill="#9c1127"></rect><rect x="1537.5" y="1237.5" width="75" height="75" fill="#9c1127"></rect><rect x="1500" y="1350" width="150" height="150" fill="#fbe6da"></rect><rect x="1518.75" y="1368.75" width="112.5" height="112.5" fill="#82bbd9"></rect><rect x="1537.5" y="1387.5" width="75" height="75" fill="#82bbd9"></rect><rect x="1500" y="1500" width="150" height="150" fill="#d2594a"></rect><rect x="1518.75" y="1518.75" width="112.5" height="112.5" fill="#408fc1"></rect><rect x="1537.5" y="1537.5" width="75" height="75" fill="#d9e9f1"></rect><rect x="1500" y="1650" width="150" height="150" fill="#fbe6da"></rect><rect x="1518.75" y="1668.75" width="112.5" height="112.5" fill="#82bbd9"></rect><rect x="1537.5" y="1687.5" width="75" height="75" fill="#82bbd9"></rect><rect x="1650" y="1200" width="150" height="150" fill="#0d4078"></rect><rect x="1668.75" y="1218.75" width="112.5" height="112.5" fill="#d9e9f1"></rect><rect x="1687.5" y="1237.5" width="75" height="75" fill="#d9e9f1"></rect><rect x="1650" y="1350" width="150" height="150" fill="#82bbd9"></rect><rect x="1668.75" y="1368.75" width="112.5" height="112.5" fill="#d2594a"></rect><rect x="1687.5" y="1387.5" width="75" height="75" fill="#bedbeb"></rect><rect x="1650" y="1500" width="150" height="150" fill="#bedbeb"></rect><rect x="1668.75" y="1518.75" width="112.5" height="112.5" fill="#f8f1ed"></rect><rect x="1687.5" y="1537.5" width="75" height="75" fill="#408fc1"></rect><rect x="1650" y="1650" width="150" height="150" fill="#bedbeb"></rect><rect x="1668.75" y="1668.75" width="112.5" height="112.5" fill="#bedbeb"></rect><rect x="1687.5" y="1687.5" width="75" height="75" fill="#408fc1"></rect><rect x="1200" y="1800" width="150" height="150" fill="#539dc8"></rect><rect x="1218.75" y="1818.75" width="112.5" height="112.5" fill="#82bbd9"></rect><rect x="1237.5" y="1837.5" width="75" height="75" fill="#8d0c25"></rect><rect x="1200" y="1950" width="150" height="150" fill="#f5aa89"></rect><rect x="1218.75" y="1968.75" width="112.5" height="112.5" fill="#f5aa89"></rect><rect x="1237.5" y="1987.5" width="75" height="75" fill="#82bbd9"></rect><rect x="1200" y="2100" width="150" height="150" fill="#eb9072"></rect><rect x="1218.75" y="2118.75" width="112.5" height="112.5" fill="#8d0c25"></rect><rect x="1237.5" y="2137.5" width="75" height="75" fill="#3581ba"></rect><rect x="1200" y="2250" width="150" height="150" fill="#82bbd9"></rect><rect x="1218.75" y="2268.75" width="112.5" height="112.5" fill="#eb9072"></rect><rect x="1237.5" y="2287.5" width="75" height="75" fill="#3581ba"></rect><rect x="1350" y="1800" width="150" height="150" fill="#b2182b"></rect><rect x="1368.75" y="1818.75" width="112.5" height="112.5" fill="#b61f2e"></rect><rect x="1387.5" y="1837.5" width="75" height="75" fill="#539dc8"></rect><rect x="1350" y="1950" width="150" height="150" fill="#b61f2e"></rect><rect x="1368.75" y="1968.75" width="112.5" height="112.5" fill="#8d0c25"></rect><rect x="1387.5" y="1987.5" width="75" height="75" fill="#82bbd9"></rect><rect x="1350" y="2100" width="150" height="150" fill="#b61f2e"></rect><rect x="1368.75" y="2118.75" width="112.5" height="112.5" fill="#3581ba"></rect><rect x="1387.5" y="2137.5" width="75" height="75" fill="#82bbd9"></rect><rect x="1350" y="2250" width="150" height="150" fill="#539dc8"></rect><rect x="1368.75" y="2268.75" width="112.5" height="112.5" fill="#82bbd9"></rect><rect x="1387.5" y="2287.5" width="75" height="75" fill="#82bbd9"></rect><rect x="1500" y="1800" width="150" height="150" fill="#8d0c25"></rect><rect x="1518.75" y="1818.75" width="112.5" height="112.5" fill="#eb9072"></rect><rect x="1537.5" y="1837.5" width="75" height="75" fill="#f5aa89"></rect><rect x="1500" y="1950" width="150" height="150" fill="#b2182b"></rect><rect x="1518.75" y="1968.75" width="112.5" height="112.5" fill="#82bbd9"></rect><rect x="1537.5" y="1987.5" width="75" height="75" fill="#b2182b"></rect><rect x="1500" y="2100" width="150" height="150" fill="#82bbd9"></rect><rect x="1518.75" y="2118.75" width="112.5" height="112.5" fill="#9c1127"></rect><rect x="1537.5" y="2137.5" width="75" height="75" fill="#8d0c25"></rect><rect x="1500" y="2250" width="150" height="150" fill="#b61f2e"></rect><rect x="1518.75" y="2268.75" width="112.5" height="112.5" fill="#9c1127"></rect><rect x="1537.5" y="2287.5" width="75" height="75" fill="#82bbd9"></rect><rect x="1650" y="1800" width="150" height="150" fill="#eb9072"></rect><rect x="1668.75" y="1818.75" width="112.5" height="112.5" fill="#b2182b"></rect><rect x="1687.5" y="1837.5" width="75" height="75" fill="#9c1127"></rect><rect x="1650" y="1950" width="150" height="150" fill="#82bbd9"></rect><rect x="1668.75" y="1968.75" width="112.5" height="112.5" fill="#f5aa89"></rect><rect x="1687.5" y="1987.5" width="75" height="75" fill="#b2182b"></rect><rect x="1650" y="2100" width="150" height="150" fill="#82bbd9"></rect><rect x="1668.75" y="2118.75" width="112.5" height="112.5" fill="#8d0c25"></rect><rect x="1687.5" y="2137.5" width="75" height="75" fill="#9c1127"></rect><rect x="1650" y="2250" width="150" height="150" fill="#539dc8"></rect><rect x="1668.75" y="2268.75" width="112.5" height="112.5" fill="#3581ba"></rect><rect x="1687.5" y="2287.5" width="75" height="75" fill="#82bbd9"></rect><rect x="1800" y="0" width="300" height="300" fill="#d9e9f1"></rect><rect x="1837.5" y="37.5" width="225" height="225" fill="#1b5b9d"></rect><rect x="1875" y="75" width="150" height="150" fill="#eff3f6"></rect><rect x="1800" y="300" width="300" height="300" fill="#7ab6d6"></rect><rect x="1837.5" y="337.5" width="225" height="225" fill="#539dc8"></rect><rect x="1875" y="375" width="150" height="150" fill="#7ab6d6"></rect><rect x="2100" y="0" width="300" height="300" fill="#d9e9f1"></rect><rect x="2137.5" y="37.5" width="225" height="225" fill="#eff3f6"></rect><rect x="2175" y="75" width="150" height="150" fill="#d9e9f1"></rect><rect x="2100" y="300" width="300" height="300" fill="#1b5b9d"></rect><rect x="2137.5" y="337.5" width="225" height="225" fill="#a31329"></rect><rect x="2175" y="375" width="150" height="150" fill="#7ab6d6"></rect><rect x="1800" y="600" width="150" height="150" fill="#4393c3"></rect><rect x="1818.75" y="618.75" width="112.5" height="112.5" fill="#4393c3"></rect><rect x="1837.5" y="637.5" width="75" height="75" fill="#4393c3"></rect><rect x="1800" y="750" width="150" height="150" fill="#4393c3"></rect><rect x="1818.75" y="768.75" width="112.5" height="112.5" fill="#f9c5ab"></rect><rect x="1837.5" y="787.5" width="75" height="75" fill="#cf5246"></rect><rect x="1800" y="900" width="150" height="150" fill="#eb9072"></rect><rect x="1818.75" y="918.75" width="112.5" height="112.5" fill="#3986bc"></rect><rect x="1837.5" y="937.5" width="75" height="75" fill="#b92632"></rect><rect x="1800" y="1050" width="150" height="150" fill="#c8433f"></rect><rect x="1818.75" y="1068.75" width="112.5" height="112.5" fill="#eb9072"></rect><rect x="1837.5" y="1087.5" width="75" height="75" fill="#3986bc"></rect><rect x="1950" y="600" width="150" height="150" fill="#c8433f"></rect><rect x="1968.75" y="618.75" width="112.5" height="112.5" fill="#c8433f"></rect><rect x="1987.5" y="637.5" width="75" height="75" fill="#cf5246"></rect><rect x="1950" y="750" width="150" height="150" fill="#3986bc"></rect><rect x="1968.75" y="768.75" width="112.5" height="112.5" fill="#c4dfec"></rect><rect x="1987.5" y="787.5" width="75" height="75" fill="#c8433f"></rect><rect x="1950" y="900" width="150" height="150" fill="#c8433f"></rect><rect x="1968.75" y="918.75" width="112.5" height="112.5" fill="#c8433f"></rect><rect x="1987.5" y="937.5" width="75" height="75" fill="#3986bc"></rect><rect x="1950" y="1050" width="150" height="150" fill="#f9efe9"></rect><rect x="1968.75" y="1068.75" width="112.5" height="112.5" fill="#c4dfec"></rect><rect x="1987.5" y="1087.5" width="75" height="75" fill="#c8433f"></rect><rect x="2100" y="600" width="150" height="150" fill="#c8433f"></rect><rect x="2118.75" y="618.75" width="112.5" height="112.5" fill="#eb9072"></rect><rect x="2137.5" y="637.5" width="75" height="75" fill="#b92632"></rect><rect x="2100" y="750" width="150" height="150" fill="#3986bc"></rect><rect x="2118.75" y="768.75" width="112.5" height="112.5" fill="#3986bc"></rect><rect x="2137.5" y="787.5" width="75" height="75" fill="#c8433f"></rect><rect x="2100" y="900" width="150" height="150" fill="#c8433f"></rect><rect x="2118.75" y="918.75" width="112.5" height="112.5" fill="#4393c3"></rect><rect x="2137.5" y="937.5" width="75" height="75" fill="#4393c3"></rect><rect x="2100" y="1050" width="150" height="150" fill="#f9c5ab"></rect><rect x="2118.75" y="1068.75" width="112.5" height="112.5" fill="#b92632"></rect><rect x="2137.5" y="1087.5" width="75" height="75" fill="#f9c5ab"></rect><rect x="2250" y="600" width="150" height="150" fill="#b92632"></rect><rect x="2268.75" y="618.75" width="112.5" height="112.5" fill="#b92632"></rect><rect x="2287.5" y="637.5" width="75" height="75" fill="#cf5246"></rect><rect x="2250" y="750" width="150" height="150" fill="#c8433f"></rect><rect x="2268.75" y="768.75" width="112.5" height="112.5" fill="#3986bc"></rect><rect x="2287.5" y="787.5" width="75" height="75" fill="#c8433f"></rect><rect x="2250" y="900" width="150" height="150" fill="#f9c5ab"></rect><rect x="2268.75" y="918.75" width="112.5" height="112.5" fill="#c8433f"></rect><rect x="2287.5" y="937.5" width="75" height="75" fill="#3986bc"></rect><rect x="2250" y="1050" width="150" height="150" fill="#cf5246"></rect><rect x="2268.75" y="1068.75" width="112.5" height="112.5" fill="#f9efe9"></rect><rect x="2287.5" y="1087.5" width="75" height="75" fill="#3986bc"></rect><rect x="1800" y="1200" width="150" height="150" fill="#a5cfe3"></rect><rect x="1818.75" y="1218.75" width="112.5" height="112.5" fill="#a31329"></rect><rect x="1837.5" y="1237.5" width="75" height="75" fill="#9fcbe2"></rect><rect x="1800" y="1350" width="150" height="150" fill="#fae9df"></rect><rect x="1818.75" y="1368.75" width="112.5" height="112.5" fill="#ee9777"></rect><rect x="1837.5" y="1387.5" width="75" height="75" fill="#9fcbe2"></rect><rect x="1800" y="1500" width="150" height="150" fill="#f4a582"></rect><rect x="1818.75" y="1518.75" width="112.5" height="112.5" fill="#cb4a43"></rect><rect x="1837.5" y="1537.5" width="75" height="75" fill="#e8f0f4"></rect><rect x="1800" y="1650" width="150" height="150" fill="#9fcbe2"></rect><rect x="1818.75" y="1668.75" width="112.5" height="112.5" fill="#f4a582"></rect><rect x="1837.5" y="1687.5" width="75" height="75" fill="#195695"></rect><rect x="1950" y="1200" width="150" height="150" fill="#e8f0f4"></rect><rect x="1968.75" y="1218.75" width="112.5" height="112.5" fill="#cb4a43"></rect><rect x="1987.5" y="1237.5" width="75" height="75" fill="#a31329"></rect><rect x="1950" y="1350" width="150" height="150" fill="#9fcbe2"></rect><rect x="1968.75" y="1368.75" width="112.5" height="112.5" fill="#a5cfe3"></rect><rect x="1987.5" y="1387.5" width="75" height="75" fill="#a5cfe3"></rect><rect x="1950" y="1500" width="150" height="150" fill="#e8f0f4"></rect><rect x="1968.75" y="1518.75" width="112.5" height="112.5" fill="#ee9777"></rect><rect x="1987.5" y="1537.5" width="75" height="75" fill="#195695"></rect><rect x="1950" y="1650" width="150" height="150" fill="#fae9df"></rect><rect x="1968.75" y="1668.75" width="112.5" height="112.5" fill="#f4a582"></rect><rect x="1987.5" y="1687.5" width="75" height="75" fill="#ee9777"></rect><rect x="2100" y="1200" width="150" height="150" fill="#9fcbe2"></rect><rect x="2118.75" y="1218.75" width="112.5" height="112.5" fill="#a5cfe3"></rect><rect x="2137.5" y="1237.5" width="75" height="75" fill="#9fcbe2"></rect><rect x="2100" y="1350" width="150" height="150" fill="#a31329"></rect><rect x="2118.75" y="1368.75" width="112.5" height="112.5" fill="#9fcbe2"></rect><rect x="2137.5" y="1387.5" width="75" height="75" fill="#fae9df"></rect><rect x="2100" y="1500" width="150" height="150" fill="#e8f0f4"></rect><rect x="2118.75" y="1518.75" width="112.5" height="112.5" fill="#e8f0f4"></rect><rect x="2137.5" y="1537.5" width="75" height="75" fill="#cb4a43"></rect><rect x="2100" y="1650" width="150" height="150" fill="#a31329"></rect><rect x="2118.75" y="1668.75" width="112.5" height="112.5" fill="#cb4a43"></rect><rect x="2137.5" y="1687.5" width="75" height="75" fill="#e8f0f4"></rect><rect x="2250" y="1200" width="150" height="150" fill="#9fcbe2"></rect><rect x="2268.75" y="1218.75" width="112.5" height="112.5" fill="#e8f0f4"></rect><rect x="2287.5" y="1237.5" width="75" height="75" fill="#a31329"></rect><rect x="2250" y="1350" width="150" height="150" fill="#fae9df"></rect><rect x="2268.75" y="1368.75" width="112.5" height="112.5" fill="#9fcbe2"></rect><rect x="2287.5" y="1387.5" width="75" height="75" fill="#f4a582"></rect><rect x="2250" y="1500" width="150" height="150" fill="#195695"></rect><rect x="2268.75" y="1518.75" width="112.5" height="112.5" fill="#fae9df"></rect><rect x="2287.5" y="1537.5" width="75" height="75" fill="#fae9df"></rect><rect x="2250" y="1650" width="150" height="150" fill="#a5cfe3"></rect><rect x="2268.75" y="1668.75" width="112.5" height="112.5" fill="#a31329"></rect><rect x="2287.5" y="1687.5" width="75" height="75" fill="#ee9777"></rect><rect x="1800" y="1800" width="150" height="150" fill="#f7b597"></rect><rect x="1818.75" y="1818.75" width="112.5" height="112.5" fill="#f7f7f7"></rect><rect x="1837.5" y="1837.5" width="75" height="75" fill="#760521"></rect><rect x="1800" y="1950" width="150" height="150" fill="#f4a582"></rect><rect x="1818.75" y="1968.75" width="112.5" height="112.5" fill="#c8433f"></rect><rect x="1837.5" y="1987.5" width="75" height="75" fill="#67001f"></rect><rect x="1800" y="2100" width="150" height="150" fill="#bedbeb"></rect><rect x="1818.75" y="2118.75" width="112.5" height="112.5" fill="#f7b597"></rect><rect x="1837.5" y="2137.5" width="75" height="75" fill="#67001f"></rect><rect x="1800" y="2250" width="150" height="150" fill="#dc6e58"></rect><rect x="1818.75" y="2268.75" width="112.5" height="112.5" fill="#c8433f"></rect><rect x="1837.5" y="2287.5" width="75" height="75" fill="#f4a582"></rect><rect x="1950" y="1800" width="150" height="150" fill="#bedbeb"></rect><rect x="1968.75" y="1818.75" width="112.5" height="112.5" fill="#f4a582"></rect><rect x="1987.5" y="1837.5" width="75" height="75" fill="#760521"></rect><rect x="1950" y="1950" width="150" height="150" fill="#f4a582"></rect><rect x="1968.75" y="1968.75" width="112.5" height="112.5" fill="#c03539"></rect><rect x="1987.5" y="1987.5" width="75" height="75" fill="#c8433f"></rect><rect x="1950" y="2100" width="150" height="150" fill="#67001f"></rect><rect x="1968.75" y="2118.75" width="112.5" height="112.5" fill="#c03539"></rect><rect x="1987.5" y="2137.5" width="75" height="75" fill="#bedbeb"></rect><rect x="1950" y="2250" width="150" height="150" fill="#f4a582"></rect><rect x="1968.75" y="2268.75" width="112.5" height="112.5" fill="#760521"></rect><rect x="1987.5" y="2287.5" width="75" height="75" fill="#760521"></rect><rect x="2100" y="1800" width="150" height="150" fill="#c03539"></rect><rect x="2118.75" y="1818.75" width="112.5" height="112.5" fill="#f4a582"></rect><rect x="2137.5" y="1837.5" width="75" height="75" fill="#f4a582"></rect><rect x="2100" y="1950" width="150" height="150" fill="#bedbeb"></rect><rect x="2118.75" y="1968.75" width="112.5" height="112.5" fill="#bedbeb"></rect><rect x="2137.5" y="1987.5" width="75" height="75" fill="#760521"></rect><rect x="2100" y="2100" width="150" height="150" fill="#760521"></rect><rect x="2118.75" y="2118.75" width="112.5" height="112.5" fill="#c03539"></rect><rect x="2137.5" y="2137.5" width="75" height="75" fill="#c8433f"></rect><rect x="2100" y="2250" width="150" height="150" fill="#67001f"></rect><rect x="2118.75" y="2268.75" width="112.5" height="112.5" fill="#f7b597"></rect><rect x="2137.5" y="2287.5" width="75" height="75" fill="#bedbeb"></rect><rect x="2250" y="1800" width="150" height="150" fill="#f7b597"></rect><rect x="2268.75" y="1818.75" width="112.5" height="112.5" fill="#fce1d1"></rect><rect x="2287.5" y="1837.5" width="75" height="75" fill="#f4a582"></rect><rect x="2250" y="1950" width="150" height="150" fill="#dc6e58"></rect><rect x="2268.75" y="1968.75" width="112.5" height="112.5" fill="#f7b597"></rect><rect x="2287.5" y="1987.5" width="75" height="75" fill="#760521"></rect><rect x="2250" y="2100" width="150" height="150" fill="#67001f"></rect><rect x="2268.75" y="2118.75" width="112.5" height="112.5" fill="#fce1d1"></rect><rect x="2287.5" y="2137.5" width="75" height="75" fill="#c8433f"></rect><rect x="2250" y="2250" width="150" height="150" fill="#67001f"></rect><rect x="2268.75" y="2268.75" width="112.5" height="112.5" fill="#f4a582"></rect><rect x="2287.5" y="2287.5" width="75" height="75" fill="#c8433f"></rect></g></svg>