<svg version="1.1" xmlns="http://www.w3.org/2000/svg" xmlns:xlink="http://www.w3.org/1999/xlink" width="2400" height="2400" viewBox="0,0,2400,2400"><g fill="none" fill-rule="nonzero" stroke="none" stroke-width="1" stroke-linecap="butt" stroke-linejoin="miter" stroke-miterlimit="10" stroke-dasharray="" stroke-dashoffset="0" font-family="none" font-weight="none" font-size="none" text-anchor="none" style="mix-blend-mode: normal"><rect x="0" y="0" width="2400" height="2400" fill="#000000" stroke="#000000"></rect><rect x="-300" y="-300" width="1200" height="1200" fill="#3181bd" stroke="none"></rect><rect x="0" y="0" width="600" height="600" fill="#1967ad" stroke="none"></rect><rect x="0" y="600" width="600" height="600" fill="#1b69af" stroke="none"></rect><rect x="-300" y="300" width="1200" height="1200" fill="#f7fbff" stroke="none"></rect><rect x="0" y="1200" width="300" height="300" fill="#d5e5f4" stroke="none"></rect><rect x="75" y="1275" width="150" height="150" fill="#eff6fc" stroke="none"></rect><rect x="0" y="1500" width="300" height="300" fill="#d5e5f4" stroke="none"></rect><rect x="75" y="1575" width="150" height="150" fill="#dfecf7" stroke="none"></rect><rect x="300" y="1200" width="300" height="300" fill="#d5e5f4" stroke="none"></rect><rect x="375" y="1275" width="150" height="150" fill="#2c7cba" stroke="none"></rect><rect x="300" y="1500" width="300" height="300" fill="#2c7cba" stroke="none"></rect><rect x="375" y="1575" width="150" height="150" fill="#2c7cba" stroke="none"></rect><rect x="0" y="1800" width="300" height="300" fill="#08488e" stroke="none"></rect><rect x="75" y="1875" width="150" height="150" fill="#084d96" stroke="none"></rect><rect x="0" y="2100" width="300" height="300" fill="#08458a" stroke="none"></rect><rect x="75" y="2175" width="150" height="150" fill="#f1f7fd" stroke="none"></rect><rect x="300" y="1800" width="300" height="300" fill="#1f6eb3" stroke="none"></rect><rect x="375" y="1875" width="150" height="150" fill="#084d96" stroke="none"></rect><rect x="300" y="2100" width="300" height="300" fill="#08488e" stroke="none"></rect><rect x="375" y="2175" width="150" height="150" fill="#084d96" stroke="none"></rect><rect x="600" y="0" width="600" height="600" fill="#135fa7" stroke="none"></rect><rect x="300" y="-300" width="1200" height="1200" fill="#084a92" stroke="none"></rect><rect x="300" y="300" width="1200" height="1200" fill="#88bedc" stroke="none"></rect><rect x="600" y="600" width="600" height="600" fill="#3181bd" stroke="none"></rect><rect x="300" y="900" width="1200" height="1200" fill="#7fb9da" stroke="none"></rect><rect x="600" y="1200" width="600" height="600" fill="#3b8bc3" stroke="none"></rect><rect x="600" y="1800" width="300" height="300" fill="#77b5d9" stroke="none"></rect><rect x="675" y="1875" width="150" height="150" fill="#1d6cb1" stroke="none"></rect><rect x="600" y="2100" width="300" height="300" fill="#e5eff9" stroke="none"></rect><rect x="675" y="2175" width="150" height="150" fill="#77b5d9" stroke="none"></rect><rect x="900" y="1800" width="300" height="300" fill="#77b5d9" stroke="none"></rect><rect x="975" y="1875" width="150" height="150" fill="#ebf3fb" stroke="none"></rect><rect x="900" y="2100" width="300" height="300" fill="#1967ad" stroke="none"></rect><rect x="975" y="2175" width="150" height="150" fill="#1d6cb1" stroke="none"></rect><rect x="1200" y="0" width="300" height="300" fill="#dfecf7" stroke="none"></rect><rect x="1275" y="75" width="150" height="150" fill="#3383bf" stroke="none"></rect><rect x="1200" y="300" width="300" height="300" fill="#6fb0d7" stroke="none"></rect><rect x="1275" y="375" width="150" height="150" fill="#dfecf7" stroke="none"></rect><rect x="1500" y="0" width="300" height="300" fill="#135fa7" stroke="none"></rect><rect x="1575" y="75" width="150" height="150" fill="#2c7cba" stroke="none"></rect><rect x="1500" y="300" width="300" height="300" fill="#dfecf7" stroke="none"></rect><rect x="1575" y="375" width="150" height="150" fill="#3383bf" stroke="none"></rect><rect x="1200" y="600" width="300" height="300" fill="#b6d4e9" stroke="none"></rect><rect x="1275" y="675" width="150" height="150" fill="#2979b9" stroke="none"></rect><rect x="1200" y="900" width="300" height="300" fill="#7fb9da" stroke="none"></rect><rect x="1275" y="975" width="150" height="150" fill="#084286" stroke="none"></rect><rect x="1500" y="600" width="300" height="300" fill="#0d57a1" stroke="none"></rect><rect x="1575" y="675" width="150" height="150" fill="#1f6eb3" stroke="none"></rect><rect x="1500" y="900" width="300" height="300" fill="#7fb9da" stroke="none"></rect><rect x="1575" y="975" width="150" height="150" fill="#7fb9da" stroke="none"></rect><rect x="900" y="900" width="1200" height="1200" fill="#2c7cba" stroke="none"></rect><rect x="1200" y="1200" width="600" height="600" fill="#4a98c9" stroke="none"></rect><rect x="900" y="1500" width="1200" height="1200" fill="#cadef0" stroke="none"></rect><rect x="1200" y="1800" width="600" height="600" fill="#bcd7ec" stroke="none"></rect><rect x="1800" y="0" width="300" height="300" fill="#a9cfe5" stroke="none"></rect><rect x="1875" y="75" width="150" height="150" fill="#a9cfe5" stroke="none"></rect><rect x="1800" y="300" width="300" height="300" fill="#e9f2fb" stroke="none"></rect><rect x="1875" y="375" width="150" height="150" fill="#f1f7fd" stroke="none"></rect><rect x="2100" y="0" width="300" height="300" fill="#64aad3" stroke="none"></rect><rect x="2175" y="75" width="150" height="150" fill="#64aad3" stroke="none"></rect><rect x="2100" y="300" width="300" height="300" fill="#64aad3" stroke="none"></rect><rect x="2175" y="375" width="150" height="150" fill="#b3d3e8" stroke="none"></rect><rect x="1500" y="300" width="1200" height="1200" fill="#2676b8" stroke="none"></rect><rect x="1800" y="600" width="600" height="600" fill="#08509a" stroke="none"></rect><rect x="1800" y="1200" width="300" height="300" fill="#2979b9" stroke="none"></rect><rect x="1875" y="1275" width="150" height="150" fill="#549ecd" stroke="none"></rect><rect x="1800" y="1500" width="300" height="300" fill="#549ecd" stroke="none"></rect><rect x="1875" y="1575" width="150" height="150" fill="#08336f" stroke="none"></rect><rect x="2100" y="1200" width="300" height="300" fill="#64aad3" stroke="none"></rect><rect x="2175" y="1275" width="150" height="150" fill="#2979b9" stroke="none"></rect><rect x="2100" y="1500" width="300" height="300" fill="#a6cde4" stroke="none"></rect><rect x="2175" y="1575" width="150" height="150" fill="#68acd5" stroke="none"></rect><rect x="1800" y="1800" width="300" height="300" fill="#084286" stroke="none"></rect><rect x="1875" y="1875" width="150" height="150" fill="#08458a" stroke="none"></rect><rect x="1800" y="2100" width="300" height="300" fill="#084083" stroke="none"></rect><rect x="1875" y="2175" width="150" height="150" fill="#94c4df" stroke="none"></rect><rect x="2100" y="1800" width="300" height="300" fill="#08458a" stroke="none"></rect><rect x="2175" y="1875" width="150" height="150" fill="#084083" stroke="none"></rect><rect x="2100" y="2100" width="300" height="300" fill="#084083" stroke="none"></rect><rect x="2175" y="2175" width="150" height="150" fill="#3989c1" stroke="none"></rect></g></svg>