<svg version="1.1" xmlns="http://www.w3.org/2000/svg" xmlns:xlink="http://www.w3.org/1999/xlink" width="2400" height="2400" viewBox="0,0,2400,2400"><g fill="none" fill-rule="nonzero" stroke="none" stroke-width="1" stroke-linecap="butt" stroke-linejoin="miter" stroke-miterlimit="10" stroke-dasharray="" stroke-dashoffset="0" font-family="none" font-weight="none" font-size="none" text-anchor="none" style="mix-blend-mode: normal"><rect x="0" y="0" width="300" height="300" fill="#ad162a"></rect><rect x="75" y="75" width="150" height="150" fill="#b51d2d"></rect><rect x="0" y="300" width="300" height="300" fill="#ad162a"></rect><rect x="75" y="375" width="150" height="150" fill="#b51d2d"></rect><rect x="300" y="0" width="300" height="300" fill="#b51d2d"></rect><rect x="375" y="75" width="150" height="150" fill="#ad162a"></rect><rect x="300" y="300" width="300" height="300" fill="#cccccc"></rect><rect x="375" y="375" width="150" height="150" fill="#b51d2d"></rect><rect x="0" y="600" width="300" height="300" fill="#b51d2d"></rect><rect x="75" y="675" width="150" height="150" fill="#b7212f"></rect><rect x="0" y="900" width="300" height="300" fill="#b7212f"></rect><rect x="75" y="975" width="150" height="150" fill="#be3036"></rect><rect x="300" y="600" width="300" height="300" fill="#b51d2d"></rect><rect x="375" y="675" width="150" height="150" fill="#b7212f"></rect><rect x="300" y="900" width="300" height="300" fill="#cccccc"></rect><rect x="375" y="975" width="150" height="150" fill="#b51d2d"></rect><rect x="0" y="1200" width="300" height="300" fill="#d35b4b"></rect><rect x="75" y="1275" width="150" height="150" fill="#d35b4b"></rect><rect x="0" y="1500" width="300" height="300" fill="#ca4842"></rect><rect x="75" y="1575" width="150" height="150" fill="#c33a3b"></rect><rect x="300" y="1200" width="300" height="300" fill="#c33a3b"></rect><rect x="375" y="1275" width="150" height="150" fill="#d35b4b"></rect><rect x="300" y="1500" width="300" height="300" fill="#d35b4b"></rect><rect x="375" y="1575" width="150" height="150" fill="#c33a3b"></rect><rect x="0" y="1800" width="150" height="150" fill="#c53e3d"></rect><rect x="37.5" y="1837.5" width="75" height="75" fill="#c33a3b"></rect><rect x="0" y="1950" width="150" height="150" fill="#c33a3b"></rect><rect x="37.5" y="1987.5" width="75" height="75" fill="#cccccc"></rect><rect x="0" y="2100" width="150" height="150" fill="#c33a3b"></rect><rect x="37.5" y="2137.5" width="75" height="75" fill="#cccccc"></rect><rect x="0" y="2250" width="150" height="150" fill="#cccccc"></rect><rect x="37.5" y="2287.5" width="75" height="75" fill="#cccccc"></rect><rect x="150" y="1800" width="150" height="150" fill="#c33a3b"></rect><rect x="187.5" y="1837.5" width="75" height="75" fill="#c33a3b"></rect><rect x="150" y="1950" width="150" height="150" fill="#c53e3d"></rect><rect x="187.5" y="1987.5" width="75" height="75" fill="#c33a3b"></rect><rect x="150" y="2100" width="150" height="150" fill="#c33a3b"></rect><rect x="187.5" y="2137.5" width="75" height="75" fill="#c33a3b"></rect><rect x="150" y="2250" width="150" height="150" fill="#c33a3b"></rect><rect x="187.5" y="2287.5" width="75" height="75" fill="#c53e3d"></rect><rect x="300" y="1800" width="150" height="150" fill="#cccccc"></rect><rect x="337.5" y="1837.5" width="75" height="75" fill="#c33a3b"></rect><rect x="300" y="1950" width="150" height="150" fill="#c33a3b"></rect><rect x="337.5" y="1987.5" width="75" height="75" fill="#c33a3b"></rect><rect x="300" y="2100" width="150" height="150" fill="#c33a3b"></rect><rect x="337.5" y="2137.5" width="75" height="75" fill="#c53e3d"></rect><rect x="300" y="2250" width="150" height="150" fill="#c53e3d"></rect><rect x="337.5" y="2287.5" width="75" height="75" fill="#c33a3b"></rect><rect x="450" y="1800" width="150" height="150" fill="#c33a3b"></rect><rect x="487.5" y="1837.5" width="75" height="75" fill="#c33a3b"></rect><rect x="450" y="1950" width="150" height="150" fill="#c33a3b"></rect><rect x="487.5" y="1987.5" width="75" height="75" fill="#c53e3d"></rect><rect x="450" y="2100" width="150" height="150" fill="#c53e3d"></rect><rect x="487.5" y="2137.5" width="75" height="75" fill="#c33a3b"></rect><rect x="450" y="2250" width="150" height="150" fill="#cccccc"></rect><rect x="487.5" y="2287.5" width="75" height="75" fill="#cccccc"></rect><rect x="600" y="0" width="600" height="600" fill="#940e26"></rect><rect x="750" y="150" width="300" height="300" fill="#be3036"></rect><rect x="720" y="120" width="360" height="360" fill="#cccccc"></rect><rect x="690" y="90" width="420" height="420" fill="#940e26"></rect><rect x="630" y="30" width="540" height="540" fill="#be3036"></rect><rect x="660" y="60" width="480" height="480" fill="#cccccc"></rect><rect x="600" y="600" width="600" height="600" fill="#b2182b"></rect><rect x="720" y="720" width="360" height="360" fill="#cccccc"></rect><rect x="690" y="690" width="420" height="420" fill="#b2182b"></rect><rect x="630" y="630" width="540" height="540" fill="#cccccc"></rect><rect x="750" y="750" width="300" height="300" fill="#bc2b34"></rect><rect x="660" y="660" width="480" height="480" fill="#bc2b34"></rect><rect x="600" y="1200" width="600" height="600" fill="#d6604d"></rect><rect x="720" y="1320" width="360" height="360" fill="#c03539"></rect><rect x="690" y="1290" width="420" height="420" fill="#cc4d44"></rect><rect x="630" y="1230" width="540" height="540" fill="#cccccc"></rect><rect x="750" y="1350" width="300" height="300" fill="#cccccc"></rect><rect x="660" y="1260" width="480" height="480" fill="#d6604d"></rect><rect x="600" y="1800" width="150" height="150" fill="#cc4d44"></rect><rect x="637.5" y="1837.5" width="75" height="75" fill="#ad162a"></rect><rect x="600" y="1950" width="150" height="150" fill="#ad162a"></rect><rect x="637.5" y="1987.5" width="75" height="75" fill="#b92632"></rect><rect x="600" y="2100" width="150" height="150" fill="#cc4d44"></rect><rect x="637.5" y="2137.5" width="75" height="75" fill="#ad162a"></rect><rect x="600" y="2250" width="150" height="150" fill="#ad162a"></rect><rect x="637.5" y="2287.5" width="75" height="75" fill="#ad162a"></rect><rect x="750" y="1800" width="150" height="150" fill="#cccccc"></rect><rect x="787.5" y="1837.5" width="75" height="75" fill="#cccccc"></rect><rect x="750" y="1950" width="150" height="150" fill="#cc4d44"></rect><rect x="787.5" y="1987.5" width="75" height="75" fill="#cc4d44"></rect><rect x="750" y="2100" width="150" height="150" fill="#ad162a"></rect><rect x="787.5" y="2137.5" width="75" height="75" fill="#b92632"></rect><rect x="750" y="2250" width="150" height="150" fill="#cccccc"></rect><rect x="787.5" y="2287.5" width="75" height="75" fill="#b92632"></rect><rect x="900" y="1800" width="150" height="150" fill="#cc4d44"></rect><rect x="937.5" y="1837.5" width="75" height="75" fill="#b92632"></rect><rect x="900" y="1950" width="150" height="150" fill="#b92632"></rect><rect x="937.5" y="1987.5" width="75" height="75" fill="#b92632"></rect><rect x="900" y="2100" width="150" height="150" fill="#cc4d44"></rect><rect x="937.5" y="2137.5" width="75" height="75" fill="#ad162a"></rect><rect x="900" y="2250" width="150" height="150" fill="#cc4d44"></rect><rect x="937.5" y="2287.5" width="75" height="75" fill="#cccccc"></rect><rect x="1050" y="1800" width="150" height="150" fill="#b92632"></rect><rect x="1087.5" y="1837.5" width="75" height="75" fill="#cc4d44"></rect><rect x="1050" y="1950" width="150" height="150" fill="#cccccc"></rect><rect x="1087.5" y="1987.5" width="75" height="75" fill="#cc4d44"></rect><rect x="1050" y="2100" width="150" height="150" fill="#cc4d44"></rect><rect x="1087.5" y="2137.5" width="75" height="75" fill="#b92632"></rect><rect x="1050" y="2250" width="150" height="150" fill="#cc4d44"></rect><rect x="1087.5" y="2287.5" width="75" height="75" fill="#cc4d44"></rect><rect x="1200" y="0" width="300" height="300" fill="#b7212f"></rect><rect x="1275" y="75" width="150" height="150" fill="#c53e3d"></rect><rect x="1200" y="300" width="300" height="300" fill="#cccccc"></rect><rect x="1275" y="375" width="150" height="150" fill="#b7212f"></rect><rect x="1500" y="0" width="300" height="300" fill="#cccccc"></rect><rect x="1575" y="75" width="150" height="150" fill="#c53e3d"></rect><rect x="1500" y="300" width="300" height="300" fill="#b7212f"></rect><rect x="1575" y="375" width="150" height="150" fill="#c53e3d"></rect><rect x="1200" y="600" width="300" height="300" fill="#bc2b34"></rect><rect x="1275" y="675" width="150" height="150" fill="#b92632"></rect><rect x="1200" y="900" width="300" height="300" fill="#bc2b34"></rect><rect x="1275" y="975" width="150" height="150" fill="#bc2b34"></rect><rect x="1500" y="600" width="300" height="300" fill="#d15749"></rect><rect x="1575" y="675" width="150" height="150" fill="#bc2b34"></rect><rect x="1500" y="900" width="300" height="300" fill="#d15749"></rect><rect x="1575" y="975" width="150" height="150" fill="#bc2b34"></rect><rect x="1200" y="1200" width="600" height="600" fill="#cccccc"></rect><rect x="1260" y="1260" width="480" height="480" fill="#e0775e"></rect><rect x="1350" y="1350" width="300" height="300" fill="#cccccc"></rect><rect x="1320" y="1320" width="360" height="360" fill="#d86551"></rect><rect x="1230" y="1230" width="540" height="540" fill="#d86551"></rect><rect x="1290" y="1290" width="420" height="420" fill="#d86551"></rect><rect x="1200" y="1800" width="150" height="150" fill="#ca4842"></rect><rect x="1237.5" y="1837.5" width="75" height="75" fill="#ca4842"></rect><rect x="1200" y="1950" width="150" height="150" fill="#cccccc"></rect><rect x="1237.5" y="1987.5" width="75" height="75" fill="#ca4842"></rect><rect x="1200" y="2100" width="150" height="150" fill="#cccccc"></rect><rect x="1237.5" y="2137.5" width="75" height="75" fill="#c53e3d"></rect><rect x="1200" y="2250" width="150" height="150" fill="#ca4842"></rect><rect x="1237.5" y="2287.5" width="75" height="75" fill="#ca4842"></rect><rect x="1350" y="1800" width="150" height="150" fill="#ca4842"></rect><rect x="1387.5" y="1837.5" width="75" height="75" fill="#c8433f"></rect><rect x="1350" y="1950" width="150" height="150" fill="#ca4842"></rect><rect x="1387.5" y="1987.5" width="75" height="75" fill="#c8433f"></rect><rect x="1350" y="2100" width="150" height="150" fill="#ca4842"></rect><rect x="1387.5" y="2137.5" width="75" height="75" fill="#c53e3d"></rect><rect x="1350" y="2250" width="150" height="150" fill="#ca4842"></rect><rect x="1387.5" y="2287.5" width="75" height="75" fill="#c53e3d"></rect><rect x="1500" y="1800" width="150" height="150" fill="#ca4842"></rect><rect x="1537.5" y="1837.5" width="75" height="75" fill="#c8433f"></rect><rect x="1500" y="1950" width="150" height="150" fill="#ca4842"></rect><rect x="1537.5" y="1987.5" width="75" height="75" fill="#cccccc"></rect><rect x="1500" y="2100" width="150" height="150" fill="#c8433f"></rect><rect x="1537.5" y="2137.5" width="75" height="75" fill="#c53e3d"></rect><rect x="1500" y="2250" width="150" height="150" fill="#c8433f"></rect><rect x="1537.5" y="2287.5" width="75" height="75" fill="#c8433f"></rect><rect x="1650" y="1800" width="150" height="150" fill="#cccccc"></rect><rect x="1687.5" y="1837.5" width="75" height="75" fill="#c8433f"></rect><rect x="1650" y="1950" width="150" height="150" fill="#ca4842"></rect><rect x="1687.5" y="1987.5" width="75" height="75" fill="#ca4842"></rect><rect x="1650" y="2100" width="150" height="150" fill="#cccccc"></rect><rect x="1687.5" y="2137.5" width="75" height="75" fill="#c8433f"></rect><rect x="1650" y="2250" width="150" height="150" fill="#c8433f"></rect><rect x="1687.5" y="2287.5" width="75" height="75" fill="#c53e3d"></rect><rect x="1800" y="0" width="150" height="150" fill="#b51d2d"></rect><rect x="1837.5" y="37.5" width="75" height="75" fill="#b51d2d"></rect><rect x="1800" y="150" width="150" height="150" fill="#cccccc"></rect><rect x="1837.5" y="187.5" width="75" height="75" fill="#b2182b"></rect><rect x="1800" y="300" width="150" height="150" fill="#b2182b"></rect><rect x="1837.5" y="337.5" width="75" height="75" fill="#b2182b"></rect><rect x="1800" y="450" width="150" height="150" fill="#cccccc"></rect><rect x="1837.5" y="487.5" width="75" height="75" fill="#b2182b"></rect><rect x="1950" y="0" width="150" height="150" fill="#b2182b"></rect><rect x="1987.5" y="37.5" width="75" height="75" fill="#b2182b"></rect><rect x="1950" y="150" width="150" height="150" fill="#b2182b"></rect><rect x="1987.5" y="187.5" width="75" height="75" fill="#b2182b"></rect><rect x="1950" y="300" width="150" height="150" fill="#b2182b"></rect><rect x="1987.5" y="337.5" width="75" height="75" fill="#b2182b"></rect><rect x="1950" y="450" width="150" height="150" fill="#cccccc"></rect><rect x="1987.5" y="487.5" width="75" height="75" fill="#b2182b"></rect><rect x="2100" y="0" width="150" height="150" fill="#b2182b"></rect><rect x="2137.5" y="37.5" width="75" height="75" fill="#b2182b"></rect><rect x="2100" y="150" width="150" height="150" fill="#b2182b"></rect><rect x="2137.5" y="187.5" width="75" height="75" fill="#b2182b"></rect><rect x="2100" y="300" width="150" height="150" fill="#b2182b"></rect><rect x="2137.5" y="337.5" width="75" height="75" fill="#cccccc"></rect><rect x="2100" y="450" width="150" height="150" fill="#b51d2d"></rect><rect x="2137.5" y="487.5" width="75" height="75" fill="#b2182b"></rect><rect x="2250" y="0" width="150" height="150" fill="#b2182b"></rect><rect x="2287.5" y="37.5" width="75" height="75" fill="#b2182b"></rect><rect x="2250" y="150" width="150" height="150" fill="#b2182b"></rect><rect x="2287.5" y="187.5" width="75" height="75" fill="#cccccc"></rect><rect x="2250" y="300" width="150" height="150" fill="#cccccc"></rect><rect x="2287.5" y="337.5" width="75" height="75" fill="#b51d2d"></rect><rect x="2250" y="450" width="150" height="150" fill="#cccccc"></rect><rect x="2287.5" y="487.5" width="75" height="75" fill="#cccccc"></rect><rect x="1800" y="600" width="600" height="600" fill="#a31329"></rect><rect x="1950" y="750" width="300" height="300" fill="#a31329"></rect><rect x="1920" y="720" width="360" height="360" fill="#be3036"></rect><rect x="1890" y="690" width="420" height="420" fill="#be3036"></rect><rect x="1830" y="630" width="540" height="540" fill="#a31329"></rect><rect x="1860" y="660" width="480" height="480" fill="#a31329"></rect><rect x="1800" y="1200" width="600" height="600" fill="#c33a3b"></rect><rect x="1950" y="1350" width="300" height="300" fill="#ca4842"></rect><rect x="1890" y="1290" width="420" height="420" fill="#c33a3b"></rect><rect x="1920" y="1320" width="360" height="360" fill="#cf5246"></rect><rect x="1860" y="1260" width="480" height="480" fill="#cf5246"></rect><rect x="1830" y="1230" width="540" height="540" fill="#ca4842"></rect><rect x="1800" y="1800" width="150" height="150" fill="#be3036"></rect><rect x="1837.5" y="1837.5" width="75" height="75" fill="#be3036"></rect><rect x="1800" y="1950" width="150" height="150" fill="#d6604d"></rect><rect x="1837.5" y="1987.5" width="75" height="75" fill="#be3036"></rect><rect x="1800" y="2100" width="150" height="150" fill="#d6604d"></rect><rect x="1837.5" y="2137.5" width="75" height="75" fill="#cccccc"></rect><rect x="1800" y="2250" width="150" height="150" fill="#cccccc"></rect><rect x="1837.5" y="2287.5" width="75" height="75" fill="#d6604d"></rect><rect x="1950" y="1800" width="150" height="150" fill="#b2182b"></rect><rect x="1987.5" y="1837.5" width="75" height="75" fill="#be3036"></rect><rect x="1950" y="1950" width="150" height="150" fill="#b2182b"></rect><rect x="1987.5" y="1987.5" width="75" height="75" fill="#cccccc"></rect><rect x="1950" y="2100" width="150" height="150" fill="#be3036"></rect><rect x="1987.5" y="2137.5" width="75" height="75" fill="#d6604d"></rect><rect x="1950" y="2250" width="150" height="150" fill="#cccccc"></rect><rect x="1987.5" y="2287.5" width="75" height="75" fill="#cccccc"></rect><rect x="2100" y="1800" width="150" height="150" fill="#be3036"></rect><rect x="2137.5" y="1837.5" width="75" height="75" fill="#b2182b"></rect><rect x="2100" y="1950" width="150" height="150" fill="#cccccc"></rect><rect x="2137.5" y="1987.5" width="75" height="75" fill="#be3036"></rect><rect x="2100" y="2100" width="150" height="150" fill="#b2182b"></rect><rect x="2137.5" y="2137.5" width="75" height="75" fill="#d6604d"></rect><rect x="2100" y="2250" width="150" height="150" fill="#be3036"></rect><rect x="2137.5" y="2287.5" width="75" height="75" fill="#d6604d"></rect><rect x="2250" y="1800" width="150" height="150" fill="#b2182b"></rect><rect x="2287.5" y="1837.5" width="75" height="75" fill="#b2182b"></rect><rect x="2250" y="1950" width="150" height="150" fill="#cccccc"></rect><rect x="2287.5" y="1987.5" width="75" height="75" fill="#cccccc"></rect><rect x="2250" y="2100" width="150" height="150" fill="#b2182b"></rect><rect x="2287.5" y="2137.5" width="75" height="75" fill="#b2182b"></rect><rect x="2250" y="2250" width="150" height="150" fill="#be3036"></rect><rect x="2287.5" y="2287.5" width="75" height="75" fill="#b2182b"></rect></g></svg>