<svg version="1.1" xmlns="http://www.w3.org/2000/svg" xmlns:xlink="http://www.w3.org/1999/xlink" width="2400" height="2400" viewBox="0,0,2400,2400"><g fill="none" fill-rule="nonzero" stroke="none" stroke-width="1" stroke-linecap="butt" stroke-linejoin="miter" stroke-miterlimit="10" stroke-dasharray="" stroke-dashoffset="0" font-family="none" font-weight="none" font-size="none" text-anchor="none" style="mix-blend-mode: normal"><rect x="0" y="0" width="150" height="150" fill="#75b2d4"></rect><rect x="37.5" y="37.5" width="75" height="75" fill="#327db8"></rect><rect x="0" y="150" width="150" height="150" fill="#cee3ef"></rect><rect x="37.5" y="187.5" width="75" height="75" fill="#60a6cd"></rect><rect x="0" y="300" width="150" height="150" fill="#2a72b2"></rect><rect x="37.5" y="337.5" width="75" height="75" fill="#deebf2"></rect><rect x="0" y="450" width="150" height="150" fill="#d2e6f0"></rect><rect x="37.5" y="487.5" width="75" height="75" fill="#4594c4"></rect><rect x="150" y="0" width="150" height="150" fill="#8dc2dc"></rect><rect x="187.5" y="37.5" width="75" height="75" fill="#b3d6e7"></rect><rect x="150" y="150" width="150" height="150" fill="#57a0ca"></rect><rect x="187.5" y="187.5" width="75" height="75" fill="#d6e7f1"></rect><rect x="150" y="300" width="150" height="150" fill="#77b4d5"></rect><rect x="187.5" y="337.5" width="75" height="75" fill="#4494c3"></rect><rect x="150" y="450" width="150" height="150" fill="#98c8e0"></rect><rect x="187.5" y="487.5" width="75" height="75" fill="#4e9ac7"></rect><rect x="300" y="0" width="150" height="150" fill="#2971b2"></rect><rect x="337.5" y="37.5" width="75" height="75" fill="#a9d0e4"></rect><rect x="300" y="150" width="150" height="150" fill="#71b0d3"></rect><rect x="337.5" y="187.5" width="75" height="75" fill="#4e9ac7"></rect><rect x="300" y="300" width="150" height="150" fill="#c0dceb"></rect><rect x="337.5" y="337.5" width="75" height="75" fill="#8dc2dc"></rect><rect x="300" y="450" width="150" height="150" fill="#2d76b4"></rect><rect x="337.5" y="487.5" width="75" height="75" fill="#e0ecf3"></rect><rect x="450" y="0" width="150" height="150" fill="#b7d8e9"></rect><rect x="487.5" y="37.5" width="75" height="75" fill="#327cb7"></rect><rect x="450" y="150" width="150" height="150" fill="#bbdaea"></rect><rect x="487.5" y="187.5" width="75" height="75" fill="#81bad8"></rect><rect x="450" y="300" width="150" height="150" fill="#2b73b3"></rect><rect x="487.5" y="337.5" width="75" height="75" fill="#95c6df"></rect><rect x="450" y="450" width="150" height="150" fill="#afd4e6"></rect><rect x="487.5" y="487.5" width="75" height="75" fill="#276eb0"></rect><rect x="150" y="750" width="300" height="300" fill="#4796c5"></rect><rect x="30" y="630" width="540" height="540" fill="#92c5de"></rect><rect x="60" y="660" width="480" height="480" fill="#e8f0f4"></rect><rect x="120" y="720" width="360" height="360" fill="#c3deec"></rect><rect x="0" y="600" width="600" height="600" fill="#67aacf"></rect><rect x="90" y="690" width="420" height="420" fill="#d3e6f0"></rect><rect x="0" y="1200" width="300" height="300" fill="#78b5d5"></rect><rect x="75" y="1275" width="150" height="150" fill="#3c8abe"></rect><rect x="0" y="1500" width="300" height="300" fill="#c1ddeb"></rect><rect x="75" y="1575" width="150" height="150" fill="#a2cde3"></rect><rect x="300" y="1200" width="300" height="300" fill="#347fb9"></rect><rect x="375" y="1275" width="150" height="150" fill="#a5cee3"></rect><rect x="300" y="1500" width="300" height="300" fill="#ddebf2"></rect><rect x="375" y="1575" width="150" height="150" fill="#3b88bd"></rect><rect x="0" y="1800" width="300" height="300" fill="#3783bb"></rect><rect x="75" y="1875" width="150" height="150" fill="#78b5d5"></rect><rect x="0" y="2100" width="300" height="300" fill="#8bc0dc"></rect><rect x="75" y="2175" width="150" height="150" fill="#3986bd"></rect><rect x="300" y="1800" width="300" height="300" fill="#5aa1cb"></rect><rect x="375" y="1875" width="150" height="150" fill="#99c9e0"></rect><rect x="300" y="2100" width="300" height="300" fill="#4b98c6"></rect><rect x="375" y="2175" width="150" height="150" fill="#2b73b3"></rect><rect x="600" y="0" width="150" height="150" fill="#3a88bd"></rect><rect x="637.5" y="37.5" width="75" height="75" fill="#b4d6e8"></rect><rect x="600" y="150" width="150" height="150" fill="#4997c5"></rect><rect x="637.5" y="187.5" width="75" height="75" fill="#2d76b4"></rect><rect x="600" y="300" width="150" height="150" fill="#93c6de"></rect><rect x="637.5" y="337.5" width="75" height="75" fill="#347fb9"></rect><rect x="600" y="450" width="150" height="150" fill="#3c8abe"></rect><rect x="637.5" y="487.5" width="75" height="75" fill="#f9ece5"></rect><rect x="750" y="0" width="150" height="150" fill="#73b2d3"></rect><rect x="787.5" y="37.5" width="75" height="75" fill="#276eb0"></rect><rect x="750" y="150" width="150" height="150" fill="#99c9e0"></rect><rect x="787.5" y="187.5" width="75" height="75" fill="#b1d5e7"></rect><rect x="750" y="300" width="150" height="150" fill="#1f62a7"></rect><rect x="787.5" y="337.5" width="75" height="75" fill="#82bbd9"></rect><rect x="750" y="450" width="150" height="150" fill="#abd2e5"></rect><rect x="787.5" y="487.5" width="75" height="75" fill="#3e8dc0"></rect><rect x="900" y="0" width="150" height="150" fill="#e6eff4"></rect><rect x="937.5" y="37.5" width="75" height="75" fill="#d4e6f1"></rect><rect x="900" y="150" width="150" height="150" fill="#3e8cc0"></rect><rect x="937.5" y="187.5" width="75" height="75" fill="#b0d4e7"></rect><rect x="900" y="300" width="150" height="150" fill="#5aa1cb"></rect><rect x="937.5" y="337.5" width="75" height="75" fill="#195797"></rect><rect x="900" y="450" width="150" height="150" fill="#92c5de"></rect><rect x="937.5" y="487.5" width="75" height="75" fill="#72b0d3"></rect><rect x="1050" y="0" width="150" height="150" fill="#276eb0"></rect><rect x="1087.5" y="37.5" width="75" height="75" fill="#a2cde3"></rect><rect x="1050" y="150" width="150" height="150" fill="#6eaed2"></rect><rect x="1087.5" y="187.5" width="75" height="75" fill="#579fca"></rect><rect x="1050" y="300" width="150" height="150" fill="#d6e8f1"></rect><rect x="1087.5" y="337.5" width="75" height="75" fill="#94c6de"></rect><rect x="1050" y="450" width="150" height="150" fill="#2167ac"></rect><rect x="1087.5" y="487.5" width="75" height="75" fill="#8dc2dc"></rect><rect x="600" y="600" width="300" height="300" fill="#9fcce2"></rect><rect x="675" y="675" width="150" height="150" fill="#72b0d3"></rect><rect x="600" y="900" width="300" height="300" fill="#4d99c6"></rect><rect x="675" y="975" width="150" height="150" fill="#cde3ef"></rect><rect x="900" y="600" width="300" height="300" fill="#b7d8e9"></rect><rect x="975" y="675" width="150" height="150" fill="#86beda"></rect><rect x="900" y="900" width="300" height="300" fill="#f9ebe3"></rect><rect x="975" y="975" width="150" height="150" fill="#6eaed2"></rect><rect x="600" y="1200" width="150" height="150" fill="#b3d6e7"></rect><rect x="637.5" y="1237.5" width="75" height="75" fill="#4191c2"></rect><rect x="600" y="1350" width="150" height="150" fill="#d3e6f0"></rect><rect x="637.5" y="1387.5" width="75" height="75" fill="#d1e5f0"></rect><rect x="600" y="1500" width="150" height="150" fill="#65a9cf"></rect><rect x="637.5" y="1537.5" width="75" height="75" fill="#bddbea"></rect><rect x="600" y="1650" width="150" height="150" fill="#79b5d5"></rect><rect x="637.5" y="1687.5" width="75" height="75" fill="#63a7ce"></rect><rect x="750" y="1200" width="150" height="150" fill="#69abd0"></rect><rect x="787.5" y="1237.5" width="75" height="75" fill="#d8e8f1"></rect><rect x="750" y="1350" width="150" height="150" fill="#4292c2"></rect><rect x="787.5" y="1387.5" width="75" height="75" fill="#9ecbe1"></rect><rect x="750" y="1500" width="150" height="150" fill="#b7d8e9"></rect><rect x="787.5" y="1537.5" width="75" height="75" fill="#3783bb"></rect><rect x="750" y="1650" width="150" height="150" fill="#89bfdb"></rect><rect x="787.5" y="1687.5" width="75" height="75" fill="#a2cde3"></rect><rect x="900" y="1200" width="150" height="150" fill="#62a6ce"></rect><rect x="937.5" y="1237.5" width="75" height="75" fill="#b8d8e9"></rect><rect x="900" y="1350" width="150" height="150" fill="#95c7df"></rect><rect x="937.5" y="1387.5" width="75" height="75" fill="#92c5de"></rect><rect x="900" y="1500" width="150" height="150" fill="#9fcbe2"></rect><rect x="937.5" y="1537.5" width="75" height="75" fill="#fbe6da"></rect><rect x="900" y="1650" width="150" height="150" fill="#4292c2"></rect><rect x="937.5" y="1687.5" width="75" height="75" fill="#569fca"></rect><rect x="1050" y="1200" width="150" height="150" fill="#aad1e5"></rect><rect x="1087.5" y="1237.5" width="75" height="75" fill="#3f8dc0"></rect><rect x="1050" y="1350" width="150" height="150" fill="#93c6de"></rect><rect x="1087.5" y="1387.5" width="75" height="75" fill="#a8d0e4"></rect><rect x="1050" y="1500" width="150" height="150" fill="#4191c2"></rect><rect x="1087.5" y="1537.5" width="75" height="75" fill="#86bdda"></rect><rect x="1050" y="1650" width="150" height="150" fill="#c9e1ee"></rect><rect x="1087.5" y="1687.5" width="75" height="75" fill="#559ec9"></rect><rect x="600" y="1800" width="600" height="600" fill="#3986bc"></rect><rect x="750" y="1950" width="300" height="300" fill="#bbdaea"></rect><rect x="720" y="1920" width="360" height="360" fill="#6bacd1"></rect><rect x="690" y="1890" width="420" height="420" fill="#3e8cbf"></rect><rect x="630" y="1830" width="540" height="540" fill="#92c5de"></rect><rect x="660" y="1860" width="480" height="480" fill="#70b0d3"></rect><rect x="1200" y="0" width="300" height="300" fill="#4292c2"></rect><rect x="1275" y="75" width="150" height="150" fill="#6badd1"></rect><rect x="1200" y="300" width="300" height="300" fill="#eef3f5"></rect><rect x="1275" y="375" width="150" height="150" fill="#93c6de"></rect><rect x="1500" y="0" width="300" height="300" fill="#c3deec"></rect><rect x="1575" y="75" width="150" height="150" fill="#b2d5e7"></rect><rect x="1500" y="300" width="300" height="300" fill="#a0cce2"></rect><rect x="1575" y="375" width="150" height="150" fill="#80bad8"></rect><rect x="1200" y="600" width="150" height="150" fill="#8fc3dd"></rect><rect x="1237.5" y="637.5" width="75" height="75" fill="#90c4dd"></rect><rect x="1200" y="750" width="150" height="150" fill="#3a87bd"></rect><rect x="1237.5" y="787.5" width="75" height="75" fill="#72b1d3"></rect><rect x="1200" y="900" width="150" height="150" fill="#bedbea"></rect><rect x="1237.5" y="937.5" width="75" height="75" fill="#bddbea"></rect><rect x="1200" y="1050" width="150" height="150" fill="#d8e8f1"></rect><rect x="1237.5" y="1087.5" width="75" height="75" fill="#a5cee3"></rect><rect x="1350" y="600" width="150" height="150" fill="#549ec9"></rect><rect x="1387.5" y="637.5" width="75" height="75" fill="#a5cfe3"></rect><rect x="1350" y="750" width="150" height="150" fill="#4a97c5"></rect><rect x="1387.5" y="787.5" width="75" height="75" fill="#7fb9d8"></rect><rect x="1350" y="900" width="150" height="150" fill="#92c5de"></rect><rect x="1387.5" y="937.5" width="75" height="75" fill="#eaf1f5"></rect><rect x="1350" y="1050" width="150" height="150" fill="#badaea"></rect><rect x="1387.5" y="1087.5" width="75" height="75" fill="#dceaf2"></rect><rect x="1500" y="600" width="150" height="150" fill="#aad1e5"></rect><rect x="1537.5" y="637.5" width="75" height="75" fill="#3e8dc0"></rect><rect x="1500" y="750" width="150" height="150" fill="#dae9f2"></rect><rect x="1537.5" y="787.5" width="75" height="75" fill="#74b2d4"></rect><rect x="1500" y="900" width="150" height="150" fill="#73b2d4"></rect><rect x="1537.5" y="937.5" width="75" height="75" fill="#66a9cf"></rect><rect x="1500" y="1050" width="150" height="150" fill="#c4deec"></rect><rect x="1537.5" y="1087.5" width="75" height="75" fill="#327cb7"></rect><rect x="1650" y="600" width="150" height="150" fill="#78b4d5"></rect><rect x="1687.5" y="637.5" width="75" height="75" fill="#a2cde3"></rect><rect x="1650" y="750" width="150" height="150" fill="#e0ecf3"></rect><rect x="1687.5" y="787.5" width="75" height="75" fill="#b8d8e9"></rect><rect x="1650" y="900" width="150" height="150" fill="#b2d5e7"></rect><rect x="1687.5" y="937.5" width="75" height="75" fill="#2b73b2"></rect><rect x="1650" y="1050" width="150" height="150" fill="#4190c1"></rect><rect x="1687.5" y="1087.5" width="75" height="75" fill="#68aad0"></rect><rect x="1290" y="1290" width="420" height="420" fill="#317cb7"></rect><rect x="1350" y="1350" width="300" height="300" fill="#91c4de"></rect><rect x="1320" y="1320" width="360" height="360" fill="#76b3d4"></rect><rect x="1230" y="1230" width="540" height="540" fill="#7eb8d7"></rect><rect x="1200" y="1200" width="600" height="600" fill="#72b1d3"></rect><rect x="1260" y="1260" width="480" height="480" fill="#4695c4"></rect><rect x="1200" y="1800" width="150" height="150" fill="#bad9e9"></rect><rect x="1237.5" y="1837.5" width="75" height="75" fill="#3884bb"></rect><rect x="1200" y="1950" width="150" height="150" fill="#337db8"></rect><rect x="1237.5" y="1987.5" width="75" height="75" fill="#91c5de"></rect><rect x="1200" y="2100" width="150" height="150" fill="#4393c3"></rect><rect x="1237.5" y="2137.5" width="75" height="75" fill="#63a7ce"></rect><rect x="1200" y="2250" width="150" height="150" fill="#9ac9e0"></rect><rect x="1237.5" y="2287.5" width="75" height="75" fill="#3884bb"></rect><rect x="1350" y="1800" width="150" height="150" fill="#8bc0dc"></rect><rect x="1387.5" y="1837.5" width="75" height="75" fill="#96c7df"></rect><rect x="1350" y="1950" width="150" height="150" fill="#3784bb"></rect><rect x="1387.5" y="1987.5" width="75" height="75" fill="#7bb7d6"></rect><rect x="1350" y="2100" width="150" height="150" fill="#dae9f2"></rect><rect x="1387.5" y="2137.5" width="75" height="75" fill="#3a87bd"></rect><rect x="1350" y="2250" width="150" height="150" fill="#7db7d7"></rect><rect x="1387.5" y="2287.5" width="75" height="75" fill="#a3cee3"></rect><rect x="1500" y="1800" width="150" height="150" fill="#a4cee3"></rect><rect x="1537.5" y="1837.5" width="75" height="75" fill="#317cb7"></rect><rect x="1500" y="1950" width="150" height="150" fill="#aad1e5"></rect><rect x="1537.5" y="1987.5" width="75" height="75" fill="#317bb7"></rect><rect x="1500" y="2100" width="150" height="150" fill="#3079b6"></rect><rect x="1537.5" y="2137.5" width="75" height="75" fill="#d4e6f1"></rect><rect x="1500" y="2250" width="150" height="150" fill="#4291c2"></rect><rect x="1537.5" y="2287.5" width="75" height="75" fill="#71b0d3"></rect><rect x="1650" y="1800" width="150" height="150" fill="#85bdda"></rect><rect x="1687.5" y="1837.5" width="75" height="75" fill="#4896c5"></rect><rect x="1650" y="1950" width="150" height="150" fill="#3985bc"></rect><rect x="1687.5" y="1987.5" width="75" height="75" fill="#c9e1ee"></rect><rect x="1650" y="2100" width="150" height="150" fill="#4c98c6"></rect><rect x="1687.5" y="2137.5" width="75" height="75" fill="#3e8dc0"></rect><rect x="1650" y="2250" width="150" height="150" fill="#9ecbe1"></rect><rect x="1687.5" y="2287.5" width="75" height="75" fill="#3580b9"></rect><rect x="1800" y="0" width="300" height="300" fill="#2870b1"></rect><rect x="1875" y="75" width="150" height="150" fill="#2369ad"></rect><rect x="1800" y="300" width="300" height="300" fill="#9ac9e0"></rect><rect x="1875" y="375" width="150" height="150" fill="#509bc7"></rect><rect x="2100" y="0" width="300" height="300" fill="#1f62a7"></rect><rect x="2175" y="75" width="150" height="150" fill="#fbe7db"></rect><rect x="2100" y="300" width="300" height="300" fill="#76b3d4"></rect><rect x="2175" y="375" width="150" height="150" fill="#2e77b5"></rect><rect x="1800" y="600" width="150" height="150" fill="#73b1d3"></rect><rect x="1837.5" y="637.5" width="75" height="75" fill="#77b4d5"></rect><rect x="1800" y="750" width="150" height="150" fill="#b3d6e7"></rect><rect x="1837.5" y="787.5" width="75" height="75" fill="#a9d0e4"></rect><rect x="1800" y="900" width="150" height="150" fill="#add2e6"></rect><rect x="1837.5" y="937.5" width="75" height="75" fill="#f1f4f6"></rect><rect x="1800" y="1050" width="150" height="150" fill="#7cb7d7"></rect><rect x="1837.5" y="1087.5" width="75" height="75" fill="#a0cce2"></rect><rect x="1950" y="600" width="150" height="150" fill="#81bad8"></rect><rect x="1987.5" y="637.5" width="75" height="75" fill="#67aacf"></rect><rect x="1950" y="750" width="150" height="150" fill="#4695c4"></rect><rect x="1987.5" y="787.5" width="75" height="75" fill="#d8e8f1"></rect><rect x="1950" y="900" width="150" height="150" fill="#8ec2dd"></rect><rect x="1987.5" y="937.5" width="75" height="75" fill="#eaf1f5"></rect><rect x="1950" y="1050" width="150" height="150" fill="#aad1e5"></rect><rect x="1987.5" y="1087.5" width="75" height="75" fill="#a6cfe4"></rect><rect x="2100" y="600" width="150" height="150" fill="#3f8ec0"></rect><rect x="2137.5" y="637.5" width="75" height="75" fill="#3d8bbf"></rect><rect x="2100" y="750" width="150" height="150" fill="#aad1e5"></rect><rect x="2137.5" y="787.5" width="75" height="75" fill="#62a7ce"></rect><rect x="2100" y="900" width="150" height="150" fill="#acd2e5"></rect><rect x="2137.5" y="937.5" width="75" height="75" fill="#92c5de"></rect><rect x="2100" y="1050" width="150" height="150" fill="#77b4d5"></rect><rect x="2137.5" y="1087.5" width="75" height="75" fill="#cae1ee"></rect><rect x="2250" y="600" width="150" height="150" fill="#c5dfed"></rect><rect x="2287.5" y="637.5" width="75" height="75" fill="#539dc8"></rect><rect x="2250" y="750" width="150" height="150" fill="#ebf1f5"></rect><rect x="2287.5" y="787.5" width="75" height="75" fill="#4f9ac7"></rect><rect x="2250" y="900" width="150" height="150" fill="#6aacd0"></rect><rect x="2287.5" y="937.5" width="75" height="75" fill="#d8e8f1"></rect><rect x="2250" y="1050" width="150" height="150" fill="#68aad0"></rect><rect x="2287.5" y="1087.5" width="75" height="75" fill="#d3e6f0"></rect><rect x="1830" y="1230" width="540" height="540" fill="#d7e8f1"></rect><rect x="1890" y="1290" width="420" height="420" fill="#e7eff4"></rect><rect x="1950" y="1350" width="300" height="300" fill="#1e60a4"></rect><rect x="1800" y="1200" width="600" height="600" fill="#91c5de"></rect><rect x="1920" y="1320" width="360" height="360" fill="#69abd0"></rect><rect x="1860" y="1260" width="480" height="480" fill="#134a85"></rect><rect x="1830" y="1830" width="540" height="540" fill="#e1ecf3"></rect><rect x="1950" y="1950" width="300" height="300" fill="#7bb7d6"></rect><rect x="1800" y="1800" width="600" height="600" fill="#195797"></rect><rect x="1920" y="1920" width="360" height="360" fill="#9fcbe2"></rect><rect x="1860" y="1860" width="480" height="480" fill="#65a9cf"></rect><rect x="1890" y="1890" width="420" height="420" fill="#124a85"></rect></g></svg>