<svg version="1.1" xmlns="http://www.w3.org/2000/svg" xmlns:xlink="http://www.w3.org/1999/xlink" width="2400" height="2400" viewBox="0,0,2400,2400"><g fill="none" fill-rule="nonzero" stroke="none" stroke-width="1" stroke-linecap="butt" stroke-linejoin="miter" stroke-miterlimit="10" stroke-dasharray="" stroke-dashoffset="0" font-family="none" font-weight="none" font-size="none" text-anchor="none" style="mix-blend-mode: normal"><rect x="0" y="0" width="2400" height="2400" fill="#000000" stroke="#000000"></rect><rect x="0" y="0" width="300" height="300" fill="#f9fb9a" stroke="none"></rect><rect x="75" y="75" width="150" height="150" fill="#fed48c" stroke="none"></rect><rect x="0" y="300" width="300" height="300" fill="#d9b6b3" stroke="none"></rect><rect x="75" y="375" width="150" height="150" fill="#dab6b2" stroke="none"></rect><rect x="300" y="0" width="300" height="300" fill="#fdc688" stroke="none"></rect><rect x="375" y="75" width="150" height="150" fill="#a45e2f" stroke="none"></rect><rect x="300" y="300" width="300" height="300" fill="#aab7b8" stroke="none"></rect><rect x="375" y="375" width="150" height="150" fill="#aab7b8" stroke="none"></rect><rect x="-75" y="525" width="750" height="750" fill="#9d3295" stroke="none"></rect><rect x="0" y="600" width="600" height="600" fill="#ceb3c0" stroke="none"></rect><rect x="0" y="1200" width="300" height="300" fill="#aab6ba" stroke="none"></rect><rect x="75" y="1275" width="150" height="150" fill="#f2bd94" stroke="none"></rect><rect x="0" y="1500" width="300" height="300" fill="#7fc97f" stroke="none"></rect><rect x="75" y="1575" width="150" height="150" fill="#abb6bb" stroke="none"></rect><rect x="300" y="1200" width="300" height="300" fill="#dfb7ab" stroke="none"></rect><rect x="375" y="1275" width="150" height="150" fill="#a45e2f" stroke="none"></rect><rect x="300" y="1500" width="300" height="300" fill="#e9ba9f" stroke="none"></rect><rect x="375" y="1575" width="150" height="150" fill="#dfb7ab" stroke="none"></rect><rect x="-75" y="1725" width="750" height="750" fill="#e1b8a9" stroke="none"></rect><rect x="0" y="1800" width="600" height="600" fill="#756459" stroke="none"></rect><rect x="600" y="0" width="300" height="300" fill="#8e6143" stroke="none"></rect><rect x="675" y="75" width="150" height="150" fill="#505eaa" stroke="none"></rect><rect x="600" y="300" width="300" height="300" fill="#d3df9e" stroke="none"></rect><rect x="675" y="375" width="150" height="150" fill="#d3b4ba" stroke="none"></rect><rect x="900" y="0" width="300" height="300" fill="#fff797" stroke="none"></rect><rect x="975" y="75" width="150" height="150" fill="#feee94" stroke="none"></rect><rect x="900" y="300" width="300" height="300" fill="#4e7cae" stroke="none"></rect><rect x="975" y="375" width="150" height="150" fill="#ed0779" stroke="none"></rect><rect x="600" y="600" width="300" height="300" fill="#6e4da2" stroke="none"></rect><rect x="675" y="675" width="150" height="150" fill="#c55023" stroke="none"></rect><rect x="600" y="900" width="300" height="300" fill="#c55023" stroke="none"></rect><rect x="675" y="975" width="150" height="150" fill="#6e4da2" stroke="none"></rect><rect x="900" y="600" width="300" height="300" fill="#953697" stroke="none"></rect><rect x="975" y="675" width="150" height="150" fill="#88c58b" stroke="none"></rect><rect x="900" y="900" width="300" height="300" fill="#fdcf8b" stroke="none"></rect><rect x="975" y="975" width="150" height="150" fill="#70655d" stroke="none"></rect><rect x="600" y="1200" width="300" height="300" fill="#7599a9" stroke="none"></rect><rect x="675" y="1275" width="150" height="150" fill="#a15f31" stroke="none"></rect><rect x="600" y="1500" width="300" height="300" fill="#b8b0cc" stroke="none"></rect><rect x="675" y="1575" width="150" height="150" fill="#87c689" stroke="none"></rect><rect x="900" y="1200" width="300" height="300" fill="#ca472e" stroke="none"></rect><rect x="975" y="1275" width="150" height="150" fill="#bd5b19" stroke="none"></rect><rect x="900" y="1500" width="300" height="300" fill="#a15f31" stroke="none"></rect><rect x="975" y="1575" width="150" height="150" fill="#ce3f38" stroke="none"></rect><rect x="600" y="1800" width="300" height="300" fill="#d63148" stroke="none"></rect><rect x="675" y="1875" width="150" height="150" fill="#88c58b" stroke="none"></rect><rect x="600" y="2100" width="300" height="300" fill="#c05919" stroke="none"></rect><rect x="675" y="2175" width="150" height="150" fill="#ad5d27" stroke="none"></rect><rect x="900" y="1800" width="300" height="300" fill="#d92d4d" stroke="none"></rect><rect x="975" y="1875" width="150" height="150" fill="#99bea3" stroke="none"></rect><rect x="900" y="2100" width="300" height="300" fill="#97bfa0" stroke="none"></rect><rect x="975" y="2175" width="150" height="150" fill="#d92d4d" stroke="none"></rect><rect x="1200" y="0" width="300" height="300" fill="#9ebca9" stroke="none"></rect><rect x="1275" y="75" width="150" height="150" fill="#9ebca9" stroke="none"></rect><rect x="1200" y="300" width="300" height="300" fill="#fdc287" stroke="none"></rect><rect x="1275" y="375" width="150" height="150" fill="#d3df9e" stroke="none"></rect><rect x="1500" y="0" width="300" height="300" fill="#507ead" stroke="none"></rect><rect x="1575" y="75" width="150" height="150" fill="#e9ba9f" stroke="none"></rect><rect x="1500" y="300" width="300" height="300" fill="#feea93" stroke="none"></rect><rect x="1575" y="375" width="150" height="150" fill="#a45e2f" stroke="none"></rect><rect x="1125" y="525" width="750" height="750" fill="#b7b1ca" stroke="none"></rect><rect x="1200" y="600" width="600" height="600" fill="#feea93" stroke="none"></rect><rect x="1125" y="1125" width="750" height="750" fill="#e4b9a4" stroke="none"></rect><rect x="1200" y="1200" width="600" height="600" fill="#e4b9a4" stroke="none"></rect><rect x="1200" y="1800" width="300" height="300" fill="#776457" stroke="none"></rect><rect x="1275" y="1875" width="150" height="150" fill="#9e5f34" stroke="none"></rect><rect x="1200" y="2100" width="300" height="300" fill="#fff797" stroke="none"></rect><rect x="1275" y="2175" width="150" height="150" fill="#fffb98" stroke="none"></rect><rect x="1500" y="1800" width="300" height="300" fill="#5380ad" stroke="none"></rect><rect x="1575" y="1875" width="150" height="150" fill="#8fc294" stroke="none"></rect><rect x="1500" y="2100" width="300" height="300" fill="#d63148" stroke="none"></rect><rect x="1575" y="2175" width="150" height="150" fill="#cf3e39" stroke="none"></rect><rect x="1800" y="0" width="300" height="300" fill="#86c689" stroke="none"></rect><rect x="1875" y="75" width="150" height="150" fill="#dd2556" stroke="none"></rect><rect x="1800" y="300" width="300" height="300" fill="#bd208d" stroke="none"></rect><rect x="1875" y="375" width="150" height="150" fill="#903998" stroke="none"></rect><rect x="2100" y="0" width="300" height="300" fill="#6f95aa" stroke="none"></rect><rect x="2175" y="75" width="150" height="150" fill="#fdfe99" stroke="none"></rect><rect x="2100" y="300" width="300" height="300" fill="#fdfe99" stroke="none"></rect><rect x="2175" y="375" width="150" height="150" fill="#e6146b" stroke="none"></rect><rect x="1800" y="600" width="300" height="300" fill="#a8b7b7" stroke="none"></rect><rect x="1875" y="675" width="150" height="150" fill="#6a4fa3" stroke="none"></rect><rect x="1800" y="900" width="300" height="300" fill="#dcb6af" stroke="none"></rect><rect x="1875" y="975" width="150" height="150" fill="#fdcb89" stroke="none"></rect><rect x="2100" y="600" width="300" height="300" fill="#b4b2c6" stroke="none"></rect><rect x="2175" y="675" width="150" height="150" fill="#e1e99c" stroke="none"></rect><rect x="2100" y="900" width="300" height="300" fill="#fedc8f" stroke="none"></rect><rect x="2175" y="975" width="150" height="150" fill="#fdc588" stroke="none"></rect><rect x="1725" y="1125" width="750" height="750" fill="#876248" stroke="none"></rect><rect x="1800" y="1200" width="600" height="600" fill="#e4b9a4" stroke="none"></rect><rect x="1725" y="1725" width="750" height="750" fill="#82c883" stroke="none"></rect><rect x="1800" y="1800" width="600" height="600" fill="#b0c5a2" stroke="none"></rect></g></svg>