<svg version="1.1" xmlns="http://www.w3.org/2000/svg" xmlns:xlink="http://www.w3.org/1999/xlink" width="4800" height="2400" viewBox="0,0,4800,2400"><g fill="none" fill-rule="nonzero" stroke="none" stroke-width="1" stroke-linecap="butt" stroke-linejoin="miter" stroke-miterlimit="10" stroke-dasharray="" stroke-dashoffset="0" font-family="none" font-weight="none" font-size="none" text-anchor="none" style="mix-blend-mode: normal"><rect x="0" y="0" width="600" height="600" fill="#053061"></rect><rect x="30" y="30" width="540" height="540" fill="#053061"></rect><rect x="90" y="90" width="420" height="420" fill="#053061"></rect><rect x="120" y="120" width="360" height="360" fill="#bedbeb"></rect><rect x="60" y="60" width="480" height="480" fill="#053061"></rect><rect x="150" y="150" width="300" height="300" fill="#c8e0ed"></rect><rect x="0" y="600" width="300" height="300" fill="#cc4b43"></rect><rect x="75" y="675" width="150" height="150" fill="#053061"></rect><rect x="0" y="900" width="300" height="300" fill="#fce0d0"></rect><rect x="75" y="975" width="150" height="150" fill="#f6f7f7"></rect><rect x="300" y="600" width="300" height="300" fill="#fcd7c1"></rect><rect x="375" y="675" width="150" height="150" fill="#98c8e0"></rect><rect x="300" y="900" width="300" height="300" fill="#f9ede5"></rect><rect x="375" y="975" width="150" height="150" fill="#7b0622"></rect><rect x="0" y="1200" width="600" height="600" fill="#053061"></rect><rect x="30" y="1230" width="540" height="540" fill="#053061"></rect><rect x="90" y="1290" width="420" height="420" fill="#fcdfcd"></rect><rect x="120" y="1320" width="360" height="360" fill="#053061"></rect><rect x="60" y="1260" width="480" height="480" fill="#053061"></rect><rect x="150" y="1350" width="300" height="300" fill="#e48166"></rect><rect x="0" y="1800" width="300" height="300" fill="#053061"></rect><rect x="75" y="1875" width="150" height="150" fill="#69011f"></rect><rect x="0" y="2100" width="300" height="300" fill="#053061"></rect><rect x="75" y="2175" width="150" height="150" fill="#053061"></rect><rect x="300" y="1800" width="300" height="300" fill="#f6ae8e"></rect><rect x="375" y="1875" width="150" height="150" fill="#053061"></rect><rect x="300" y="2100" width="300" height="300" fill="#d65f4d"></rect><rect x="375" y="2175" width="150" height="150" fill="#b3192c"></rect><rect x="600" y="0" width="600" height="600" fill="#750421"></rect><rect x="690" y="90" width="420" height="420" fill="#7a0622"></rect><rect x="750" y="150" width="300" height="300" fill="#7b0622"></rect><rect x="630" y="30" width="540" height="540" fill="#9a1027"></rect><rect x="720" y="120" width="360" height="360" fill="#6f0220"></rect><rect x="660" y="60" width="480" height="480" fill="#780622"></rect><rect x="600" y="600" width="600" height="600" fill="#780622"></rect><rect x="690" y="690" width="420" height="420" fill="#720321"></rect><rect x="750" y="750" width="300" height="300" fill="#6f0320"></rect><rect x="630" y="630" width="540" height="540" fill="#991027"></rect><rect x="720" y="720" width="360" height="360" fill="#780522"></rect><rect x="660" y="660" width="480" height="480" fill="#720421"></rect><rect x="600" y="1200" width="150" height="150" fill="#d15548"></rect><rect x="637.5" y="1237.5" width="75" height="75" fill="#a01228"></rect><rect x="600" y="1350" width="150" height="150" fill="#6a011f"></rect><rect x="637.5" y="1387.5" width="75" height="75" fill="#910d26"></rect><rect x="600" y="1500" width="150" height="150" fill="#7f0823"></rect><rect x="637.5" y="1537.5" width="75" height="75" fill="#920e26"></rect><rect x="600" y="1650" width="150" height="150" fill="#b2182b"></rect><rect x="637.5" y="1687.5" width="75" height="75" fill="#740421"></rect><rect x="750" y="1200" width="150" height="150" fill="#850a24"></rect><rect x="787.5" y="1237.5" width="75" height="75" fill="#b82430"></rect><rect x="750" y="1350" width="150" height="150" fill="#750521"></rect><rect x="787.5" y="1387.5" width="75" height="75" fill="#6e0220"></rect><rect x="750" y="1500" width="150" height="150" fill="#930e26"></rect><rect x="787.5" y="1537.5" width="75" height="75" fill="#870a24"></rect><rect x="750" y="1650" width="150" height="150" fill="#a01228"></rect><rect x="787.5" y="1687.5" width="75" height="75" fill="#6f0220"></rect><rect x="900" y="1200" width="150" height="150" fill="#810823"></rect><rect x="937.5" y="1237.5" width="75" height="75" fill="#970f27"></rect><rect x="900" y="1350" width="150" height="150" fill="#b7212f"></rect><rect x="937.5" y="1387.5" width="75" height="75" fill="#69001f"></rect><rect x="900" y="1500" width="150" height="150" fill="#900d25"></rect><rect x="937.5" y="1537.5" width="75" height="75" fill="#c3393b"></rect><rect x="900" y="1650" width="150" height="150" fill="#870a24"></rect><rect x="937.5" y="1687.5" width="75" height="75" fill="#6b0120"></rect><rect x="1050" y="1200" width="150" height="150" fill="#870a24"></rect><rect x="1087.5" y="1237.5" width="75" height="75" fill="#780622"></rect><rect x="1050" y="1350" width="150" height="150" fill="#9c1127"></rect><rect x="1087.5" y="1387.5" width="75" height="75" fill="#7b0622"></rect><rect x="1050" y="1500" width="150" height="150" fill="#67001f"></rect><rect x="1087.5" y="1537.5" width="75" height="75" fill="#8e0c25"></rect><rect x="1050" y="1650" width="150" height="150" fill="#6f0220"></rect><rect x="1087.5" y="1687.5" width="75" height="75" fill="#7c0722"></rect><rect x="600" y="1800" width="600" height="600" fill="#a31329"></rect><rect x="690" y="1890" width="420" height="420" fill="#7c0722"></rect><rect x="750" y="1950" width="300" height="300" fill="#8d0c25"></rect><rect x="630" y="1830" width="540" height="540" fill="#780622"></rect><rect x="720" y="1920" width="360" height="360" fill="#770522"></rect><rect x="660" y="1860" width="480" height="480" fill="#900d26"></rect><rect x="1230" y="30" width="540" height="540" fill="#053061"></rect><rect x="1290" y="90" width="420" height="420" fill="#9fcbe2"></rect><rect x="1200" y="0" width="600" height="600" fill="#053061"></rect><rect x="1320" y="120" width="360" height="360" fill="#f7b596"></rect><rect x="1260" y="60" width="480" height="480" fill="#053061"></rect><rect x="1350" y="150" width="300" height="300" fill="#053061"></rect><rect x="1230" y="630" width="540" height="540" fill="#053061"></rect><rect x="1290" y="690" width="420" height="420" fill="#7db8d7"></rect><rect x="1200" y="600" width="600" height="600" fill="#053061"></rect><rect x="1320" y="720" width="360" height="360" fill="#6cadd1"></rect><rect x="1260" y="660" width="480" height="480" fill="#053061"></rect><rect x="1350" y="750" width="300" height="300" fill="#053061"></rect><rect x="1200" y="1200" width="300" height="300" fill="#9c1127"></rect><rect x="1275" y="1275" width="150" height="150" fill="#c43c3c"></rect><rect x="1200" y="1500" width="300" height="300" fill="#7e0723"></rect><rect x="1275" y="1575" width="150" height="150" fill="#8a0b25"></rect><rect x="1500" y="1200" width="300" height="300" fill="#e27b62"></rect><rect x="1575" y="1275" width="150" height="150" fill="#8a0b25"></rect><rect x="1500" y="1500" width="300" height="300" fill="#b82430"></rect><rect x="1575" y="1575" width="150" height="150" fill="#ab162a"></rect><rect x="1230" y="1830" width="540" height="540" fill="#053061"></rect><rect x="1290" y="1890" width="420" height="420" fill="#f9ece4"></rect><rect x="1200" y="1800" width="600" height="600" fill="#053061"></rect><rect x="1320" y="1920" width="360" height="360" fill="#f9ede5"></rect><rect x="1260" y="1860" width="480" height="480" fill="#053061"></rect><rect x="1350" y="1950" width="300" height="300" fill="#053061"></rect><rect x="1800" y="0" width="300" height="300" fill="#710321"></rect><rect x="1875" y="75" width="150" height="150" fill="#810823"></rect><rect x="1800" y="300" width="300" height="300" fill="#7a0622"></rect><rect x="1875" y="375" width="150" height="150" fill="#830923"></rect><rect x="2100" y="0" width="300" height="300" fill="#9c1127"></rect><rect x="2175" y="75" width="150" height="150" fill="#6b0120"></rect><rect x="2100" y="300" width="300" height="300" fill="#870a24"></rect><rect x="2175" y="375" width="150" height="150" fill="#7e0723"></rect><rect x="1800" y="600" width="600" height="600" fill="#b1d5e7"></rect><rect x="1860" y="660" width="480" height="480" fill="#e88a6d"></rect><rect x="1890" y="690" width="420" height="420" fill="#d7614e"></rect><rect x="1950" y="750" width="300" height="300" fill="#d55e4c"></rect><rect x="1830" y="630" width="540" height="540" fill="#f3f5f6"></rect><rect x="1920" y="720" width="360" height="360" fill="#d8e8f1"></rect><rect x="1800" y="1200" width="300" height="300" fill="#8f0d25"></rect><rect x="1875" y="1275" width="150" height="150" fill="#6c0120"></rect><rect x="1800" y="1500" width="300" height="300" fill="#8c0c25"></rect><rect x="1875" y="1575" width="150" height="150" fill="#c53d3d"></rect><rect x="2100" y="1200" width="300" height="300" fill="#981027"></rect><rect x="2175" y="1275" width="150" height="150" fill="#740421"></rect><rect x="2100" y="1500" width="300" height="300" fill="#e47f65"></rect><rect x="2175" y="1575" width="150" height="150" fill="#bf3237"></rect><rect x="1800" y="1800" width="150" height="150" fill="#bb2a34"></rect><rect x="1837.5" y="1837.5" width="75" height="75" fill="#950f26"></rect><rect x="1800" y="1950" width="150" height="150" fill="#8d0c25"></rect><rect x="1837.5" y="1987.5" width="75" height="75" fill="#960f27"></rect><rect x="1800" y="2100" width="150" height="150" fill="#920e26"></rect><rect x="1837.5" y="2137.5" width="75" height="75" fill="#790622"></rect><rect x="1800" y="2250" width="150" height="150" fill="#710321"></rect><rect x="1837.5" y="2287.5" width="75" height="75" fill="#820923"></rect><rect x="1950" y="1800" width="150" height="150" fill="#970f27"></rect><rect x="1987.5" y="1837.5" width="75" height="75" fill="#7d0722"></rect><rect x="1950" y="1950" width="150" height="150" fill="#6a011f"></rect><rect x="1987.5" y="1987.5" width="75" height="75" fill="#6e0220"></rect><rect x="1950" y="2100" width="150" height="150" fill="#8b0c25"></rect><rect x="1987.5" y="2137.5" width="75" height="75" fill="#991027"></rect><rect x="1950" y="2250" width="150" height="150" fill="#ab162a"></rect><rect x="1987.5" y="2287.5" width="75" height="75" fill="#760521"></rect><rect x="2100" y="1800" width="150" height="150" fill="#840924"></rect><rect x="2137.5" y="1837.5" width="75" height="75" fill="#930e26"></rect><rect x="2100" y="1950" width="150" height="150" fill="#9a1027"></rect><rect x="2137.5" y="1987.5" width="75" height="75" fill="#8a0b25"></rect><rect x="2100" y="2100" width="150" height="150" fill="#9d1128"></rect><rect x="2137.5" y="2137.5" width="75" height="75" fill="#8f0d25"></rect><rect x="2100" y="2250" width="150" height="150" fill="#700320"></rect><rect x="2137.5" y="2287.5" width="75" height="75" fill="#8a0b25"></rect><rect x="2250" y="1800" width="150" height="150" fill="#760521"></rect><rect x="2287.5" y="1837.5" width="75" height="75" fill="#8b0c25"></rect><rect x="2250" y="1950" width="150" height="150" fill="#8a0b25"></rect><rect x="2287.5" y="1987.5" width="75" height="75" fill="#69011f"></rect><rect x="2250" y="2100" width="150" height="150" fill="#740421"></rect><rect x="2287.5" y="2137.5" width="75" height="75" fill="#6b0120"></rect><rect x="2250" y="2250" width="150" height="150" fill="#7d0722"></rect><rect x="2287.5" y="2287.5" width="75" height="75" fill="#7b0622"></rect><rect x="2400" y="0" width="600" height="600" fill="#7ab6d6"></rect><rect x="2490" y="90" width="420" height="420" fill="#a5cfe3"></rect><rect x="2550" y="150" width="300" height="300" fill="#5da4cc"></rect><rect x="2430" y="30" width="540" height="540" fill="#fcdfcd"></rect><rect x="2520" y="120" width="360" height="360" fill="#f0f4f6"></rect><rect x="2460" y="60" width="480" height="480" fill="#f19d7c"></rect><rect x="2400" y="600" width="150" height="150" fill="#c7423f"></rect><rect x="2437.5" y="637.5" width="75" height="75" fill="#820923"></rect><rect x="2400" y="750" width="150" height="150" fill="#7a0622"></rect><rect x="2437.5" y="787.5" width="75" height="75" fill="#cb4a42"></rect><rect x="2400" y="900" width="150" height="150" fill="#bf3338"></rect><rect x="2437.5" y="937.5" width="75" height="75" fill="#a9152a"></rect><rect x="2400" y="1050" width="150" height="150" fill="#b51e2e"></rect><rect x="2437.5" y="1087.5" width="75" height="75" fill="#d6614e"></rect><rect x="2550" y="600" width="150" height="150" fill="#810823"></rect><rect x="2587.5" y="637.5" width="75" height="75" fill="#780522"></rect><rect x="2550" y="750" width="150" height="150" fill="#810823"></rect><rect x="2587.5" y="787.5" width="75" height="75" fill="#7a0622"></rect><rect x="2550" y="900" width="150" height="150" fill="#930e26"></rect><rect x="2587.5" y="937.5" width="75" height="75" fill="#750421"></rect><rect x="2550" y="1050" width="150" height="150" fill="#790622"></rect><rect x="2587.5" y="1087.5" width="75" height="75" fill="#810823"></rect><rect x="2700" y="600" width="150" height="150" fill="#960f27"></rect><rect x="2737.5" y="637.5" width="75" height="75" fill="#770522"></rect><rect x="2700" y="750" width="150" height="150" fill="#770522"></rect><rect x="2737.5" y="787.5" width="75" height="75" fill="#940e26"></rect><rect x="2700" y="900" width="150" height="150" fill="#7f0823"></rect><rect x="2737.5" y="937.5" width="75" height="75" fill="#ca4841"></rect><rect x="2700" y="1050" width="150" height="150" fill="#c2383a"></rect><rect x="2737.5" y="1087.5" width="75" height="75" fill="#720321"></rect><rect x="2850" y="600" width="150" height="150" fill="#8a0b25"></rect><rect x="2887.5" y="637.5" width="75" height="75" fill="#7e0723"></rect><rect x="2850" y="750" width="150" height="150" fill="#890b24"></rect><rect x="2887.5" y="787.5" width="75" height="75" fill="#960f26"></rect><rect x="2850" y="900" width="150" height="150" fill="#ae172a"></rect><rect x="2887.5" y="937.5" width="75" height="75" fill="#8b0c25"></rect><rect x="2850" y="1050" width="150" height="150" fill="#900d25"></rect><rect x="2887.5" y="1087.5" width="75" height="75" fill="#d25849"></rect><rect x="2400" y="1200" width="600" height="600" fill="#053061"></rect><rect x="2490" y="1290" width="420" height="420" fill="#f7f6f6"></rect><rect x="2550" y="1350" width="300" height="300" fill="#67aacf"></rect><rect x="2430" y="1230" width="540" height="540" fill="#6d0220"></rect><rect x="2520" y="1320" width="360" height="360" fill="#c43d3c"></rect><rect x="2460" y="1260" width="480" height="480" fill="#b0172b"></rect><rect x="2400" y="1800" width="300" height="300" fill="#ba2732"></rect><rect x="2475" y="1875" width="150" height="150" fill="#d96752"></rect><rect x="2400" y="2100" width="300" height="300" fill="#d7624f"></rect><rect x="2475" y="2175" width="150" height="150" fill="#e0775e"></rect><rect x="2700" y="1800" width="300" height="300" fill="#e68469"></rect><rect x="2775" y="1875" width="150" height="150" fill="#e68569"></rect><rect x="2700" y="2100" width="300" height="300" fill="#f19e7d"></rect><rect x="2775" y="2175" width="150" height="150" fill="#a41329"></rect><rect x="3000" y="0" width="300" height="300" fill="#a41329"></rect><rect x="3075" y="75" width="150" height="150" fill="#cf5246"></rect><rect x="3000" y="300" width="300" height="300" fill="#053061"></rect><rect x="3075" y="375" width="150" height="150" fill="#053061"></rect><rect x="3300" y="0" width="300" height="300" fill="#fbd0b9"></rect><rect x="3375" y="75" width="150" height="150" fill="#fcdfce"></rect><rect x="3300" y="300" width="300" height="300" fill="#aed3e6"></rect><rect x="3375" y="375" width="150" height="150" fill="#f5a988"></rect><rect x="3000" y="600" width="600" height="600" fill="#053061"></rect><rect x="3150" y="750" width="300" height="300" fill="#053061"></rect><rect x="3030" y="630" width="540" height="540" fill="#950f26"></rect><rect x="3090" y="690" width="420" height="420" fill="#053061"></rect><rect x="3060" y="660" width="480" height="480" fill="#053061"></rect><rect x="3120" y="720" width="360" height="360" fill="#053061"></rect><rect x="3000" y="1200" width="150" height="150" fill="#fae7dc"></rect><rect x="3037.5" y="1237.5" width="75" height="75" fill="#fbe3d5"></rect><rect x="3000" y="1350" width="150" height="150" fill="#ca4842"></rect><rect x="3037.5" y="1387.5" width="75" height="75" fill="#ab162a"></rect><rect x="3000" y="1500" width="150" height="150" fill="#f5ae8d"></rect><rect x="3037.5" y="1537.5" width="75" height="75" fill="#b51d2d"></rect><rect x="3000" y="1650" width="150" height="150" fill="#e58368"></rect><rect x="3037.5" y="1687.5" width="75" height="75" fill="#9ecbe1"></rect><rect x="3150" y="1200" width="150" height="150" fill="#720421"></rect><rect x="3187.5" y="1237.5" width="75" height="75" fill="#e17a61"></rect><rect x="3150" y="1350" width="150" height="150" fill="#7b0622"></rect><rect x="3187.5" y="1387.5" width="75" height="75" fill="#124984"></rect><rect x="3150" y="1500" width="150" height="150" fill="#ddebf2"></rect><rect x="3187.5" y="1537.5" width="75" height="75" fill="#053061"></rect><rect x="3150" y="1650" width="150" height="150" fill="#c6403e"></rect><rect x="3187.5" y="1687.5" width="75" height="75" fill="#053061"></rect><rect x="3300" y="1200" width="150" height="150" fill="#0c3d73"></rect><rect x="3337.5" y="1237.5" width="75" height="75" fill="#bc2d35"></rect><rect x="3300" y="1350" width="150" height="150" fill="#f8bda1"></rect><rect x="3337.5" y="1387.5" width="75" height="75" fill="#c13639"></rect><rect x="3300" y="1500" width="150" height="150" fill="#730421"></rect><rect x="3337.5" y="1537.5" width="75" height="75" fill="#69001f"></rect><rect x="3300" y="1650" width="150" height="150" fill="#d35a4a"></rect><rect x="3337.5" y="1687.5" width="75" height="75" fill="#78b5d5"></rect><rect x="3450" y="1200" width="150" height="150" fill="#ab162a"></rect><rect x="3487.5" y="1237.5" width="75" height="75" fill="#9ccae1"></rect><rect x="3450" y="1350" width="150" height="150" fill="#f3a27f"></rect><rect x="3487.5" y="1387.5" width="75" height="75" fill="#da6a54"></rect><rect x="3450" y="1500" width="150" height="150" fill="#cbe2ee"></rect><rect x="3487.5" y="1537.5" width="75" height="75" fill="#f5a886"></rect><rect x="3450" y="1650" width="150" height="150" fill="#eff3f6"></rect><rect x="3487.5" y="1687.5" width="75" height="75" fill="#053061"></rect><rect x="3000" y="1800" width="600" height="600" fill="#053061"></rect><rect x="3150" y="1950" width="300" height="300" fill="#053061"></rect><rect x="3030" y="1830" width="540" height="540" fill="#053061"></rect><rect x="3090" y="1890" width="420" height="420" fill="#053061"></rect><rect x="3060" y="1860" width="480" height="480" fill="#053061"></rect><rect x="3120" y="1920" width="360" height="360" fill="#053061"></rect><rect x="3600" y="0" width="300" height="300" fill="#f7b597"></rect><rect x="3675" y="75" width="150" height="150" fill="#780522"></rect><rect x="3600" y="300" width="300" height="300" fill="#e8896d"></rect><rect x="3675" y="375" width="150" height="150" fill="#f09b7a"></rect><rect x="3900" y="0" width="300" height="300" fill="#6a011f"></rect><rect x="3975" y="75" width="150" height="150" fill="#a11228"></rect><rect x="3900" y="300" width="300" height="300" fill="#d25749"></rect><rect x="3975" y="375" width="150" height="150" fill="#830923"></rect><rect x="3600" y="600" width="300" height="300" fill="#ba2933"></rect><rect x="3675" y="675" width="150" height="150" fill="#be2f36"></rect><rect x="3600" y="900" width="300" height="300" fill="#7d0722"></rect><rect x="3675" y="975" width="150" height="150" fill="#800823"></rect><rect x="3900" y="600" width="300" height="300" fill="#7e0723"></rect><rect x="3975" y="675" width="150" height="150" fill="#930e26"></rect><rect x="3900" y="900" width="300" height="300" fill="#960f27"></rect><rect x="3975" y="975" width="150" height="150" fill="#e17a61"></rect><rect x="3600" y="1200" width="600" height="600" fill="#d86450"></rect><rect x="3630" y="1230" width="540" height="540" fill="#f8f1ed"></rect><rect x="3750" y="1350" width="300" height="300" fill="#6c0220"></rect><rect x="3720" y="1320" width="360" height="360" fill="#f3a280"></rect><rect x="3660" y="1260" width="480" height="480" fill="#69011f"></rect><rect x="3690" y="1290" width="420" height="420" fill="#fddcc9"></rect><rect x="3600" y="1800" width="600" height="600" fill="#85bdda"></rect><rect x="3630" y="1830" width="540" height="540" fill="#f7b99c"></rect><rect x="3750" y="1950" width="300" height="300" fill="#dbeaf2"></rect><rect x="3720" y="1920" width="360" height="360" fill="#fbcfb8"></rect><rect x="3660" y="1860" width="480" height="480" fill="#6d0220"></rect><rect x="3690" y="1890" width="420" height="420" fill="#fac9b0"></rect><rect x="4200" y="0" width="600" height="600" fill="#e7886c"></rect><rect x="4350" y="150" width="300" height="300" fill="#d96853"></rect><rect x="4290" y="90" width="420" height="420" fill="#327db8"></rect><rect x="4260" y="60" width="480" height="480" fill="#62a7ce"></rect><rect x="4320" y="120" width="360" height="360" fill="#fdddca"></rect><rect x="4230" y="30" width="540" height="540" fill="#6f0320"></rect><rect x="4200" y="600" width="300" height="300" fill="#053061"></rect><rect x="4275" y="675" width="150" height="150" fill="#f8f3ef"></rect><rect x="4200" y="900" width="300" height="300" fill="#eb9173"></rect><rect x="4275" y="975" width="150" height="150" fill="#f8f1ec"></rect><rect x="4500" y="600" width="300" height="300" fill="#84bcd9"></rect><rect x="4575" y="675" width="150" height="150" fill="#053061"></rect><rect x="4500" y="900" width="300" height="300" fill="#e4eef4"></rect><rect x="4575" y="975" width="150" height="150" fill="#f8f1ec"></rect><rect x="4200" y="1200" width="300" height="300" fill="#053061"></rect><rect x="4275" y="1275" width="150" height="150" fill="#053061"></rect><rect x="4200" y="1500" width="300" height="300" fill="#053061"></rect><rect x="4275" y="1575" width="150" height="150" fill="#dc6d57"></rect><rect x="4500" y="1200" width="300" height="300" fill="#ddebf2"></rect><rect x="4575" y="1275" width="150" height="150" fill="#d15548"></rect><rect x="4500" y="1500" width="300" height="300" fill="#ee9777"></rect><rect x="4575" y="1575" width="150" height="150" fill="#68abd0"></rect><rect x="4200" y="1800" width="600" height="600" fill="#f5aa88"></rect><rect x="4350" y="1950" width="300" height="300" fill="#65a9cf"></rect><rect x="4290" y="1890" width="420" height="420" fill="#dc6d57"></rect><rect x="4260" y="1860" width="480" height="480" fill="#d0e4f0"></rect><rect x="4320" y="1920" width="360" height="360" fill="#fac8ae"></rect><rect x="4230" y="1830" width="540" height="540" fill="#b51e2e"></rect></g></svg>