<svg version="1.1" xmlns="http://www.w3.org/2000/svg" xmlns:xlink="http://www.w3.org/1999/xlink" width="2400" height="2400" viewBox="0,0,2400,2400"><g fill="none" fill-rule="nonzero" stroke="none" stroke-width="1" stroke-linecap="butt" stroke-linejoin="miter" stroke-miterlimit="10" stroke-dasharray="" stroke-dashoffset="0" font-family="none" font-weight="none" font-size="none" text-anchor="none" style="mix-blend-mode: normal"><rect x="0" y="0" width="600" height="600" fill="#053061"></rect><rect x="0" y="600" width="600" height="600" fill="#053061"></rect><rect x="0" y="1200" width="600" height="600" fill="#053061"></rect><rect x="0" y="1800" width="600" height="600" fill="#facbb3"></rect><rect x="600" y="0" width="600" height="600" fill="#f3a280"></rect><rect x="600" y="600" width="600" height="600" fill="#90c4dd"></rect><rect x="600" y="1200" width="600" height="600" fill="#f3f5f6"></rect><rect x="600" y="1800" width="600" height="600" fill="#053061"></rect><rect x="1200" y="0" width="600" height="600" fill="#053061"></rect><rect x="1200" y="600" width="600" height="600" fill="#f6b495"></rect><rect x="1200" y="1200" width="600" height="600" fill="#276eb0"></rect><rect x="1200" y="1800" width="600" height="600" fill="#053061"></rect><rect x="1800" y="0" width="300" height="300" fill="#053061"></rect><rect x="1800" y="300" width="300" height="300" fill="#f1f4f6"></rect><rect x="2100" y="0" width="300" height="300" fill="#d45c4b"></rect><rect x="2100" y="300" width="300" height="300" fill="#053061"></rect><rect x="1800" y="600" width="300" height="300" fill="#053061"></rect><rect x="1800" y="900" width="300" height="300" fill="#053061"></rect><rect x="2100" y="600" width="300" height="300" fill="#4796c4"></rect><rect x="2100" y="900" width="300" height="300" fill="#053061"></rect><rect x="1800" y="1200" width="300" height="300" fill="#cc4b43"></rect><rect x="1800" y="1500" width="300" height="300" fill="#ddebf2"></rect><rect x="2100" y="1200" width="300" height="300" fill="#acd2e5"></rect><rect x="2100" y="1500" width="300" height="300" fill="#3e8cc0"></rect><rect x="1800" y="1800" width="300" height="300" fill="#175391"></rect><rect x="1800" y="2100" width="300" height="300" fill="#d9e9f1"></rect><rect x="2100" y="1800" width="300" height="300" fill="#053061"></rect><rect x="2100" y="2100" width="300" height="300" fill="#b6202f"></rect></g></svg>