<svg version="1.1" xmlns="http://www.w3.org/2000/svg" xmlns:xlink="http://www.w3.org/1999/xlink" width="2400" height="2400" viewBox="0,0,2400,2400"><g fill="none" fill-rule="nonzero" stroke="none" stroke-width="1" stroke-linecap="butt" stroke-linejoin="miter" stroke-miterlimit="10" stroke-dasharray="" stroke-dashoffset="0" font-family="none" font-weight="none" font-size="none" text-anchor="none" style="mix-blend-mode: normal"><rect x="30" y="30" width="540" height="540" fill="#cccccc"></rect><rect x="60" y="60" width="480" height="480" fill="#cccccc"></rect><rect x="90" y="90" width="420" height="420" fill="#cccccc"></rect><rect x="0" y="0" width="600" height="600" fill="#cccccc"></rect><rect x="120" y="120" width="360" height="360" fill="#cccccc"></rect><rect x="150" y="150" width="300" height="300" fill="#cccccc"></rect><rect x="0" y="600" width="300" height="300" fill="#f9c5ab"></rect><rect x="75" y="675" width="150" height="150" fill="#72b1d3"></rect><rect x="0" y="900" width="300" height="300" fill="#72b1d3"></rect><rect x="75" y="975" width="150" height="150" fill="#f9c5ab"></rect><rect x="300" y="600" width="300" height="300" fill="#f9c5ab"></rect><rect x="375" y="675" width="150" height="150" fill="#72b1d3"></rect><rect x="300" y="900" width="300" height="300" fill="#72b1d3"></rect><rect x="375" y="975" width="150" height="150" fill="#f9c5ab"></rect><rect x="0" y="1200" width="300" height="300" fill="#f9c2a7"></rect><rect x="75" y="1275" width="150" height="150" fill="#f9c2a7"></rect><rect x="0" y="1500" width="300" height="300" fill="#f9c2a7"></rect><rect x="75" y="1575" width="150" height="150" fill="#f9c2a7"></rect><rect x="300" y="1200" width="300" height="300" fill="#f9c2a7"></rect><rect x="375" y="1275" width="150" height="150" fill="#f9efea"></rect><rect x="300" y="1500" width="300" height="300" fill="#f9c2a7"></rect><rect x="375" y="1575" width="150" height="150" fill="#f9efea"></rect><rect x="30" y="1830" width="540" height="540" fill="#cccccc"></rect><rect x="90" y="1890" width="420" height="420" fill="#cccccc"></rect><rect x="120" y="1920" width="360" height="360" fill="#cccccc"></rect><rect x="60" y="1860" width="480" height="480" fill="#cccccc"></rect><rect x="0" y="1800" width="600" height="600" fill="#cccccc"></rect><rect x="150" y="1950" width="300" height="300" fill="#cccccc"></rect><rect x="600" y="0" width="150" height="150" fill="#f1f4f6"></rect><rect x="637.5" y="37.5" width="75" height="75" fill="#a4cee3"></rect><rect x="600" y="150" width="150" height="150" fill="#f9c5ab"></rect><rect x="637.5" y="187.5" width="75" height="75" fill="#3a87bd"></rect><rect x="600" y="300" width="150" height="150" fill="#f1f4f6"></rect><rect x="637.5" y="337.5" width="75" height="75" fill="#3a87bd"></rect><rect x="600" y="450" width="150" height="150" fill="#a4cee3"></rect><rect x="637.5" y="487.5" width="75" height="75" fill="#f1f4f6"></rect><rect x="750" y="0" width="150" height="150" fill="#a4cee3"></rect><rect x="787.5" y="37.5" width="75" height="75" fill="#3a87bd"></rect><rect x="750" y="150" width="150" height="150" fill="#a4cee3"></rect><rect x="787.5" y="187.5" width="75" height="75" fill="#f9c5ab"></rect><rect x="750" y="300" width="150" height="150" fill="#f9c5ab"></rect><rect x="787.5" y="337.5" width="75" height="75" fill="#f9c5ab"></rect><rect x="750" y="450" width="150" height="150" fill="#f9c5ab"></rect><rect x="787.5" y="487.5" width="75" height="75" fill="#a4cee3"></rect><rect x="900" y="0" width="150" height="150" fill="#f9c5ab"></rect><rect x="937.5" y="37.5" width="75" height="75" fill="#a4cee3"></rect><rect x="900" y="150" width="150" height="150" fill="#a4cee3"></rect><rect x="937.5" y="187.5" width="75" height="75" fill="#3a87bd"></rect><rect x="900" y="300" width="150" height="150" fill="#3a87bd"></rect><rect x="937.5" y="337.5" width="75" height="75" fill="#f9c5ab"></rect><rect x="900" y="450" width="150" height="150" fill="#3a87bd"></rect><rect x="937.5" y="487.5" width="75" height="75" fill="#f9c5ab"></rect><rect x="1050" y="0" width="150" height="150" fill="#3a87bd"></rect><rect x="1087.5" y="37.5" width="75" height="75" fill="#a4cee3"></rect><rect x="1050" y="150" width="150" height="150" fill="#f1f4f6"></rect><rect x="1087.5" y="187.5" width="75" height="75" fill="#f1f4f6"></rect><rect x="1050" y="300" width="150" height="150" fill="#f9c5ab"></rect><rect x="1087.5" y="337.5" width="75" height="75" fill="#3a87bd"></rect><rect x="1050" y="450" width="150" height="150" fill="#f1f4f6"></rect><rect x="1087.5" y="487.5" width="75" height="75" fill="#3a87bd"></rect><rect x="750" y="750" width="300" height="300" fill="#cccccc"></rect><rect x="630" y="630" width="540" height="540" fill="#cccccc"></rect><rect x="660" y="660" width="480" height="480" fill="#cccccc"></rect><rect x="690" y="690" width="420" height="420" fill="#cccccc"></rect><rect x="720" y="720" width="360" height="360" fill="#cccccc"></rect><rect x="600" y="600" width="600" height="600" fill="#cccccc"></rect><rect x="600" y="1200" width="300" height="300" fill="#e27c62"></rect><rect x="675" y="1275" width="150" height="150" fill="#e27c62"></rect><rect x="600" y="1500" width="300" height="300" fill="#e27c62"></rect><rect x="675" y="1575" width="150" height="150" fill="#e27c62"></rect><rect x="900" y="1200" width="300" height="300" fill="#96c7df"></rect><rect x="975" y="1275" width="150" height="150" fill="#96c7df"></rect><rect x="900" y="1500" width="300" height="300" fill="#96c7df"></rect><rect x="975" y="1575" width="150" height="150" fill="#e27c62"></rect><rect x="630" y="1830" width="540" height="540" fill="#cccccc"></rect><rect x="660" y="1860" width="480" height="480" fill="#cccccc"></rect><rect x="690" y="1890" width="420" height="420" fill="#cccccc"></rect><rect x="600" y="1800" width="600" height="600" fill="#cccccc"></rect><rect x="720" y="1920" width="360" height="360" fill="#cccccc"></rect><rect x="750" y="1950" width="300" height="300" fill="#cccccc"></rect><rect x="1200" y="0" width="150" height="150" fill="#c7e0ed"></rect><rect x="1237.5" y="37.5" width="75" height="75" fill="#4997c5"></rect><rect x="1200" y="150" width="150" height="150" fill="#4997c5"></rect><rect x="1237.5" y="187.5" width="75" height="75" fill="#c7e0ed"></rect><rect x="1200" y="300" width="150" height="150" fill="#c7e0ed"></rect><rect x="1237.5" y="337.5" width="75" height="75" fill="#c7e0ed"></rect><rect x="1200" y="450" width="150" height="150" fill="#c7e0ed"></rect><rect x="1237.5" y="487.5" width="75" height="75" fill="#e8896d"></rect><rect x="1350" y="0" width="150" height="150" fill="#4997c5"></rect><rect x="1387.5" y="37.5" width="75" height="75" fill="#fbe6d9"></rect><rect x="1350" y="150" width="150" height="150" fill="#fbe6d9"></rect><rect x="1387.5" y="187.5" width="75" height="75" fill="#e8896d"></rect><rect x="1350" y="300" width="150" height="150" fill="#4997c5"></rect><rect x="1387.5" y="337.5" width="75" height="75" fill="#c7e0ed"></rect><rect x="1350" y="450" width="150" height="150" fill="#4997c5"></rect><rect x="1387.5" y="487.5" width="75" height="75" fill="#c7e0ed"></rect><rect x="1500" y="0" width="150" height="150" fill="#e8896d"></rect><rect x="1537.5" y="37.5" width="75" height="75" fill="#fbe6d9"></rect><rect x="1500" y="150" width="150" height="150" fill="#4997c5"></rect><rect x="1537.5" y="187.5" width="75" height="75" fill="#fbe6d9"></rect><rect x="1500" y="300" width="150" height="150" fill="#fbe6d9"></rect><rect x="1537.5" y="337.5" width="75" height="75" fill="#e8896d"></rect><rect x="1500" y="450" width="150" height="150" fill="#4997c5"></rect><rect x="1537.5" y="487.5" width="75" height="75" fill="#fbe6d9"></rect><rect x="1650" y="0" width="150" height="150" fill="#c7e0ed"></rect><rect x="1687.5" y="37.5" width="75" height="75" fill="#c7e0ed"></rect><rect x="1650" y="150" width="150" height="150" fill="#4997c5"></rect><rect x="1687.5" y="187.5" width="75" height="75" fill="#fbe6d9"></rect><rect x="1650" y="300" width="150" height="150" fill="#4997c5"></rect><rect x="1687.5" y="337.5" width="75" height="75" fill="#c7e0ed"></rect><rect x="1650" y="450" width="150" height="150" fill="#fbe6d9"></rect><rect x="1687.5" y="487.5" width="75" height="75" fill="#c7e0ed"></rect><rect x="1200" y="600" width="300" height="300" fill="#c9e1ee"></rect><rect x="1275" y="675" width="150" height="150" fill="#c9e1ee"></rect><rect x="1200" y="900" width="300" height="300" fill="#fbe3d4"></rect><rect x="1275" y="975" width="150" height="150" fill="#c9e1ee"></rect><rect x="1500" y="600" width="300" height="300" fill="#fbe3d4"></rect><rect x="1575" y="675" width="150" height="150" fill="#c9e1ee"></rect><rect x="1500" y="900" width="300" height="300" fill="#c9e1ee"></rect><rect x="1575" y="975" width="150" height="150" fill="#c9e1ee"></rect><rect x="1200" y="1200" width="300" height="300" fill="#e48066"></rect><rect x="1275" y="1275" width="150" height="150" fill="#dbeaf2"></rect><rect x="1200" y="1500" width="300" height="300" fill="#e48066"></rect><rect x="1275" y="1575" width="150" height="150" fill="#e48066"></rect><rect x="1500" y="1200" width="300" height="300" fill="#e48066"></rect><rect x="1575" y="1275" width="150" height="150" fill="#dbeaf2"></rect><rect x="1500" y="1500" width="300" height="300" fill="#dbeaf2"></rect><rect x="1575" y="1575" width="150" height="150" fill="#e48066"></rect><rect x="1200" y="1800" width="600" height="600" fill="#cccccc"></rect><rect x="1350" y="1950" width="300" height="300" fill="#cccccc"></rect><rect x="1290" y="1890" width="420" height="420" fill="#cccccc"></rect><rect x="1230" y="1830" width="540" height="540" fill="#cccccc"></rect><rect x="1320" y="1920" width="360" height="360" fill="#cccccc"></rect><rect x="1260" y="1860" width="480" height="480" fill="#cccccc"></rect><rect x="1830" y="30" width="540" height="540" fill="#cccccc"></rect><rect x="1950" y="150" width="300" height="300" fill="#cccccc"></rect><rect x="1860" y="60" width="480" height="480" fill="#cccccc"></rect><rect x="1890" y="90" width="420" height="420" fill="#cccccc"></rect><rect x="1920" y="120" width="360" height="360" fill="#cccccc"></rect><rect x="1800" y="0" width="600" height="600" fill="#cccccc"></rect><rect x="1800" y="600" width="300" height="300" fill="#f8f3f1"></rect><rect x="1875" y="675" width="150" height="150" fill="#f8f3f1"></rect><rect x="1800" y="900" width="300" height="300" fill="#f8f3f1"></rect><rect x="1875" y="975" width="150" height="150" fill="#d6e7f1"></rect><rect x="2100" y="600" width="300" height="300" fill="#d6e7f1"></rect><rect x="2175" y="675" width="150" height="150" fill="#f8f3f1"></rect><rect x="2100" y="900" width="300" height="300" fill="#d6e7f1"></rect><rect x="2175" y="975" width="150" height="150" fill="#f8f3f1"></rect><rect x="1800" y="1200" width="600" height="600" fill="#cccccc"></rect><rect x="1830" y="1230" width="540" height="540" fill="#cccccc"></rect><rect x="1950" y="1350" width="300" height="300" fill="#cccccc"></rect><rect x="1890" y="1290" width="420" height="420" fill="#cccccc"></rect><rect x="1860" y="1260" width="480" height="480" fill="#cccccc"></rect><rect x="1920" y="1320" width="360" height="360" fill="#cccccc"></rect><rect x="1800" y="1800" width="150" height="150" fill="#f9c2a7"></rect><rect x="1837.5" y="1837.5" width="75" height="75" fill="#f8bb9e"></rect><rect x="1800" y="1950" width="150" height="150" fill="#fac9b0"></rect><rect x="1837.5" y="1987.5" width="75" height="75" fill="#fac9b0"></rect><rect x="1800" y="2100" width="150" height="150" fill="#f9c2a7"></rect><rect x="1837.5" y="2137.5" width="75" height="75" fill="#fac9b0"></rect><rect x="1800" y="2250" width="150" height="150" fill="#f8bb9e"></rect><rect x="1837.5" y="2287.5" width="75" height="75" fill="#fac9b0"></rect><rect x="1950" y="1800" width="150" height="150" fill="#f9c2a7"></rect><rect x="1987.5" y="1837.5" width="75" height="75" fill="#fbd0b9"></rect><rect x="1950" y="1950" width="150" height="150" fill="#f9c2a7"></rect><rect x="1987.5" y="1987.5" width="75" height="75" fill="#fbd0b9"></rect><rect x="1950" y="2100" width="150" height="150" fill="#f8bb9e"></rect><rect x="1987.5" y="2137.5" width="75" height="75" fill="#fac9b0"></rect><rect x="1950" y="2250" width="150" height="150" fill="#f9c2a7"></rect><rect x="1987.5" y="2287.5" width="75" height="75" fill="#fac9b0"></rect><rect x="2100" y="1800" width="150" height="150" fill="#fbd0b9"></rect><rect x="2137.5" y="1837.5" width="75" height="75" fill="#fac9b0"></rect><rect x="2100" y="1950" width="150" height="150" fill="#f8bb9e"></rect><rect x="2137.5" y="1987.5" width="75" height="75" fill="#f8bb9e"></rect><rect x="2100" y="2100" width="150" height="150" fill="#fac9b0"></rect><rect x="2137.5" y="2137.5" width="75" height="75" fill="#f8bb9e"></rect><rect x="2100" y="2250" width="150" height="150" fill="#f8bb9e"></rect><rect x="2137.5" y="2287.5" width="75" height="75" fill="#fac9b0"></rect><rect x="2250" y="1800" width="150" height="150" fill="#f8bb9e"></rect><rect x="2287.5" y="1837.5" width="75" height="75" fill="#fbd0b9"></rect><rect x="2250" y="1950" width="150" height="150" fill="#fbd0b9"></rect><rect x="2287.5" y="1987.5" width="75" height="75" fill="#fac9b0"></rect><rect x="2250" y="2100" width="150" height="150" fill="#fac9b0"></rect><rect x="2287.5" y="2137.5" width="75" height="75" fill="#f9c2a7"></rect><rect x="2250" y="2250" width="150" height="150" fill="#fac9b0"></rect><rect x="2287.5" y="2287.5" width="75" height="75" fill="#fbd0b9"></rect></g></svg>