<svg version="1.1" xmlns="http://www.w3.org/2000/svg" xmlns:xlink="http://www.w3.org/1999/xlink" width="2400" height="2400" viewBox="0,0,2400,2400"><g fill="none" fill-rule="nonzero" stroke="none" stroke-width="none" stroke-linecap="butt" stroke-linejoin="miter" stroke-miterlimit="10" stroke-dasharray="" stroke-dashoffset="0" font-family="none" font-weight="none" font-size="none" text-anchor="none" style="mix-blend-mode: normal"><rect x="0" y="0" width="2400" height="2400" fill="#000000" stroke="#000000" stroke-width="1"></rect><polyline points="-900,-900 -900,1500 1500,1500" fill="#93d168" stroke="none" stroke-width="0"></polyline><polyline points="-300,-300 -300,900 900,900" fill="#a0d669" stroke="none" stroke-width="0"></polyline><polyline points="150,150 150,450 450,450" fill="#fdb567" stroke="none" stroke-width="0"></polyline><polyline points="0,0 0,600 600,600" fill="#d9ef8b" stroke="none" stroke-width="0"></polyline><polyline points="0,600 0,900 300,900" fill="#eb5b3b" stroke="none" stroke-width="0"></polyline><polyline points="75,675 75,825 225,825" fill="#f98e52" stroke="none" stroke-width="0"></polyline><polyline points="0,900 0,1200 300,1200" fill="#de3f2e" stroke="none" stroke-width="0"></polyline><polyline points="75,975 75,1125 225,1125" fill="#229c52" stroke="none" stroke-width="0"></polyline><polyline points="300,600 300,900 600,900" fill="#d4ed88" stroke="none" stroke-width="0"></polyline><polyline points="375,675 375,825 525,825" fill="#fff4ac" stroke="none" stroke-width="0"></polyline><polyline points="300,900 300,1200 600,1200" fill="#f98e52" stroke="none" stroke-width="0"></polyline><polyline points="375,975 375,1125 525,1125" fill="#61ba62" stroke="none" stroke-width="0"></polyline><polyline points="0,1200 0,1500 300,1500" fill="#fdb264" stroke="none" stroke-width="0"></polyline><polyline points="75,1275 75,1425 225,1425" fill="#f7844d" stroke="none" stroke-width="0"></polyline><polyline points="0,1500 0,1800 300,1800" fill="#a6d96a" stroke="none" stroke-width="0"></polyline><polyline points="75,1575 75,1725 225,1725" fill="#ab0526" stroke="none" stroke-width="0"></polyline><polyline points="300,1200 300,1500 600,1500" fill="#ebf7a4" stroke="none" stroke-width="0"></polyline><polyline points="375,1275 375,1425 525,1425" fill="#e9f6a0" stroke="none" stroke-width="0"></polyline><polyline points="300,1500 300,1800 600,1800" fill="#07753e" stroke="none" stroke-width="0"></polyline><polyline points="375,1575 375,1725 525,1725" fill="#f7844d" stroke="none" stroke-width="0"></polyline><polyline points="0,1800 0,1950 150,1950" fill="#e0422f" stroke="none" stroke-width="0"></polyline><polyline points="37.5,1837.5 37.5,1912.5 112.5,1912.5" fill="#8fcf67" stroke="none" stroke-width="0"></polyline><polyline points="0,1950 0,2100 150,2100" fill="#8fcf67" stroke="none" stroke-width="0"></polyline><polyline points="37.5,1987.5 37.5,2062.5 112.5,2062.5" fill="#49af5c" stroke="none" stroke-width="0"></polyline><polyline points="0,2100 0,2250 150,2250" fill="#cbe982" stroke="none" stroke-width="0"></polyline><polyline points="37.5,2137.5 37.5,2212.5 112.5,2212.5" fill="#d5ed88" stroke="none" stroke-width="0"></polyline><polyline points="0,2250 0,2400 150,2400" fill="#dd3e2d" stroke="none" stroke-width="0"></polyline><polyline points="37.5,2287.5 37.5,2362.5 112.5,2362.5" fill="#8fcf67" stroke="none" stroke-width="0"></polyline><polyline points="150,1800 150,1950 300,1950" fill="#f46f44" stroke="none" stroke-width="0"></polyline><polyline points="187.5,1837.5 187.5,1912.5 262.5,1912.5" fill="#229c52" stroke="none" stroke-width="0"></polyline><polyline points="150,1950 150,2100 300,2100" fill="#d5ed88" stroke="none" stroke-width="0"></polyline><polyline points="187.5,1987.5 187.5,2062.5 262.5,2062.5" fill="#e0422f" stroke="none" stroke-width="0"></polyline><polyline points="150,2100 150,2250 300,2250" fill="#abdb6d" stroke="none" stroke-width="0"></polyline><polyline points="187.5,2137.5 187.5,2212.5 262.5,2212.5" fill="#8fcf67" stroke="none" stroke-width="0"></polyline><polyline points="150,2250 150,2400 300,2400" fill="#a6d96a" stroke="none" stroke-width="0"></polyline><polyline points="187.5,2287.5 187.5,2362.5 262.5,2362.5" fill="#f98f53" stroke="none" stroke-width="0"></polyline><polyline points="300,1800 300,1950 450,1950" fill="#fbfdba" stroke="none" stroke-width="0"></polyline><polyline points="337.5,1837.5 337.5,1912.5 412.5,1912.5" fill="#dd3e2d" stroke="none" stroke-width="0"></polyline><polyline points="300,1950 300,2100 450,2100" fill="#ffffbf" stroke="none" stroke-width="0"></polyline><polyline points="337.5,1987.5 337.5,2062.5 412.5,2062.5" fill="#f46f44" stroke="none" stroke-width="0"></polyline><polyline points="300,2100 300,2250 450,2250" fill="#229c52" stroke="none" stroke-width="0"></polyline><polyline points="337.5,2137.5 337.5,2212.5 412.5,2212.5" fill="#49af5c" stroke="none" stroke-width="0"></polyline><polyline points="300,2250 300,2400 450,2400" fill="#abdb6d" stroke="none" stroke-width="0"></polyline><polyline points="337.5,2287.5 337.5,2362.5 412.5,2362.5" fill="#dd3e2d" stroke="none" stroke-width="0"></polyline><polyline points="450,1800 450,1950 600,1950" fill="#fbfdba" stroke="none" stroke-width="0"></polyline><polyline points="487.5,1837.5 487.5,1912.5 562.5,1912.5" fill="#d7ee8a" stroke="none" stroke-width="0"></polyline><polyline points="450,1950 450,2100 600,2100" fill="#f98e52" stroke="none" stroke-width="0"></polyline><polyline points="487.5,1987.5 487.5,2062.5 562.5,2062.5" fill="#dd3e2d" stroke="none" stroke-width="0"></polyline><polyline points="450,2100 450,2250 600,2250" fill="#fedc88" stroke="none" stroke-width="0"></polyline><polyline points="487.5,2137.5 487.5,2212.5 562.5,2212.5" fill="#fbfdba" stroke="none" stroke-width="0"></polyline><polyline points="450,2250 450,2400 600,2400" fill="#49af5c" stroke="none" stroke-width="0"></polyline><polyline points="487.5,2287.5 487.5,2362.5 562.5,2362.5" fill="#1a9850" stroke="none" stroke-width="0"></polyline><polyline points="600,0 600,300 900,300" fill="#118747" stroke="none" stroke-width="0"></polyline><polyline points="675,75 675,225 825,225" fill="#51b35e" stroke="none" stroke-width="0"></polyline><polyline points="600,300 600,600 900,600" fill="#fed481" stroke="none" stroke-width="0"></polyline><polyline points="675,375 675,525 825,525" fill="#48ae5b" stroke="none" stroke-width="0"></polyline><polyline points="900,0 900,300 1200,300" fill="#4fb25d" stroke="none" stroke-width="0"></polyline><polyline points="975,75 975,225 1125,225" fill="#e8f5a0" stroke="none" stroke-width="0"></polyline><polyline points="900,300 900,600 1200,600" fill="#e8f5a0" stroke="none" stroke-width="0"></polyline><polyline points="975,375 975,525 1125,525" fill="#1e9a51" stroke="none" stroke-width="0"></polyline><polyline points="600,600 600,750 750,750" fill="#e85538" stroke="none" stroke-width="0"></polyline><polyline points="637.5,637.5 637.5,712.5 712.5,712.5" fill="#80c866" stroke="none" stroke-width="0"></polyline><polyline points="600,750 600,900 750,900" fill="#fec776" stroke="none" stroke-width="0"></polyline><polyline points="637.5,787.5 637.5,862.5 712.5,862.5" fill="#e7f59f" stroke="none" stroke-width="0"></polyline><polyline points="600,900 600,1050 750,1050" fill="#de3e2d" stroke="none" stroke-width="0"></polyline><polyline points="637.5,937.5 637.5,1012.5 712.5,1012.5" fill="#fec776" stroke="none" stroke-width="0"></polyline><polyline points="600,1050 600,1200 750,1200" fill="#fa9756" stroke="none" stroke-width="0"></polyline><polyline points="637.5,1087.5 637.5,1162.5 712.5,1162.5" fill="#a0d669" stroke="none" stroke-width="0"></polyline><polyline points="750,600 750,750 900,750" fill="#cae881" stroke="none" stroke-width="0"></polyline><polyline points="787.5,637.5 787.5,712.5 862.5,712.5" fill="#fca65d" stroke="none" stroke-width="0"></polyline><polyline points="750,750 750,900 900,900" fill="#fec776" stroke="none" stroke-width="0"></polyline><polyline points="787.5,787.5 787.5,862.5 862.5,862.5" fill="#e7f59f" stroke="none" stroke-width="0"></polyline><polyline points="750,900 750,1050 900,1050" fill="#fec776" stroke="none" stroke-width="0"></polyline><polyline points="787.5,937.5 787.5,1012.5 862.5,1012.5" fill="#eaf6a3" stroke="none" stroke-width="0"></polyline><polyline points="750,1050 750,1200 900,1200" fill="#fee696" stroke="none" stroke-width="0"></polyline><polyline points="787.5,1087.5 787.5,1162.5 862.5,1162.5" fill="#fee696" stroke="none" stroke-width="0"></polyline><polyline points="900,600 900,750 1050,750" fill="#fdbd6e" stroke="none" stroke-width="0"></polyline><polyline points="937.5,637.5 937.5,712.5 1012.5,712.5" fill="#e7f59f" stroke="none" stroke-width="0"></polyline><polyline points="900,750 900,900 1050,900" fill="#99d369" stroke="none" stroke-width="0"></polyline><polyline points="937.5,787.5 937.5,862.5 1012.5,862.5" fill="#b4df73" stroke="none" stroke-width="0"></polyline><polyline points="900,900 900,1050 1050,1050" fill="#b4df73" stroke="none" stroke-width="0"></polyline><polyline points="937.5,937.5 937.5,1012.5 1012.5,1012.5" fill="#b4df73" stroke="none" stroke-width="0"></polyline><polyline points="900,1050 900,1200 1050,1200" fill="#fdbd6e" stroke="none" stroke-width="0"></polyline><polyline points="937.5,1087.5 937.5,1162.5 1012.5,1162.5" fill="#fca65d" stroke="none" stroke-width="0"></polyline><polyline points="1050,600 1050,750 1200,750" fill="#80c866" stroke="none" stroke-width="0"></polyline><polyline points="1087.5,637.5 1087.5,712.5 1162.5,712.5" fill="#de3e2d" stroke="none" stroke-width="0"></polyline><polyline points="1050,750 1050,900 1200,900" fill="#eaf6a3" stroke="none" stroke-width="0"></polyline><polyline points="1087.5,787.5 1087.5,862.5 1162.5,862.5" fill="#cae881" stroke="none" stroke-width="0"></polyline><polyline points="1050,900 1050,1050 1200,1050" fill="#e85538" stroke="none" stroke-width="0"></polyline><polyline points="1087.5,937.5 1087.5,1012.5 1162.5,1012.5" fill="#fa9756" stroke="none" stroke-width="0"></polyline><polyline points="1050,1050 1050,1200 1200,1200" fill="#fdbd6e" stroke="none" stroke-width="0"></polyline><polyline points="1087.5,1087.5 1087.5,1162.5 1162.5,1162.5" fill="#e64f35" stroke="none" stroke-width="0"></polyline><polyline points="600,1200 600,1500 900,1500" fill="#fbfdba" stroke="none" stroke-width="0"></polyline><polyline points="675,1275 675,1425 825,1425" fill="#fee898" stroke="none" stroke-width="0"></polyline><polyline points="600,1500 600,1800 900,1800" fill="#bde379" stroke="none" stroke-width="0"></polyline><polyline points="675,1575 675,1725 825,1725" fill="#e0422f" stroke="none" stroke-width="0"></polyline><polyline points="900,1200 900,1500 1200,1500" fill="#fecd7b" stroke="none" stroke-width="0"></polyline><polyline points="975,1275 975,1425 1125,1425" fill="#e4f49a" stroke="none" stroke-width="0"></polyline><polyline points="900,1500 900,1800 1200,1800" fill="#cfeb84" stroke="none" stroke-width="0"></polyline><polyline points="975,1575 975,1725 1125,1725" fill="#fbfdba" stroke="none" stroke-width="0"></polyline><polyline points="600,1800 600,2100 900,2100" fill="#fff9b5" stroke="none" stroke-width="0"></polyline><polyline points="675,1875 675,2025 825,2025" fill="#35a557" stroke="none" stroke-width="0"></polyline><polyline points="600,2100 600,2400 900,2400" fill="#c3e67d" stroke="none" stroke-width="0"></polyline><polyline points="675,2175 675,2325 825,2325" fill="#fbfdb9" stroke="none" stroke-width="0"></polyline><polyline points="900,1800 900,2100 1200,2100" fill="#4eb15d" stroke="none" stroke-width="0"></polyline><polyline points="975,1875 975,2025 1125,2025" fill="#f36a42" stroke="none" stroke-width="0"></polyline><polyline points="900,2100 900,2400 1200,2400" fill="#fffbb8" stroke="none" stroke-width="0"></polyline><polyline points="975,2175 975,2325 1125,2325" fill="#d4ed88" stroke="none" stroke-width="0"></polyline><polyline points="1200,0 1200,300 1500,300" fill="#b10b26" stroke="none" stroke-width="0"></polyline><polyline points="1275,75 1275,225 1425,225" fill="#e85538" stroke="none" stroke-width="0"></polyline><polyline points="1200,300 1200,600 1500,600" fill="#229c52" stroke="none" stroke-width="0"></polyline><polyline points="1275,375 1275,525 1425,525" fill="#bbe278" stroke="none" stroke-width="0"></polyline><polyline points="1500,0 1500,300 1800,300" fill="#bce378" stroke="none" stroke-width="0"></polyline><polyline points="1575,75 1575,225 1725,225" fill="#229c52" stroke="none" stroke-width="0"></polyline><polyline points="1500,300 1500,600 1800,600" fill="#d1ec86" stroke="none" stroke-width="0"></polyline><polyline points="1575,375 1575,525 1725,525" fill="#b10b26" stroke="none" stroke-width="0"></polyline><polyline points="1200,600 1200,900 1500,900" fill="#feeca0" stroke="none" stroke-width="0"></polyline><polyline points="1275,675 1275,825 1425,825" fill="#c82127" stroke="none" stroke-width="0"></polyline><polyline points="1200,900 1200,1200 1500,1200" fill="#f57346" stroke="none" stroke-width="0"></polyline><polyline points="1275,975 1275,1125 1425,1125" fill="#e85538" stroke="none" stroke-width="0"></polyline><polyline points="1500,600 1500,900 1800,900" fill="#57b65f" stroke="none" stroke-width="0"></polyline><polyline points="1575,675 1575,825 1725,825" fill="#f46d43" stroke="none" stroke-width="0"></polyline><polyline points="1500,900 1500,1200 1800,1200" fill="#cfeb84" stroke="none" stroke-width="0"></polyline><polyline points="1575,975 1575,1125 1725,1125" fill="#f46d43" stroke="none" stroke-width="0"></polyline><polyline points="1200,1200 1200,1500 1500,1500" fill="#e3f399" stroke="none" stroke-width="0"></polyline><polyline points="1275,1275 1275,1425 1425,1425" fill="#f57748" stroke="none" stroke-width="0"></polyline><polyline points="1200,1500 1200,1800 1500,1800" fill="#e04330" stroke="none" stroke-width="0"></polyline><polyline points="1275,1575 1275,1725 1425,1725" fill="#f8874f" stroke="none" stroke-width="0"></polyline><polyline points="1500,1200 1500,1500 1800,1500" fill="#b8e176" stroke="none" stroke-width="0"></polyline><polyline points="1575,1275 1575,1425 1725,1425" fill="#f8874f" stroke="none" stroke-width="0"></polyline><polyline points="1500,1500 1500,1800 1800,1800" fill="#fdc373" stroke="none" stroke-width="0"></polyline><polyline points="1575,1575 1575,1725 1725,1725" fill="#fee695" stroke="none" stroke-width="0"></polyline><polyline points="300,900 300,3300 2700,3300" fill="#cd2727" stroke="none" stroke-width="0"></polyline><polyline points="1350,1950 1350,2250 1650,2250" fill="#118747" stroke="none" stroke-width="0"></polyline><polyline points="1200,1800 1200,2400 1800,2400" fill="#99d369" stroke="none" stroke-width="0"></polyline><polyline points="900,1500 900,2700 2100,2700" fill="#fff3aa" stroke="none" stroke-width="0"></polyline><polyline points="1800,0 1800,300 2100,300" fill="#42ab5a" stroke="none" stroke-width="0"></polyline><polyline points="1875,75 1875,225 2025,225" fill="#9bd469" stroke="none" stroke-width="0"></polyline><polyline points="1800,300 1800,600 2100,600" fill="#38a758" stroke="none" stroke-width="0"></polyline><polyline points="1875,375 1875,525 2025,525" fill="#fdba6b" stroke="none" stroke-width="0"></polyline><polyline points="2100,0 2100,300 2400,300" fill="#f8874f" stroke="none" stroke-width="0"></polyline><polyline points="2175,75 2175,225 2325,225" fill="#fffcba" stroke="none" stroke-width="0"></polyline><polyline points="2100,300 2100,600 2400,600" fill="#38a758" stroke="none" stroke-width="0"></polyline><polyline points="2175,375 2175,525 2325,525" fill="#fffcba" stroke="none" stroke-width="0"></polyline><polyline points="1800,600 1800,750 1950,750" fill="#fdb365" stroke="none" stroke-width="0"></polyline><polyline points="1837.5,637.5 1837.5,712.5 1912.5,712.5" fill="#cd2627" stroke="none" stroke-width="0"></polyline><polyline points="1800,750 1800,900 1950,900" fill="#e4f49a" stroke="none" stroke-width="0"></polyline><polyline points="1837.5,787.5 1837.5,862.5 1912.5,862.5" fill="#fdb365" stroke="none" stroke-width="0"></polyline><polyline points="1800,900 1800,1050 1950,1050" fill="#f16740" stroke="none" stroke-width="0"></polyline><polyline points="1837.5,937.5 1837.5,1012.5 1912.5,1012.5" fill="#cd2627" stroke="none" stroke-width="0"></polyline><polyline points="1800,1050 1800,1200 1950,1200" fill="#feeca0" stroke="none" stroke-width="0"></polyline><polyline points="1837.5,1087.5 1837.5,1162.5 1912.5,1162.5" fill="#e64f35" stroke="none" stroke-width="0"></polyline><polyline points="1950,600 1950,750 2100,750" fill="#f16740" stroke="none" stroke-width="0"></polyline><polyline points="1987.5,637.5 1987.5,712.5 2062.5,712.5" fill="#93d168" stroke="none" stroke-width="0"></polyline><polyline points="1950,750 1950,900 2100,900" fill="#f16740" stroke="none" stroke-width="0"></polyline><polyline points="1987.5,787.5 1987.5,862.5 2062.5,862.5" fill="#f16740" stroke="none" stroke-width="0"></polyline><polyline points="1950,900 1950,1050 2100,1050" fill="#fee898" stroke="none" stroke-width="0"></polyline><polyline points="1987.5,937.5 1987.5,1012.5 2062.5,1012.5" fill="#f6fbb2" stroke="none" stroke-width="0"></polyline><polyline points="1950,1050 1950,1200 2100,1200" fill="#feeca0" stroke="none" stroke-width="0"></polyline><polyline points="1987.5,1087.5 1987.5,1162.5 2062.5,1162.5" fill="#e64f35" stroke="none" stroke-width="0"></polyline><polyline points="2100,600 2100,750 2250,750" fill="#be1827" stroke="none" stroke-width="0"></polyline><polyline points="2137.5,637.5 2137.5,712.5 2212.5,712.5" fill="#f16740" stroke="none" stroke-width="0"></polyline><polyline points="2100,750 2100,900 2250,900" fill="#feeca0" stroke="none" stroke-width="0"></polyline><polyline points="2137.5,787.5 2137.5,862.5 2212.5,862.5" fill="#93d168" stroke="none" stroke-width="0"></polyline><polyline points="2100,900 2100,1050 2250,1050" fill="#48ae5b" stroke="none" stroke-width="0"></polyline><polyline points="2137.5,937.5 2137.5,1012.5 2212.5,1012.5" fill="#aadb6d" stroke="none" stroke-width="0"></polyline><polyline points="2100,1050 2100,1200 2250,1200" fill="#fee898" stroke="none" stroke-width="0"></polyline><polyline points="2137.5,1087.5 2137.5,1162.5 2212.5,1162.5" fill="#48ae5b" stroke="none" stroke-width="0"></polyline><polyline points="2250,600 2250,750 2400,750" fill="#feeca0" stroke="none" stroke-width="0"></polyline><polyline points="2287.5,637.5 2287.5,712.5 2362.5,712.5" fill="#d9ef8b" stroke="none" stroke-width="0"></polyline><polyline points="2250,750 2250,900 2400,900" fill="#dc3a2b" stroke="none" stroke-width="0"></polyline><polyline points="2287.5,787.5 2287.5,862.5 2362.5,862.5" fill="#feeca0" stroke="none" stroke-width="0"></polyline><polyline points="2250,900 2250,1050 2400,1050" fill="#48ae5b" stroke="none" stroke-width="0"></polyline><polyline points="2287.5,937.5 2287.5,1012.5 2362.5,1012.5" fill="#d9ef8b" stroke="none" stroke-width="0"></polyline><polyline points="2250,1050 2250,1200 2400,1200" fill="#48ae5b" stroke="none" stroke-width="0"></polyline><polyline points="2287.5,1087.5 2287.5,1162.5 2362.5,1162.5" fill="#48ae5b" stroke="none" stroke-width="0"></polyline><polyline points="1800,1200 1800,1500 2100,1500" fill="#fff3aa" stroke="none" stroke-width="0"></polyline><polyline points="1875,1275 1875,1425 2025,1425" fill="#fee38f" stroke="none" stroke-width="0"></polyline><polyline points="1800,1500 1800,1800 2100,1800" fill="#d73027" stroke="none" stroke-width="0"></polyline><polyline points="1875,1575 1875,1725 2025,1725" fill="#269e53" stroke="none" stroke-width="0"></polyline><polyline points="2100,1200 2100,1500 2400,1500" fill="#fecc7a" stroke="none" stroke-width="0"></polyline><polyline points="2175,1275 2175,1425 2325,1425" fill="#6abf63" stroke="none" stroke-width="0"></polyline><polyline points="2100,1500 2100,1800 2400,1800" fill="#40ab5a" stroke="none" stroke-width="0"></polyline><polyline points="2175,1575 2175,1725 2325,1725" fill="#1e9a51" stroke="none" stroke-width="0"></polyline><polyline points="1950,1950 1950,2250 2250,2250" fill="#09783f" stroke="none" stroke-width="0"></polyline><polyline points="900,900 900,3300 3300,3300" fill="#eb5b3b" stroke="none" stroke-width="0"></polyline><polyline points="1800,1800 1800,2400 2400,2400" fill="#be1827" stroke="none" stroke-width="0"></polyline><polyline points="1500,1500 1500,2700 2700,2700" fill="#86cb67" stroke="none" stroke-width="0"></polyline></g></svg>
