<svg version="1.1" xmlns="http://www.w3.org/2000/svg" xmlns:xlink="http://www.w3.org/1999/xlink" width="2400" height="2400" viewBox="0,0,2400,2400"><g fill="none" fill-rule="nonzero" stroke="none" stroke-width="1" stroke-linecap="butt" stroke-linejoin="miter" stroke-miterlimit="10" stroke-dasharray="" stroke-dashoffset="0" font-family="none" font-weight="none" font-size="none" text-anchor="none" style="mix-blend-mode: normal"><rect x="0" y="0" width="2400" height="2400" fill="#000000" stroke="#000000"></rect><rect x="-75" y="-75" width="750" height="750" fill="#4299b6" stroke="none"></rect><rect x="0" y="0" width="600" height="600" fill="#f16844" stroke="none"></rect><rect x="0" y="600" width="300" height="300" fill="#e9f69c" stroke="none"></rect><rect x="75" y="675" width="150" height="150" fill="#f8874f" stroke="none"></rect><rect x="0" y="900" width="300" height="300" fill="#f7fcb2" stroke="none"></rect><rect x="75" y="975" width="150" height="150" fill="#4075b4" stroke="none"></rect><rect x="300" y="600" width="300" height="300" fill="#5cb6aa" stroke="none"></rect><rect x="375" y="675" width="150" height="150" fill="#e1514a" stroke="none"></rect><rect x="300" y="900" width="300" height="300" fill="#496aaf" stroke="none"></rect><rect x="375" y="975" width="150" height="150" fill="#9e0142" stroke="none"></rect><rect x="-75" y="1125" width="750" height="750" fill="#b0dfa3" stroke="none"></rect><rect x="0" y="1200" width="600" height="600" fill="#3f77b5" stroke="none"></rect><rect x="0" y="1800" width="600" height="600" fill="#b41947" stroke="none"></rect><rect x="-75" y="1725" width="750" height="750" fill="#3584bb" stroke="none"></rect><rect x="600" y="0" width="300" height="300" fill="#dd4a4c" stroke="none"></rect><rect x="675" y="75" width="150" height="150" fill="#ebf7a1" stroke="none"></rect><rect x="600" y="300" width="300" height="300" fill="#e1514a" stroke="none"></rect><rect x="675" y="375" width="150" height="150" fill="#eef8a4" stroke="none"></rect><rect x="900" y="0" width="300" height="300" fill="#fffab6" stroke="none"></rect><rect x="975" y="75" width="150" height="150" fill="#7bcaa5" stroke="none"></rect><rect x="900" y="300" width="300" height="300" fill="#9ad6a4" stroke="none"></rect><rect x="975" y="375" width="150" height="150" fill="#bde4a0" stroke="none"></rect><rect x="525" y="525" width="750" height="750" fill="#fedb87" stroke="none"></rect><rect x="600" y="600" width="600" height="600" fill="#f0f9a8" stroke="none"></rect><rect x="600" y="1200" width="300" height="300" fill="#fff6b0" stroke="none"></rect><rect x="675" y="1275" width="150" height="150" fill="#3f96b7" stroke="none"></rect><rect x="600" y="1500" width="300" height="300" fill="#a0d9a4" stroke="none"></rect><rect x="675" y="1575" width="150" height="150" fill="#fff6b0" stroke="none"></rect><rect x="900" y="1200" width="300" height="300" fill="#4299b6" stroke="none"></rect><rect x="975" y="1275" width="150" height="150" fill="#feeea3" stroke="none"></rect><rect x="900" y="1500" width="300" height="300" fill="#4299b6" stroke="none"></rect><rect x="975" y="1575" width="150" height="150" fill="#b3e0a2" stroke="none"></rect><rect x="525" y="1725" width="750" height="750" fill="#3c7bb7" stroke="none"></rect><rect x="600" y="1800" width="600" height="600" fill="#f3faab" stroke="none"></rect><rect x="1200" y="0" width="300" height="300" fill="#fff0a5" stroke="none"></rect><rect x="1275" y="75" width="150" height="150" fill="#a90d45" stroke="none"></rect><rect x="1200" y="300" width="300" height="300" fill="#c2294a" stroke="none"></rect><rect x="1275" y="375" width="150" height="150" fill="#fec776" stroke="none"></rect><rect x="1500" y="0" width="300" height="300" fill="#c2294a" stroke="none"></rect><rect x="1575" y="75" width="150" height="150" fill="#82cda5" stroke="none"></rect><rect x="1500" y="300" width="300" height="300" fill="#e2524a" stroke="none"></rect><rect x="1575" y="375" width="150" height="150" fill="#82cda5" stroke="none"></rect><rect x="1200" y="600" width="300" height="300" fill="#3d94b8" stroke="none"></rect><rect x="1275" y="675" width="150" height="150" fill="#fed783" stroke="none"></rect><rect x="1200" y="900" width="300" height="300" fill="#fed17e" stroke="none"></rect><rect x="1275" y="975" width="150" height="150" fill="#f98e52" stroke="none"></rect><rect x="1500" y="600" width="300" height="300" fill="#fb9e5a" stroke="none"></rect><rect x="1575" y="675" width="150" height="150" fill="#5160aa" stroke="none"></rect><rect x="1500" y="900" width="300" height="300" fill="#fff4ad" stroke="none"></rect><rect x="1575" y="975" width="150" height="150" fill="#f7854e" stroke="none"></rect><rect x="1200" y="1200" width="300" height="300" fill="#d9454d" stroke="none"></rect><rect x="1275" y="1275" width="150" height="150" fill="#f8874f" stroke="none"></rect><rect x="1200" y="1500" width="300" height="300" fill="#4f63ab" stroke="none"></rect><rect x="1275" y="1575" width="150" height="150" fill="#f7804c" stroke="none"></rect><rect x="1500" y="1200" width="300" height="300" fill="#74c7a5" stroke="none"></rect><rect x="1575" y="1275" width="150" height="150" fill="#f5fbaf" stroke="none"></rect><rect x="1500" y="1500" width="300" height="300" fill="#fafdb7" stroke="none"></rect><rect x="1575" y="1575" width="150" height="150" fill="#c7e99e" stroke="none"></rect><rect x="1125" y="1725" width="750" height="750" fill="#c3e79f" stroke="none"></rect><rect x="1200" y="1800" width="600" height="600" fill="#fedb87" stroke="none"></rect><rect x="1800" y="0" width="600" height="600" fill="#fcfeba" stroke="none"></rect><rect x="1725" y="-75" width="750" height="750" fill="#fedb87" stroke="none"></rect><rect x="1800" y="600" width="300" height="300" fill="#3c93b8" stroke="none"></rect><rect x="1875" y="675" width="150" height="150" fill="#fff5ae" stroke="none"></rect><rect x="1800" y="900" width="300" height="300" fill="#56b1ac" stroke="none"></rect><rect x="1875" y="975" width="150" height="150" fill="#3682ba" stroke="none"></rect><rect x="2100" y="600" width="300" height="300" fill="#ffffbf" stroke="none"></rect><rect x="2175" y="675" width="150" height="150" fill="#e1514a" stroke="none"></rect><rect x="2100" y="900" width="300" height="300" fill="#c1284a" stroke="none"></rect><rect x="2175" y="975" width="150" height="150" fill="#c1284a" stroke="none"></rect><rect x="1725" y="1125" width="750" height="750" fill="#b1dfa3" stroke="none"></rect><rect x="1800" y="1200" width="600" height="600" fill="#fdc474" stroke="none"></rect><rect x="1800" y="1800" width="600" height="600" fill="#fee08b" stroke="none"></rect><rect x="1725" y="1725" width="750" height="750" fill="#fee38f" stroke="none"></rect></g></svg>