<svg version="1.1" xmlns="http://www.w3.org/2000/svg" xmlns:xlink="http://www.w3.org/1999/xlink" width="4800" height="2400" viewBox="0,0,4800,2400"><g fill="none" fill-rule="nonzero" stroke="none" stroke-width="1" stroke-linecap="butt" stroke-linejoin="miter" stroke-miterlimit="10" stroke-dasharray="" stroke-dashoffset="0" font-family="none" font-weight="none" font-size="none" text-anchor="none" style="mix-blend-mode: normal"><circle cx="150" cy="150" r="150" fill="#848484"></circle><circle cx="150" cy="150" r="150" fill="#262626"></circle><circle cx="150" cy="450" r="150" fill="#5b5b5b"></circle><circle cx="150" cy="450" r="150" fill="#b6b6b6"></circle><circle cx="450" cy="150" r="150" fill="#a3a3a3"></circle><circle cx="450" cy="150" r="150" fill="#e1e1e1"></circle><circle cx="450" cy="450" r="150" fill="#5d5d5d"></circle><circle cx="450" cy="450" r="150" fill="#d7d7d7"></circle><circle cx="150" cy="750" r="150" fill="#4f4f4f"></circle><circle cx="150" cy="750" r="150" fill="#e5e5e5"></circle><circle cx="150" cy="1050" r="150" fill="#050505"></circle><circle cx="150" cy="1050" r="150" fill="#787878"></circle><circle cx="450" cy="750" r="150" fill="#adadad"></circle><circle cx="450" cy="750" r="150" fill="#c0c0c0"></circle><circle cx="450" cy="1050" r="150" fill="#969696"></circle><circle cx="450" cy="1050" r="150" fill="#0d0d0d"></circle><circle cx="75" cy="1275" r="75" fill="#646464"></circle><circle cx="75" cy="1275" r="75" fill="#262626"></circle><circle cx="75" cy="1425" r="75" fill="#737373"></circle><circle cx="75" cy="1425" r="75" fill="#e7e7e7"></circle><circle cx="75" cy="1575" r="75" fill="#d9d9d9"></circle><circle cx="75" cy="1575" r="75" fill="#3b3b3b"></circle><circle cx="75" cy="1725" r="75" fill="#f1f1f1"></circle><circle cx="75" cy="1725" r="75" fill="#d2d2d2"></circle><circle cx="225" cy="1275" r="75" fill="#979797"></circle><circle cx="225" cy="1275" r="75" fill="#717171"></circle><circle cx="225" cy="1425" r="75" fill="#dcdcdc"></circle><circle cx="225" cy="1425" r="75" fill="#787878"></circle><circle cx="225" cy="1575" r="75" fill="#909090"></circle><circle cx="225" cy="1575" r="75" fill="#e2e2e2"></circle><circle cx="225" cy="1725" r="75" fill="#0c0c0c"></circle><circle cx="225" cy="1725" r="75" fill="#dfdfdf"></circle><circle cx="375" cy="1275" r="75" fill="#030303"></circle><circle cx="375" cy="1275" r="75" fill="#f9f9f9"></circle><circle cx="375" cy="1425" r="75" fill="#f9f9f9"></circle><circle cx="375" cy="1425" r="75" fill="#c2c2c2"></circle><circle cx="375" cy="1575" r="75" fill="#cdcdcd"></circle><circle cx="375" cy="1575" r="75" fill="#f9f9f9"></circle><circle cx="375" cy="1725" r="75" fill="#555555"></circle><circle cx="375" cy="1725" r="75" fill="#aaaaaa"></circle><circle cx="525" cy="1275" r="75" fill="#5d5d5d"></circle><circle cx="525" cy="1275" r="75" fill="#c4c4c4"></circle><circle cx="525" cy="1425" r="75" fill="#b5b5b5"></circle><circle cx="525" cy="1425" r="75" fill="#7e7e7e"></circle><circle cx="525" cy="1575" r="75" fill="#969696"></circle><circle cx="525" cy="1575" r="75" fill="#797979"></circle><circle cx="525" cy="1725" r="75" fill="#ffffff"></circle><circle cx="525" cy="1725" r="75" fill="#181818"></circle><circle cx="75" cy="1875" r="75" fill="#999999"></circle><circle cx="75" cy="1875" r="75" fill="#6b6b6b"></circle><circle cx="75" cy="2025" r="75" fill="#f8f8f8"></circle><circle cx="75" cy="2025" r="75" fill="#fcfcfc"></circle><circle cx="75" cy="2175" r="75" fill="#ebebeb"></circle><circle cx="75" cy="2175" r="75" fill="#fcfcfc"></circle><circle cx="75" cy="2325" r="75" fill="#6a6a6a"></circle><circle cx="75" cy="2325" r="75" fill="#909090"></circle><circle cx="225" cy="1875" r="75" fill="#a1a1a1"></circle><circle cx="225" cy="1875" r="75" fill="#c9c9c9"></circle><circle cx="225" cy="2025" r="75" fill="#cbcbcb"></circle><circle cx="225" cy="2025" r="75" fill="#c1c1c1"></circle><circle cx="225" cy="2175" r="75" fill="#d7d7d7"></circle><circle cx="225" cy="2175" r="75" fill="#8f8f8f"></circle><circle cx="225" cy="2325" r="75" fill="#afafaf"></circle><circle cx="225" cy="2325" r="75" fill="#d0d0d0"></circle><circle cx="375" cy="1875" r="75" fill="#0a0a0a"></circle><circle cx="375" cy="1875" r="75" fill="#323232"></circle><circle cx="375" cy="2025" r="75" fill="#d6d6d6"></circle><circle cx="375" cy="2025" r="75" fill="#020202"></circle><circle cx="375" cy="2175" r="75" fill="#acacac"></circle><circle cx="375" cy="2175" r="75" fill="#1f1f1f"></circle><circle cx="375" cy="2325" r="75" fill="#383838"></circle><circle cx="375" cy="2325" r="75" fill="#aaaaaa"></circle><circle cx="525" cy="1875" r="75" fill="#808080"></circle><circle cx="525" cy="1875" r="75" fill="#a1a1a1"></circle><circle cx="525" cy="2025" r="75" fill="#2c2c2c"></circle><circle cx="525" cy="2025" r="75" fill="#8a8a8a"></circle><circle cx="525" cy="2175" r="75" fill="#191919"></circle><circle cx="525" cy="2175" r="75" fill="#454545"></circle><circle cx="525" cy="2325" r="75" fill="#fafafa"></circle><circle cx="525" cy="2325" r="75" fill="#212121"></circle><circle cx="675" cy="75" r="75" fill="#818181"></circle><circle cx="675" cy="75" r="75" fill="#8d8d8d"></circle><circle cx="675" cy="225" r="75" fill="#6b6b6b"></circle><circle cx="675" cy="225" r="75" fill="#d6d6d6"></circle><circle cx="675" cy="375" r="75" fill="#f0f0f0"></circle><circle cx="675" cy="375" r="75" fill="#262626"></circle><circle cx="675" cy="525" r="75" fill="#f7f7f7"></circle><circle cx="675" cy="525" r="75" fill="#818181"></circle><circle cx="825" cy="75" r="75" fill="#cfcfcf"></circle><circle cx="825" cy="75" r="75" fill="#505050"></circle><circle cx="825" cy="225" r="75" fill="#101010"></circle><circle cx="825" cy="225" r="75" fill="#c4c4c4"></circle><circle cx="825" cy="375" r="75" fill="#d3d3d3"></circle><circle cx="825" cy="375" r="75" fill="#7c7c7c"></circle><circle cx="825" cy="525" r="75" fill="#585858"></circle><circle cx="825" cy="525" r="75" fill="#b6b6b6"></circle><circle cx="975" cy="75" r="75" fill="#eaeaea"></circle><circle cx="975" cy="75" r="75" fill="#747474"></circle><circle cx="975" cy="225" r="75" fill="#727272"></circle><circle cx="975" cy="225" r="75" fill="#808080"></circle><circle cx="975" cy="375" r="75" fill="#f2f2f2"></circle><circle cx="975" cy="375" r="75" fill="#aeaeae"></circle><circle cx="975" cy="525" r="75" fill="#424242"></circle><circle cx="975" cy="525" r="75" fill="#9c9c9c"></circle><circle cx="1125" cy="75" r="75" fill="#c0c0c0"></circle><circle cx="1125" cy="75" r="75" fill="#555555"></circle><circle cx="1125" cy="225" r="75" fill="#d4d4d4"></circle><circle cx="1125" cy="225" r="75" fill="#656565"></circle><circle cx="1125" cy="375" r="75" fill="#050505"></circle><circle cx="1125" cy="375" r="75" fill="#3a3a3a"></circle><circle cx="1125" cy="525" r="75" fill="#dcdcdc"></circle><circle cx="1125" cy="525" r="75" fill="#4f4f4f"></circle><circle cx="900" cy="900" r="300" fill="#f6f6f6"></circle><circle cx="900" cy="900" r="150" fill="#565656"></circle><circle cx="900" cy="900" r="300" fill="#8c8c8c"></circle><circle cx="900" cy="900" r="75" fill="#747474"></circle><circle cx="750" cy="1350" r="150" fill="#1a1a1a"></circle><circle cx="750" cy="1350" r="150" fill="#121212"></circle><circle cx="750" cy="1650" r="150" fill="#eaeaea"></circle><circle cx="750" cy="1650" r="150" fill="#676767"></circle><circle cx="1050" cy="1350" r="150" fill="#2a2a2a"></circle><circle cx="1050" cy="1350" r="150" fill="#727272"></circle><circle cx="1050" cy="1650" r="150" fill="#a2a2a2"></circle><circle cx="1050" cy="1650" r="150" fill="#7c7c7c"></circle><circle cx="675" cy="1875" r="75" fill="#606060"></circle><circle cx="675" cy="1875" r="75" fill="#919191"></circle><circle cx="675" cy="2025" r="75" fill="#212121"></circle><circle cx="675" cy="2025" r="75" fill="#f6f6f6"></circle><circle cx="675" cy="2175" r="75" fill="#f7f7f7"></circle><circle cx="675" cy="2175" r="75" fill="#3d3d3d"></circle><circle cx="675" cy="2325" r="75" fill="#c7c7c7"></circle><circle cx="675" cy="2325" r="75" fill="#d6d6d6"></circle><circle cx="825" cy="1875" r="75" fill="#f4f4f4"></circle><circle cx="825" cy="1875" r="75" fill="#666666"></circle><circle cx="825" cy="2025" r="75" fill="#747474"></circle><circle cx="825" cy="2025" r="75" fill="#e7e7e7"></circle><circle cx="825" cy="2175" r="75" fill="#6d6d6d"></circle><circle cx="825" cy="2175" r="75" fill="#ededed"></circle><circle cx="825" cy="2325" r="75" fill="#5e5e5e"></circle><circle cx="825" cy="2325" r="75" fill="#848484"></circle><circle cx="975" cy="1875" r="75" fill="#393939"></circle><circle cx="975" cy="1875" r="75" fill="#f3f3f3"></circle><circle cx="975" cy="2025" r="75" fill="#797979"></circle><circle cx="975" cy="2025" r="75" fill="#a3a3a3"></circle><circle cx="975" cy="2175" r="75" fill="#c2c2c2"></circle><circle cx="975" cy="2175" r="75" fill="#a6a6a6"></circle><circle cx="975" cy="2325" r="75" fill="#5f5f5f"></circle><circle cx="975" cy="2325" r="75" fill="#353535"></circle><circle cx="1125" cy="1875" r="75" fill="#c4c4c4"></circle><circle cx="1125" cy="1875" r="75" fill="#888888"></circle><circle cx="1125" cy="2025" r="75" fill="#575757"></circle><circle cx="1125" cy="2025" r="75" fill="#9e9e9e"></circle><circle cx="1125" cy="2175" r="75" fill="#838383"></circle><circle cx="1125" cy="2175" r="75" fill="#1e1e1e"></circle><circle cx="1125" cy="2325" r="75" fill="#000000"></circle><circle cx="1125" cy="2325" r="75" fill="#c0c0c0"></circle><circle cx="1500" cy="300" r="300" fill="#d0d0d0"></circle><circle cx="1500" cy="300" r="300" fill="#c3c3c3"></circle><circle cx="1500" cy="300" r="75" fill="#757575"></circle><circle cx="1500" cy="300" r="150" fill="#a7a7a7"></circle><circle cx="1350" cy="750" r="150" fill="#838383"></circle><circle cx="1350" cy="750" r="150" fill="#575757"></circle><circle cx="1350" cy="1050" r="150" fill="#dfdfdf"></circle><circle cx="1350" cy="1050" r="150" fill="#7e7e7e"></circle><circle cx="1650" cy="750" r="150" fill="#c4c4c4"></circle><circle cx="1650" cy="750" r="150" fill="#525252"></circle><circle cx="1650" cy="1050" r="150" fill="#595959"></circle><circle cx="1650" cy="1050" r="150" fill="#e5e5e5"></circle><circle cx="1350" cy="1350" r="150" fill="#969696"></circle><circle cx="1350" cy="1350" r="150" fill="#797979"></circle><circle cx="1350" cy="1650" r="150" fill="#3e3e3e"></circle><circle cx="1350" cy="1650" r="150" fill="#fdfdfd"></circle><circle cx="1650" cy="1350" r="150" fill="#0a0a0a"></circle><circle cx="1650" cy="1350" r="150" fill="#9a9a9a"></circle><circle cx="1650" cy="1650" r="150" fill="#646464"></circle><circle cx="1650" cy="1650" r="150" fill="#f3f3f3"></circle><circle cx="1500" cy="2100" r="300" fill="#272727"></circle><circle cx="1500" cy="2100" r="300" fill="#707070"></circle><circle cx="1500" cy="2100" r="75" fill="#6d6d6d"></circle><circle cx="1500" cy="2100" r="150" fill="#242424"></circle><circle cx="2100" cy="300" r="300" fill="#0b0b0b"></circle><circle cx="2100" cy="300" r="300" fill="#a2a2a2"></circle><circle cx="2100" cy="300" r="75" fill="#050505"></circle><circle cx="2100" cy="300" r="150" fill="#979797"></circle><circle cx="1950" cy="750" r="150" fill="#dcdcdc"></circle><circle cx="1950" cy="750" r="150" fill="#696969"></circle><circle cx="1950" cy="1050" r="150" fill="#888888"></circle><circle cx="1950" cy="1050" r="150" fill="#404040"></circle><circle cx="2250" cy="750" r="150" fill="#2a2a2a"></circle><circle cx="2250" cy="750" r="150" fill="#868686"></circle><circle cx="2250" cy="1050" r="150" fill="#f2f2f2"></circle><circle cx="2250" cy="1050" r="150" fill="#d2d2d2"></circle><circle cx="2100" cy="1500" r="300" fill="#fefefe"></circle><circle cx="2100" cy="1500" r="300" fill="#e6e6e6"></circle><circle cx="2100" cy="1500" r="75" fill="#f5f5f5"></circle><circle cx="2100" cy="1500" r="150" fill="#2a2a2a"></circle><circle cx="1875" cy="1875" r="75" fill="#6b6b6b"></circle><circle cx="1875" cy="1875" r="75" fill="#212121"></circle><circle cx="1875" cy="2025" r="75" fill="#0c0c0c"></circle><circle cx="1875" cy="2025" r="75" fill="#838383"></circle><circle cx="1875" cy="2175" r="75" fill="#b0b0b0"></circle><circle cx="1875" cy="2175" r="75" fill="#f4f4f4"></circle><circle cx="1875" cy="2325" r="75" fill="#5a5a5a"></circle><circle cx="1875" cy="2325" r="75" fill="#a0a0a0"></circle><circle cx="2025" cy="1875" r="75" fill="#b3b3b3"></circle><circle cx="2025" cy="1875" r="75" fill="#dbdbdb"></circle><circle cx="2025" cy="2025" r="75" fill="#efefef"></circle><circle cx="2025" cy="2025" r="75" fill="#acacac"></circle><circle cx="2025" cy="2175" r="75" fill="#d1d1d1"></circle><circle cx="2025" cy="2175" r="75" fill="#797979"></circle><circle cx="2025" cy="2325" r="75" fill="#464646"></circle><circle cx="2025" cy="2325" r="75" fill="#d9d9d9"></circle><circle cx="2175" cy="1875" r="75" fill="#fcfcfc"></circle><circle cx="2175" cy="1875" r="75" fill="#fbfbfb"></circle><circle cx="2175" cy="2025" r="75" fill="#c5c5c5"></circle><circle cx="2175" cy="2025" r="75" fill="#f4f4f4"></circle><circle cx="2175" cy="2175" r="75" fill="#e8e8e8"></circle><circle cx="2175" cy="2175" r="75" fill="#eeeeee"></circle><circle cx="2175" cy="2325" r="75" fill="#474747"></circle><circle cx="2175" cy="2325" r="75" fill="#858585"></circle><circle cx="2325" cy="1875" r="75" fill="#d8d8d8"></circle><circle cx="2325" cy="1875" r="75" fill="#c9c9c9"></circle><circle cx="2325" cy="2025" r="75" fill="#2e2e2e"></circle><circle cx="2325" cy="2025" r="75" fill="#585858"></circle><circle cx="2325" cy="2175" r="75" fill="#8f8f8f"></circle><circle cx="2325" cy="2175" r="75" fill="#f3f3f3"></circle><circle cx="2325" cy="2325" r="75" fill="#d3d3d3"></circle><circle cx="2325" cy="2325" r="75" fill="#0b0b0b"></circle><circle cx="2550" cy="150" r="150" fill="#191919"></circle><circle cx="2550" cy="150" r="150" fill="#f9f9f9"></circle><circle cx="2550" cy="450" r="150" fill="#b5b5b5"></circle><circle cx="2550" cy="450" r="150" fill="#5c5c5c"></circle><circle cx="2850" cy="150" r="150" fill="#b7b7b7"></circle><circle cx="2850" cy="150" r="150" fill="#bcbcbc"></circle><circle cx="2850" cy="450" r="150" fill="#141414"></circle><circle cx="2850" cy="450" r="150" fill="#191919"></circle><circle cx="2550" cy="750" r="150" fill="#929292"></circle><circle cx="2550" cy="750" r="150" fill="#cccccc"></circle><circle cx="2550" cy="1050" r="150" fill="#a2a2a2"></circle><circle cx="2550" cy="1050" r="150" fill="#090909"></circle><circle cx="2850" cy="750" r="150" fill="#dadada"></circle><circle cx="2850" cy="750" r="150" fill="#111111"></circle><circle cx="2850" cy="1050" r="150" fill="#2a2a2a"></circle><circle cx="2850" cy="1050" r="150" fill="#f0f0f0"></circle><circle cx="2700" cy="1500" r="300" fill="#3a3a3a"></circle><circle cx="2700" cy="1500" r="300" fill="#808080"></circle><circle cx="2700" cy="1500" r="75" fill="#0f0f0f"></circle><circle cx="2700" cy="1500" r="150" fill="#393939"></circle><circle cx="2700" cy="2100" r="300" fill="#c0c0c0"></circle><circle cx="2700" cy="2100" r="300" fill="#474747"></circle><circle cx="2700" cy="2100" r="75" fill="#0e0e0e"></circle><circle cx="2700" cy="2100" r="150" fill="#f3f3f3"></circle><circle cx="3075" cy="75" r="75" fill="#2a2a2a"></circle><circle cx="3075" cy="75" r="75" fill="#d1d1d1"></circle><circle cx="3075" cy="225" r="75" fill="#f7f7f7"></circle><circle cx="3075" cy="225" r="75" fill="#666666"></circle><circle cx="3075" cy="375" r="75" fill="#626262"></circle><circle cx="3075" cy="375" r="75" fill="#6e6e6e"></circle><circle cx="3075" cy="525" r="75" fill="#242424"></circle><circle cx="3075" cy="525" r="75" fill="#696969"></circle><circle cx="3225" cy="75" r="75" fill="#3a3a3a"></circle><circle cx="3225" cy="75" r="75" fill="#525252"></circle><circle cx="3225" cy="225" r="75" fill="#585858"></circle><circle cx="3225" cy="225" r="75" fill="#c9c9c9"></circle><circle cx="3225" cy="375" r="75" fill="#373737"></circle><circle cx="3225" cy="375" r="75" fill="#020202"></circle><circle cx="3225" cy="525" r="75" fill="#fcfcfc"></circle><circle cx="3225" cy="525" r="75" fill="#5c5c5c"></circle><circle cx="3375" cy="75" r="75" fill="#7f7f7f"></circle><circle cx="3375" cy="75" r="75" fill="#d1d1d1"></circle><circle cx="3375" cy="225" r="75" fill="#d7d7d7"></circle><circle cx="3375" cy="225" r="75" fill="#fafafa"></circle><circle cx="3375" cy="375" r="75" fill="#3d3d3d"></circle><circle cx="3375" cy="375" r="75" fill="#f5f5f5"></circle><circle cx="3375" cy="525" r="75" fill="#848484"></circle><circle cx="3375" cy="525" r="75" fill="#ededed"></circle><circle cx="3525" cy="75" r="75" fill="#bdbdbd"></circle><circle cx="3525" cy="75" r="75" fill="#9f9f9f"></circle><circle cx="3525" cy="225" r="75" fill="#cbcbcb"></circle><circle cx="3525" cy="225" r="75" fill="#f8f8f8"></circle><circle cx="3525" cy="375" r="75" fill="#797979"></circle><circle cx="3525" cy="375" r="75" fill="#9b9b9b"></circle><circle cx="3525" cy="525" r="75" fill="#050505"></circle><circle cx="3525" cy="525" r="75" fill="#595959"></circle><circle cx="3075" cy="675" r="75" fill="#cfcfcf"></circle><circle cx="3075" cy="675" r="75" fill="#808080"></circle><circle cx="3075" cy="825" r="75" fill="#0e0e0e"></circle><circle cx="3075" cy="825" r="75" fill="#f2f2f2"></circle><circle cx="3075" cy="975" r="75" fill="#c8c8c8"></circle><circle cx="3075" cy="975" r="75" fill="#f5f5f5"></circle><circle cx="3075" cy="1125" r="75" fill="#565656"></circle><circle cx="3075" cy="1125" r="75" fill="#242424"></circle><circle cx="3225" cy="675" r="75" fill="#9d9d9d"></circle><circle cx="3225" cy="675" r="75" fill="#f9f9f9"></circle><circle cx="3225" cy="825" r="75" fill="#d2d2d2"></circle><circle cx="3225" cy="825" r="75" fill="#d4d4d4"></circle><circle cx="3225" cy="975" r="75" fill="#c4c4c4"></circle><circle cx="3225" cy="975" r="75" fill="#a4a4a4"></circle><circle cx="3225" cy="1125" r="75" fill="#464646"></circle><circle cx="3225" cy="1125" r="75" fill="#f8f8f8"></circle><circle cx="3375" cy="675" r="75" fill="#575757"></circle><circle cx="3375" cy="675" r="75" fill="#f0f0f0"></circle><circle cx="3375" cy="825" r="75" fill="#515151"></circle><circle cx="3375" cy="825" r="75" fill="#232323"></circle><circle cx="3375" cy="975" r="75" fill="#3e3e3e"></circle><circle cx="3375" cy="975" r="75" fill="#b9b9b9"></circle><circle cx="3375" cy="1125" r="75" fill="#c3c3c3"></circle><circle cx="3375" cy="1125" r="75" fill="#151515"></circle><circle cx="3525" cy="675" r="75" fill="#606060"></circle><circle cx="3525" cy="675" r="75" fill="#cbcbcb"></circle><circle cx="3525" cy="825" r="75" fill="#dddddd"></circle><circle cx="3525" cy="825" r="75" fill="#5e5e5e"></circle><circle cx="3525" cy="975" r="75" fill="#999999"></circle><circle cx="3525" cy="975" r="75" fill="#000000"></circle><circle cx="3525" cy="1125" r="75" fill="#ffffff"></circle><circle cx="3525" cy="1125" r="75" fill="#151515"></circle><circle cx="3300" cy="1500" r="300" fill="#b0b0b0"></circle><circle cx="3300" cy="1500" r="300" fill="#252525"></circle><circle cx="3300" cy="1500" r="75" fill="#f9f9f9"></circle><circle cx="3300" cy="1500" r="150" fill="#8b8b8b"></circle><circle cx="3300" cy="2100" r="300" fill="#3d3d3d"></circle><circle cx="3300" cy="2100" r="300" fill="#6e6e6e"></circle><circle cx="3300" cy="2100" r="75" fill="#d6d6d6"></circle><circle cx="3300" cy="2100" r="150" fill="#414141"></circle><circle cx="3900" cy="300" r="300" fill="#5f5f5f"></circle><circle cx="3900" cy="300" r="150" fill="#9e9e9e"></circle><circle cx="3900" cy="300" r="300" fill="#a5a5a5"></circle><circle cx="3900" cy="300" r="75" fill="#ededed"></circle><circle cx="3900" cy="900" r="300" fill="#909090"></circle><circle cx="3900" cy="900" r="150" fill="#f0f0f0"></circle><circle cx="3900" cy="900" r="300" fill="#5a5a5a"></circle><circle cx="3900" cy="900" r="75" fill="#dadada"></circle><circle cx="3900" cy="1500" r="300" fill="#101010"></circle><circle cx="3900" cy="1500" r="150" fill="#0d0d0d"></circle><circle cx="3900" cy="1500" r="300" fill="#bdbdbd"></circle><circle cx="3900" cy="1500" r="75" fill="#727272"></circle><circle cx="3900" cy="2100" r="300" fill="#8d8d8d"></circle><circle cx="3900" cy="2100" r="150" fill="#c3c3c3"></circle><circle cx="3900" cy="2100" r="300" fill="#dcdcdc"></circle><circle cx="3900" cy="2100" r="75" fill="#d3d3d3"></circle><circle cx="4275" cy="75" r="75" fill="#595959"></circle><circle cx="4275" cy="75" r="75" fill="#fefefe"></circle><circle cx="4275" cy="225" r="75" fill="#292929"></circle><circle cx="4275" cy="225" r="75" fill="#3e3e3e"></circle><circle cx="4275" cy="375" r="75" fill="#d0d0d0"></circle><circle cx="4275" cy="375" r="75" fill="#606060"></circle><circle cx="4275" cy="525" r="75" fill="#e0e0e0"></circle><circle cx="4275" cy="525" r="75" fill="#bebebe"></circle><circle cx="4425" cy="75" r="75" fill="#f8f8f8"></circle><circle cx="4425" cy="75" r="75" fill="#424242"></circle><circle cx="4425" cy="225" r="75" fill="#a7a7a7"></circle><circle cx="4425" cy="225" r="75" fill="#f2f2f2"></circle><circle cx="4425" cy="375" r="75" fill="#0d0d0d"></circle><circle cx="4425" cy="375" r="75" fill="#9d9d9d"></circle><circle cx="4425" cy="525" r="75" fill="#646464"></circle><circle cx="4425" cy="525" r="75" fill="#2d2d2d"></circle><circle cx="4575" cy="75" r="75" fill="#f1f1f1"></circle><circle cx="4575" cy="75" r="75" fill="#fafafa"></circle><circle cx="4575" cy="225" r="75" fill="#1d1d1d"></circle><circle cx="4575" cy="225" r="75" fill="#d6d6d6"></circle><circle cx="4575" cy="375" r="75" fill="#d1d1d1"></circle><circle cx="4575" cy="375" r="75" fill="#f1f1f1"></circle><circle cx="4575" cy="525" r="75" fill="#9e9e9e"></circle><circle cx="4575" cy="525" r="75" fill="#cdcdcd"></circle><circle cx="4725" cy="75" r="75" fill="#999999"></circle><circle cx="4725" cy="75" r="75" fill="#323232"></circle><circle cx="4725" cy="225" r="75" fill="#e1e1e1"></circle><circle cx="4725" cy="225" r="75" fill="#595959"></circle><circle cx="4725" cy="375" r="75" fill="#616161"></circle><circle cx="4725" cy="375" r="75" fill="#dadada"></circle><circle cx="4725" cy="525" r="75" fill="#dbdbdb"></circle><circle cx="4725" cy="525" r="75" fill="#6f6f6f"></circle><circle cx="4500" cy="900" r="300" fill="#acacac"></circle><circle cx="4500" cy="900" r="300" fill="#858585"></circle><circle cx="4500" cy="900" r="150" fill="#cfcfcf"></circle><circle cx="4500" cy="900" r="75" fill="#7d7d7d"></circle><circle cx="4275" cy="1275" r="75" fill="#dcdcdc"></circle><circle cx="4275" cy="1275" r="75" fill="#e0e0e0"></circle><circle cx="4275" cy="1425" r="75" fill="#848484"></circle><circle cx="4275" cy="1425" r="75" fill="#848484"></circle><circle cx="4275" cy="1575" r="75" fill="#f7f7f7"></circle><circle cx="4275" cy="1575" r="75" fill="#656565"></circle><circle cx="4275" cy="1725" r="75" fill="#5f5f5f"></circle><circle cx="4275" cy="1725" r="75" fill="#131313"></circle><circle cx="4425" cy="1275" r="75" fill="#bfbfbf"></circle><circle cx="4425" cy="1275" r="75" fill="#080808"></circle><circle cx="4425" cy="1425" r="75" fill="#626262"></circle><circle cx="4425" cy="1425" r="75" fill="#bcbcbc"></circle><circle cx="4425" cy="1575" r="75" fill="#464646"></circle><circle cx="4425" cy="1575" r="75" fill="#acacac"></circle><circle cx="4425" cy="1725" r="75" fill="#353535"></circle><circle cx="4425" cy="1725" r="75" fill="#eaeaea"></circle><circle cx="4575" cy="1275" r="75" fill="#fefefe"></circle><circle cx="4575" cy="1275" r="75" fill="#1d1d1d"></circle><circle cx="4575" cy="1425" r="75" fill="#d9d9d9"></circle><circle cx="4575" cy="1425" r="75" fill="#d0d0d0"></circle><circle cx="4575" cy="1575" r="75" fill="#7f7f7f"></circle><circle cx="4575" cy="1575" r="75" fill="#f3f3f3"></circle><circle cx="4575" cy="1725" r="75" fill="#6a6a6a"></circle><circle cx="4575" cy="1725" r="75" fill="#8b8b8b"></circle><circle cx="4725" cy="1275" r="75" fill="#454545"></circle><circle cx="4725" cy="1275" r="75" fill="#080808"></circle><circle cx="4725" cy="1425" r="75" fill="#666666"></circle><circle cx="4725" cy="1425" r="75" fill="#bcbcbc"></circle><circle cx="4725" cy="1575" r="75" fill="#0c0c0c"></circle><circle cx="4725" cy="1575" r="75" fill="#4d4d4d"></circle><circle cx="4725" cy="1725" r="75" fill="#f4f4f4"></circle><circle cx="4725" cy="1725" r="75" fill="#878787"></circle><circle cx="4275" cy="1875" r="75" fill="#dddddd"></circle><circle cx="4275" cy="1875" r="75" fill="#f8f8f8"></circle><circle cx="4275" cy="2025" r="75" fill="#cccccc"></circle><circle cx="4275" cy="2025" r="75" fill="#f1f1f1"></circle><circle cx="4275" cy="2175" r="75" fill="#404040"></circle><circle cx="4275" cy="2175" r="75" fill="#8a8a8a"></circle><circle cx="4275" cy="2325" r="75" fill="#4f4f4f"></circle><circle cx="4275" cy="2325" r="75" fill="#444444"></circle><circle cx="4425" cy="1875" r="75" fill="#f7f7f7"></circle><circle cx="4425" cy="1875" r="75" fill="#7e7e7e"></circle><circle cx="4425" cy="2025" r="75" fill="#f2f2f2"></circle><circle cx="4425" cy="2025" r="75" fill="#767676"></circle><circle cx="4425" cy="2175" r="75" fill="#efefef"></circle><circle cx="4425" cy="2175" r="75" fill="#fefefe"></circle><circle cx="4425" cy="2325" r="75" fill="#2c2c2c"></circle><circle cx="4425" cy="2325" r="75" fill="#696969"></circle><circle cx="4575" cy="1875" r="75" fill="#e2e2e2"></circle><circle cx="4575" cy="1875" r="75" fill="#111111"></circle><circle cx="4575" cy="2025" r="75" fill="#f5f5f5"></circle><circle cx="4575" cy="2025" r="75" fill="#f4f4f4"></circle><circle cx="4575" cy="2175" r="75" fill="#121212"></circle><circle cx="4575" cy="2175" r="75" fill="#acacac"></circle><circle cx="4575" cy="2325" r="75" fill="#d2d2d2"></circle><circle cx="4575" cy="2325" r="75" fill="#383838"></circle><circle cx="4725" cy="1875" r="75" fill="#656565"></circle><circle cx="4725" cy="1875" r="75" fill="#727272"></circle><circle cx="4725" cy="2025" r="75" fill="#444444"></circle><circle cx="4725" cy="2025" r="75" fill="#e4e4e4"></circle><circle cx="4725" cy="2175" r="75" fill="#ababab"></circle><circle cx="4725" cy="2175" r="75" fill="#a4a4a4"></circle><circle cx="4725" cy="2325" r="75" fill="#303030"></circle><circle cx="4725" cy="2325" r="75" fill="#fdfdfd"></circle></g></svg>