<svg version="1.1" xmlns="http://www.w3.org/2000/svg" xmlns:xlink="http://www.w3.org/1999/xlink" width="2400" height="2400" viewBox="0,0,2400,2400"><g fill="none" fill-rule="nonzero" stroke="none" stroke-width="1" stroke-linecap="butt" stroke-linejoin="miter" stroke-miterlimit="10" stroke-dasharray="" stroke-dashoffset="0" font-family="none" font-weight="none" font-size="none" text-anchor="none" style="mix-blend-mode: normal"><g><rect x="0" y="0" width="150" height="150" fill="#f9c6ac"></rect><rect x="0" y="150" width="150" height="150" fill="#7fb9d7"></rect><rect x="0" y="300" width="150" height="150" fill="#f5a988"></rect><rect x="0" y="450" width="150" height="150" fill="#fbd1ba"></rect><rect x="150" y="0" width="150" height="150" fill="#98c8e0"></rect><rect x="150" y="150" width="150" height="150" fill="#fae8de"></rect><rect x="150" y="300" width="150" height="150" fill="#4f9ac7"></rect><rect x="150" y="450" width="150" height="150" fill="#f5ab89"></rect><rect x="300" y="0" width="150" height="150" fill="#aed3e6"></rect><rect x="300" y="150" width="150" height="150" fill="#b4d6e8"></rect><rect x="300" y="300" width="150" height="150" fill="#f7b799"></rect><rect x="300" y="450" width="150" height="150" fill="#e37d63"></rect><rect x="450" y="0" width="150" height="150" fill="#4191c2"></rect><rect x="450" y="150" width="150" height="150" fill="#0b3b71"></rect><rect x="450" y="300" width="150" height="150" fill="#0c3e74"></rect><rect x="450" y="450" width="150" height="150" fill="#960f26"></rect></g><rect x="0" y="0" width="150" height="150" fill="#7c0722"></rect><rect x="37.5" y="37.5" width="75" height="75" fill="#b6202f"></rect><rect x="0" y="150" width="150" height="150" fill="#ddebf2"></rect><rect x="37.5" y="187.5" width="75" height="75" fill="#f8f2ef"></rect><rect x="0" y="300" width="150" height="150" fill="#fbd2bb"></rect><rect x="37.5" y="337.5" width="75" height="75" fill="#f8bda0"></rect><rect x="0" y="450" width="150" height="150" fill="#63a7ce"></rect><rect x="37.5" y="487.5" width="75" height="75" fill="#509bc7"></rect><rect x="150" y="0" width="150" height="150" fill="#de745c"></rect><rect x="187.5" y="37.5" width="75" height="75" fill="#fac9b0"></rect><rect x="150" y="150" width="150" height="150" fill="#f4f6f6"></rect><rect x="187.5" y="187.5" width="75" height="75" fill="#bc2c35"></rect><rect x="150" y="300" width="150" height="150" fill="#4d99c6"></rect><rect x="187.5" y="337.5" width="75" height="75" fill="#327db8"></rect><rect x="150" y="450" width="150" height="150" fill="#185595"></rect><rect x="187.5" y="487.5" width="75" height="75" fill="#f19d7c"></rect><rect x="300" y="0" width="150" height="150" fill="#d7624f"></rect><rect x="337.5" y="37.5" width="75" height="75" fill="#f8bda0"></rect><rect x="300" y="150" width="150" height="150" fill="#da6853"></rect><rect x="337.5" y="187.5" width="75" height="75" fill="#d86450"></rect><rect x="300" y="300" width="150" height="150" fill="#2065aa"></rect><rect x="337.5" y="337.5" width="75" height="75" fill="#e8896d"></rect><rect x="300" y="450" width="150" height="150" fill="#eaf1f5"></rect><rect x="337.5" y="487.5" width="75" height="75" fill="#e4eef4"></rect><rect x="450" y="0" width="150" height="150" fill="#f8f3f0"></rect><rect x="487.5" y="37.5" width="75" height="75" fill="#134b86"></rect><rect x="450" y="150" width="150" height="150" fill="#fac9b0"></rect><rect x="487.5" y="187.5" width="75" height="75" fill="#195695"></rect><rect x="450" y="300" width="150" height="150" fill="#76b3d4"></rect><rect x="487.5" y="337.5" width="75" height="75" fill="#b51d2e"></rect><rect x="450" y="450" width="150" height="150" fill="#eef3f5"></rect><rect x="487.5" y="487.5" width="75" height="75" fill="#bedbeb"></rect><g><rect x="0" y="600" width="300" height="300" fill="#fbe3d4"></rect><rect x="0" y="900" width="300" height="300" fill="#4695c4"></rect><rect x="300" y="600" width="300" height="300" fill="#3b88be"></rect><rect x="300" y="900" width="300" height="300" fill="#fdddca"></rect></g><rect x="0" y="600" width="300" height="300" fill="#eb9173"></rect><rect x="75" y="675" width="150" height="150" fill="#fbe3d4"></rect><rect x="0" y="900" width="300" height="300" fill="#dc6d57"></rect><rect x="75" y="975" width="150" height="150" fill="#f7b698"></rect><rect x="300" y="600" width="300" height="300" fill="#92c5de"></rect><rect x="375" y="675" width="150" height="150" fill="#79b5d5"></rect><rect x="300" y="900" width="300" height="300" fill="#a21328"></rect><rect x="375" y="975" width="150" height="150" fill="#65a9cf"></rect><g><rect x="0" y="1200" width="150" height="150" fill="#fae7dc"></rect><rect x="0" y="1350" width="150" height="150" fill="#78b5d5"></rect><rect x="0" y="1500" width="150" height="150" fill="#78b5d5"></rect><rect x="0" y="1650" width="150" height="150" fill="#d5e7f1"></rect><rect x="150" y="1200" width="150" height="150" fill="#f7b89a"></rect><rect x="150" y="1350" width="150" height="150" fill="#91c4de"></rect><rect x="150" y="1500" width="150" height="150" fill="#84bcd9"></rect><rect x="150" y="1650" width="150" height="150" fill="#96c7df"></rect><rect x="300" y="1200" width="150" height="150" fill="#c8433f"></rect><rect x="300" y="1350" width="150" height="150" fill="#0f437c"></rect><rect x="300" y="1500" width="150" height="150" fill="#e0ecf3"></rect><rect x="300" y="1650" width="150" height="150" fill="#f5aa88"></rect><rect x="450" y="1200" width="150" height="150" fill="#dc6f58"></rect><rect x="450" y="1350" width="150" height="150" fill="#185695"></rect><rect x="450" y="1500" width="150" height="150" fill="#4392c3"></rect><rect x="450" y="1650" width="150" height="150" fill="#74b2d4"></rect></g><rect x="0" y="1200" width="150" height="150" fill="#b2182b"></rect><rect x="37.5" y="1237.5" width="75" height="75" fill="#fce1d1"></rect><rect x="0" y="1350" width="150" height="150" fill="#f5ae8d"></rect><rect x="37.5" y="1387.5" width="75" height="75" fill="#dfecf3"></rect><rect x="0" y="1500" width="150" height="150" fill="#800823"></rect><rect x="37.5" y="1537.5" width="75" height="75" fill="#ef9979"></rect><rect x="0" y="1650" width="150" height="150" fill="#bc2c34"></rect><rect x="37.5" y="1687.5" width="75" height="75" fill="#90c4dd"></rect><rect x="150" y="1200" width="150" height="150" fill="#10457e"></rect><rect x="187.5" y="1237.5" width="75" height="75" fill="#c94540"></rect><rect x="150" y="1350" width="150" height="150" fill="#d6604d"></rect><rect x="187.5" y="1387.5" width="75" height="75" fill="#b51d2e"></rect><rect x="150" y="1500" width="150" height="150" fill="#eef3f5"></rect><rect x="187.5" y="1537.5" width="75" height="75" fill="#b6212f"></rect><rect x="150" y="1650" width="150" height="150" fill="#cee3ef"></rect><rect x="187.5" y="1687.5" width="75" height="75" fill="#e0765e"></rect><rect x="300" y="1200" width="150" height="150" fill="#810823"></rect><rect x="337.5" y="1237.5" width="75" height="75" fill="#bb2b34"></rect><rect x="300" y="1350" width="150" height="150" fill="#800823"></rect><rect x="337.5" y="1387.5" width="75" height="75" fill="#7db8d7"></rect><rect x="300" y="1500" width="150" height="150" fill="#0a396d"></rect><rect x="337.5" y="1537.5" width="75" height="75" fill="#d3e6f0"></rect><rect x="300" y="1650" width="150" height="150" fill="#317bb7"></rect><rect x="337.5" y="1687.5" width="75" height="75" fill="#f8f2ef"></rect><rect x="450" y="1200" width="150" height="150" fill="#f8bda1"></rect><rect x="487.5" y="1237.5" width="75" height="75" fill="#e27b62"></rect><rect x="450" y="1350" width="150" height="150" fill="#e7886c"></rect><rect x="487.5" y="1387.5" width="75" height="75" fill="#fdddcb"></rect><rect x="450" y="1500" width="150" height="150" fill="#317bb7"></rect><rect x="487.5" y="1537.5" width="75" height="75" fill="#6aacd0"></rect><rect x="450" y="1650" width="150" height="150" fill="#a7cfe4"></rect><rect x="487.5" y="1687.5" width="75" height="75" fill="#6cadd1"></rect><g><rect x="0" y="1800" width="300" height="300" fill="#e7f0f4"></rect><rect x="0" y="2100" width="300" height="300" fill="#ab162a"></rect><rect x="300" y="1800" width="300" height="300" fill="#5fa5cd"></rect><rect x="300" y="2100" width="300" height="300" fill="#f9efe8"></rect></g><rect x="0" y="1800" width="300" height="300" fill="#7fb9d7"></rect><rect x="75" y="1875" width="150" height="150" fill="#cae1ee"></rect><rect x="0" y="2100" width="300" height="300" fill="#deebf2"></rect><rect x="75" y="2175" width="150" height="150" fill="#3884bb"></rect><rect x="300" y="1800" width="300" height="300" fill="#b61f2e"></rect><rect x="375" y="1875" width="150" height="150" fill="#7ab6d6"></rect><rect x="300" y="2100" width="300" height="300" fill="#3783bb"></rect><rect x="375" y="2175" width="150" height="150" fill="#8c0c25"></rect><g fill="#539dc9"><rect x="600" y="0" width="600" height="600"></rect></g><rect x="600" y="0" width="600" height="600" fill="#aad1e5"></rect><rect x="630" y="30" width="540" height="540" fill="#a9152a"></rect><rect x="660" y="60" width="480" height="480" fill="#fae7db"></rect><rect x="810" y="210" width="180" height="180" fill="#f7f5f4"></rect><rect x="840" y="240" width="120" height="120" fill="#b72230"></rect><rect x="720" y="120" width="360" height="360" fill="#62a7ce"></rect><rect x="780" y="180" width="240" height="240" fill="#bcdaea"></rect><rect x="690" y="90" width="420" height="420" fill="#99c8e0"></rect><rect x="750" y="150" width="300" height="300" fill="#981027"></rect><g><rect x="600" y="600" width="300" height="300" fill="#3b89be"></rect><rect x="600" y="900" width="300" height="300" fill="#c13639"></rect><rect x="900" y="600" width="300" height="300" fill="#7eb8d7"></rect><rect x="900" y="900" width="300" height="300" fill="#b9d9e9"></rect></g><rect x="600" y="600" width="300" height="300" fill="#dbeaf2"></rect><rect x="675" y="675" width="150" height="150" fill="#6eaed2"></rect><rect x="600" y="900" width="300" height="300" fill="#08366a"></rect><rect x="675" y="975" width="150" height="150" fill="#66a9cf"></rect><rect x="900" y="600" width="300" height="300" fill="#f7b596"></rect><rect x="975" y="675" width="150" height="150" fill="#de735c"></rect><rect x="900" y="900" width="300" height="300" fill="#e68469"></rect><rect x="975" y="975" width="150" height="150" fill="#c94640"></rect><g><rect x="600" y="1200" width="300" height="300" fill="#760521"></rect><rect x="600" y="1500" width="300" height="300" fill="#5ba2cb"></rect><rect x="900" y="1200" width="300" height="300" fill="#f3a280"></rect><rect x="900" y="1500" width="300" height="300" fill="#f5ad8c"></rect></g><rect x="600" y="1200" width="300" height="300" fill="#deebf2"></rect><rect x="675" y="1275" width="150" height="150" fill="#c84440"></rect><rect x="600" y="1500" width="300" height="300" fill="#f9f0ea"></rect><rect x="675" y="1575" width="150" height="150" fill="#710321"></rect><rect x="900" y="1200" width="300" height="300" fill="#f2f5f6"></rect><rect x="975" y="1275" width="150" height="150" fill="#81bad8"></rect><rect x="900" y="1500" width="300" height="300" fill="#f9f0eb"></rect><rect x="975" y="1575" width="150" height="150" fill="#519cc8"></rect><g><rect x="600" y="1800" width="300" height="300" fill="#f9c0a5"></rect><rect x="600" y="2100" width="300" height="300" fill="#f9c6ac"></rect><rect x="900" y="1800" width="300" height="300" fill="#246aae"></rect><rect x="900" y="2100" width="300" height="300" fill="#dfecf3"></rect></g><rect x="600" y="1800" width="300" height="300" fill="#69011f"></rect><rect x="675" y="1875" width="150" height="150" fill="#e9f1f4"></rect><rect x="600" y="2100" width="300" height="300" fill="#2268ad"></rect><rect x="675" y="2175" width="150" height="150" fill="#65a8ce"></rect><rect x="900" y="1800" width="300" height="300" fill="#76b3d4"></rect><rect x="975" y="1875" width="150" height="150" fill="#dbeaf2"></rect><rect x="900" y="2100" width="300" height="300" fill="#f4f6f6"></rect><rect x="975" y="2175" width="150" height="150" fill="#a21328"></rect><g fill="#bf3338"><rect x="1200" y="0" width="600" height="600"></rect></g><rect x="1230" y="30" width="540" height="540" fill="#b92732"></rect><rect x="1200" y="0" width="600" height="600" fill="#e5eff4"></rect><rect x="1260" y="60" width="480" height="480" fill="#09376b"></rect><rect x="1440" y="240" width="120" height="120" fill="#cb4a43"></rect><rect x="1410" y="210" width="180" height="180" fill="#e48066"></rect><rect x="1320" y="120" width="360" height="360" fill="#c33a3b"></rect><rect x="1380" y="180" width="240" height="240" fill="#86bdda"></rect><rect x="1350" y="150" width="300" height="300" fill="#4d99c6"></rect><rect x="1290" y="90" width="420" height="420" fill="#750521"></rect><g><rect x="1200" y="600" width="300" height="300" fill="#4595c4"></rect><rect x="1200" y="900" width="300" height="300" fill="#c94741"></rect><rect x="1500" y="600" width="300" height="300" fill="#7bb6d6"></rect><rect x="1500" y="900" width="300" height="300" fill="#246aae"></rect></g><rect x="1200" y="600" width="300" height="300" fill="#981027"></rect><rect x="1275" y="675" width="150" height="150" fill="#1e61a5"></rect><rect x="1200" y="900" width="300" height="300" fill="#e68569"></rect><rect x="1275" y="975" width="150" height="150" fill="#fbe2d4"></rect><rect x="1500" y="600" width="300" height="300" fill="#ddebf2"></rect><rect x="1575" y="675" width="150" height="150" fill="#b41b2c"></rect><rect x="1500" y="900" width="300" height="300" fill="#ed9576"></rect><rect x="1575" y="975" width="150" height="150" fill="#195798"></rect><g><rect x="1200" y="1200" width="300" height="300" fill="#9ccae1"></rect><rect x="1200" y="1500" width="300" height="300" fill="#d55e4c"></rect><rect x="1500" y="1200" width="300" height="300" fill="#063162"></rect><rect x="1500" y="1500" width="300" height="300" fill="#f8c0a4"></rect></g><rect x="1200" y="1200" width="300" height="300" fill="#e27c63"></rect><rect x="1275" y="1275" width="150" height="150" fill="#f9ece4"></rect><rect x="1200" y="1500" width="300" height="300" fill="#d3594a"></rect><rect x="1275" y="1575" width="150" height="150" fill="#fbcdb5"></rect><rect x="1500" y="1200" width="300" height="300" fill="#fae9df"></rect><rect x="1575" y="1275" width="150" height="150" fill="#8f0d25"></rect><rect x="1500" y="1500" width="300" height="300" fill="#fce1d1"></rect><rect x="1575" y="1575" width="150" height="150" fill="#eef3f5"></rect><g fill="#f5ac8b"><rect x="1200" y="1800" width="600" height="600"></rect></g><rect x="1230" y="1830" width="540" height="540" fill="#f8f3f1"></rect><rect x="1200" y="1800" width="600" height="600" fill="#0d3f75"></rect><rect x="1260" y="1860" width="480" height="480" fill="#08376a"></rect><rect x="1440" y="2040" width="120" height="120" fill="#cc4b43"></rect><rect x="1410" y="2010" width="180" height="180" fill="#fdddca"></rect><rect x="1320" y="1920" width="360" height="360" fill="#f6b191"></rect><rect x="1380" y="1980" width="240" height="240" fill="#73b1d3"></rect><rect x="1350" y="1950" width="300" height="300" fill="#e6866a"></rect><rect x="1290" y="1890" width="420" height="420" fill="#e58267"></rect><g fill="#f7f6f5"><rect x="1800" y="0" width="600" height="600"></rect></g><rect x="1800" y="0" width="600" height="600" fill="#fcdfce"></rect><rect x="1830" y="30" width="540" height="540" fill="#97c8e0"></rect><rect x="1920" y="120" width="360" height="360" fill="#ba2832"></rect><rect x="2010" y="210" width="180" height="180" fill="#fcdecd"></rect><rect x="1860" y="60" width="480" height="480" fill="#dd7059"></rect><rect x="1890" y="90" width="420" height="420" fill="#2e77b5"></rect><rect x="1950" y="150" width="300" height="300" fill="#6c0220"></rect><rect x="1980" y="180" width="240" height="240" fill="#5fa5cd"></rect><rect x="2040" y="240" width="120" height="120" fill="#0b3b71"></rect><g><rect x="1800" y="600" width="300" height="300" fill="#b51d2d"></rect><rect x="1800" y="900" width="300" height="300" fill="#b0d4e6"></rect><rect x="2100" y="600" width="300" height="300" fill="#c33b3b"></rect><rect x="2100" y="900" width="300" height="300" fill="#bc2b34"></rect></g><rect x="1800" y="600" width="300" height="300" fill="#8a0b25"></rect><rect x="1875" y="675" width="150" height="150" fill="#ee9878"></rect><rect x="1800" y="900" width="300" height="300" fill="#8f0d25"></rect><rect x="1875" y="975" width="150" height="150" fill="#f5f6f7"></rect><rect x="2100" y="600" width="300" height="300" fill="#cd4e45"></rect><rect x="2175" y="675" width="150" height="150" fill="#780522"></rect><rect x="2100" y="900" width="300" height="300" fill="#f7b597"></rect><rect x="2175" y="975" width="150" height="150" fill="#f7b99c"></rect><g fill="#7bb7d6"><rect x="1800" y="1200" width="600" height="600"></rect></g><rect x="1800" y="1200" width="600" height="600" fill="#95c6df"></rect><rect x="1830" y="1230" width="540" height="540" fill="#e98c6f"></rect><rect x="1920" y="1320" width="360" height="360" fill="#b82431"></rect><rect x="2010" y="1410" width="180" height="180" fill="#1e60a4"></rect><rect x="1860" y="1260" width="480" height="480" fill="#de715a"></rect><rect x="1890" y="1290" width="420" height="420" fill="#910d26"></rect><rect x="1950" y="1350" width="300" height="300" fill="#307ab6"></rect><rect x="1980" y="1380" width="240" height="240" fill="#ca4842"></rect><rect x="2040" y="1440" width="120" height="120" fill="#89bfdb"></rect><g fill="#256baf"><rect x="1800" y="1800" width="600" height="600"></rect></g><rect x="1800" y="1800" width="600" height="600" fill="#8d0c25"></rect><rect x="1830" y="1830" width="540" height="540" fill="#faccb4"></rect><rect x="1920" y="1920" width="360" height="360" fill="#2b73b3"></rect><rect x="2010" y="2010" width="180" height="180" fill="#559ec9"></rect><rect x="1860" y="1860" width="480" height="480" fill="#3079b6"></rect><rect x="1890" y="1890" width="420" height="420" fill="#f2f5f6"></rect><rect x="1950" y="1950" width="300" height="300" fill="#c2393b"></rect><rect x="1980" y="1980" width="240" height="240" fill="#d96652"></rect><rect x="2040" y="2040" width="120" height="120" fill="#d15648"></rect></g></svg>