<svg version="1.1" xmlns="http://www.w3.org/2000/svg" xmlns:xlink="http://www.w3.org/1999/xlink" width="4800" height="2400" viewBox="0,0,4800,2400"><g fill="none" fill-rule="nonzero" stroke="none" stroke-width="1" stroke-linecap="butt" stroke-linejoin="miter" stroke-miterlimit="10" stroke-dasharray="" stroke-dashoffset="0" font-family="none" font-weight="none" font-size="none" text-anchor="none" style="mix-blend-mode: normal"><rect x="0" y="0" width="300" height="300" fill="#f8f3f1"></rect><rect x="0" y="300" width="300" height="300" fill="#0c3e75"></rect><rect x="300" y="0" width="300" height="300" fill="#053061"></rect><rect x="300" y="300" width="300" height="300" fill="#053061"></rect><rect x="150" y="750" width="300" height="300" fill="#195798"></rect><rect x="0" y="600" width="600" height="600" fill="#053061"></rect><rect x="0" y="1200" width="150" height="150" fill="#6d0220"></rect><rect x="0" y="1350" width="150" height="150" fill="#730421"></rect><rect x="0" y="1500" width="150" height="150" fill="#790622"></rect><rect x="0" y="1650" width="150" height="150" fill="#7f0823"></rect><rect x="150" y="1200" width="150" height="150" fill="#850a24"></rect><rect x="150" y="1350" width="150" height="150" fill="#8b0c25"></rect><rect x="150" y="1500" width="150" height="150" fill="#910d26"></rect><rect x="150" y="1650" width="150" height="150" fill="#970f27"></rect><rect x="300" y="1200" width="150" height="150" fill="#9d1128"></rect><rect x="300" y="1350" width="150" height="150" fill="#a31329"></rect><rect x="300" y="1500" width="150" height="150" fill="#a9152a"></rect><rect x="300" y="1650" width="150" height="150" fill="#af172b"></rect><rect x="450" y="1200" width="150" height="150" fill="#b31b2c"></rect><rect x="450" y="1350" width="150" height="150" fill="#b6212f"></rect><rect x="450" y="1500" width="150" height="150" fill="#b92632"></rect><rect x="450" y="1650" width="150" height="150" fill="#bc2c35"></rect><rect x="150" y="1950" width="300" height="300" fill="#10467f"></rect><rect x="0" y="1800" width="600" height="600" fill="#053061"></rect><rect x="600" y="0" width="600" height="600" fill="#991027"></rect><rect x="750" y="150" width="300" height="300" fill="#be3037"></rect><rect x="600" y="600" width="300" height="300" fill="#f8f1ed"></rect><rect x="600" y="900" width="300" height="300" fill="#10467f"></rect><rect x="900" y="600" width="300" height="300" fill="#053061"></rect><rect x="900" y="900" width="300" height="300" fill="#053061"></rect><rect x="600" y="1200" width="300" height="300" fill="#6f0220"></rect><rect x="600" y="1500" width="300" height="300" fill="#760521"></rect><rect x="900" y="1200" width="300" height="300" fill="#7e0723"></rect><rect x="900" y="1500" width="300" height="300" fill="#850a24"></rect><rect x="600" y="1800" width="600" height="600" fill="#0b3b70"></rect><rect x="750" y="1950" width="300" height="300" fill="#053061"></rect><rect x="1200" y="0" width="150" height="150" fill="#870a24"></rect><rect x="1200" y="150" width="150" height="150" fill="#a61429"></rect><rect x="1200" y="300" width="150" height="150" fill="#bb2b34"></rect><rect x="1200" y="450" width="150" height="150" fill="#ca4942"></rect><rect x="1350" y="0" width="150" height="150" fill="#d96752"></rect><rect x="1350" y="150" width="150" height="150" fill="#e68469"></rect><rect x="1350" y="300" width="150" height="150" fill="#f2a17f"></rect><rect x="1350" y="450" width="150" height="150" fill="#f7b89b"></rect><rect x="1500" y="0" width="150" height="150" fill="#fbcfb8"></rect><rect x="1500" y="150" width="150" height="150" fill="#fce1d1"></rect><rect x="1500" y="300" width="150" height="150" fill="#f9ece5"></rect><rect x="1500" y="450" width="150" height="150" fill="#f5f6f7"></rect><rect x="1650" y="0" width="150" height="150" fill="#e6eff4"></rect><rect x="1650" y="150" width="150" height="150" fill="#d6e7f1"></rect><rect x="1650" y="300" width="150" height="150" fill="#bedbeb"></rect><rect x="1650" y="450" width="150" height="150" fill="#a4cee3"></rect><rect x="1200" y="600" width="150" height="150" fill="#7c0722"></rect><rect x="1200" y="750" width="150" height="150" fill="#910d26"></rect><rect x="1200" y="900" width="150" height="150" fill="#a61429"></rect><rect x="1200" y="1050" width="150" height="150" fill="#b6212f"></rect><rect x="1350" y="600" width="150" height="150" fill="#c03539"></rect><rect x="1350" y="750" width="150" height="150" fill="#ca4942"></rect><rect x="1350" y="900" width="150" height="150" fill="#d55d4c"></rect><rect x="1350" y="1050" width="150" height="150" fill="#dd715a"></rect><rect x="1500" y="600" width="150" height="150" fill="#e68469"></rect><rect x="1500" y="750" width="150" height="150" fill="#ee9777"></rect><rect x="1500" y="900" width="150" height="150" fill="#f5a988"></rect><rect x="1500" y="1050" width="150" height="150" fill="#f7b89b"></rect><rect x="1650" y="600" width="150" height="150" fill="#fac8ae"></rect><rect x="1650" y="750" width="150" height="150" fill="#fcd7c1"></rect><rect x="1650" y="900" width="150" height="150" fill="#fce1d1"></rect><rect x="1650" y="1050" width="150" height="150" fill="#fae8de"></rect><rect x="1200" y="1200" width="600" height="600" fill="#da6954"></rect><rect x="1350" y="1350" width="300" height="300" fill="#fbe2d3"></rect><rect x="1200" y="1800" width="300" height="300" fill="#b0172b"></rect><rect x="1200" y="2100" width="300" height="300" fill="#d45c4b"></rect><rect x="1500" y="1800" width="300" height="300" fill="#f19f7d"></rect><rect x="1500" y="2100" width="300" height="300" fill="#fcd5bf"></rect><rect x="1800" y="0" width="150" height="150" fill="#e17a61"></rect><rect x="1800" y="150" width="150" height="150" fill="#f8f0eb"></rect><rect x="1800" y="300" width="150" height="150" fill="#87beda"></rect><rect x="1800" y="450" width="150" height="150" fill="#124a85"></rect><rect x="1950" y="0" width="150" height="150" fill="#053061"></rect><rect x="1950" y="150" width="150" height="150" fill="#053061"></rect><rect x="1950" y="300" width="150" height="150" fill="#053061"></rect><rect x="1950" y="450" width="150" height="150" fill="#053061"></rect><rect x="2100" y="0" width="150" height="150" fill="#053061"></rect><rect x="2100" y="150" width="150" height="150" fill="#053061"></rect><rect x="2100" y="300" width="150" height="150" fill="#053061"></rect><rect x="2100" y="450" width="150" height="150" fill="#053061"></rect><rect x="2250" y="0" width="150" height="150" fill="#053061"></rect><rect x="2250" y="150" width="150" height="150" fill="#053061"></rect><rect x="2250" y="300" width="150" height="150" fill="#053061"></rect><rect x="2250" y="450" width="150" height="150" fill="#053061"></rect><rect x="1800" y="600" width="600" height="600" fill="#0e427a"></rect><rect x="1950" y="750" width="300" height="300" fill="#053061"></rect><rect x="1800" y="1200" width="150" height="150" fill="#6d0220"></rect><rect x="1800" y="1350" width="150" height="150" fill="#730421"></rect><rect x="1800" y="1500" width="150" height="150" fill="#790622"></rect><rect x="1800" y="1650" width="150" height="150" fill="#7f0823"></rect><rect x="1950" y="1200" width="150" height="150" fill="#850a24"></rect><rect x="1950" y="1350" width="150" height="150" fill="#8b0c25"></rect><rect x="1950" y="1500" width="150" height="150" fill="#910d26"></rect><rect x="1950" y="1650" width="150" height="150" fill="#970f27"></rect><rect x="2100" y="1200" width="150" height="150" fill="#9d1128"></rect><rect x="2100" y="1350" width="150" height="150" fill="#a31329"></rect><rect x="2100" y="1500" width="150" height="150" fill="#a9152a"></rect><rect x="2100" y="1650" width="150" height="150" fill="#af172b"></rect><rect x="2250" y="1200" width="150" height="150" fill="#b31b2c"></rect><rect x="2250" y="1350" width="150" height="150" fill="#b6212f"></rect><rect x="2250" y="1500" width="150" height="150" fill="#b92632"></rect><rect x="2250" y="1650" width="150" height="150" fill="#bc2c35"></rect><rect x="1800" y="1800" width="600" height="600" fill="#0d3f75"></rect><rect x="1950" y="1950" width="300" height="300" fill="#053061"></rect><rect x="2400" y="0" width="600" height="600" fill="#16508e"></rect><rect x="2550" y="150" width="300" height="300" fill="#053061"></rect><rect x="2400" y="600" width="600" height="600" fill="#0d3f75"></rect><rect x="2550" y="750" width="300" height="300" fill="#053061"></rect><rect x="2400" y="1200" width="150" height="150" fill="#e27c62"></rect><rect x="2400" y="1350" width="150" height="150" fill="#f8f1ed"></rect><rect x="2400" y="1500" width="150" height="150" fill="#82bbd9"></rect><rect x="2400" y="1650" width="150" height="150" fill="#10467f"></rect><rect x="2550" y="1200" width="150" height="150" fill="#053061"></rect><rect x="2550" y="1350" width="150" height="150" fill="#053061"></rect><rect x="2550" y="1500" width="150" height="150" fill="#053061"></rect><rect x="2550" y="1650" width="150" height="150" fill="#053061"></rect><rect x="2700" y="1200" width="150" height="150" fill="#053061"></rect><rect x="2700" y="1350" width="150" height="150" fill="#053061"></rect><rect x="2700" y="1500" width="150" height="150" fill="#053061"></rect><rect x="2700" y="1650" width="150" height="150" fill="#053061"></rect><rect x="2850" y="1200" width="150" height="150" fill="#053061"></rect><rect x="2850" y="1350" width="150" height="150" fill="#053061"></rect><rect x="2850" y="1500" width="150" height="150" fill="#053061"></rect><rect x="2850" y="1650" width="150" height="150" fill="#053061"></rect><rect x="2400" y="1800" width="300" height="300" fill="#fae7dc"></rect><rect x="2400" y="2100" width="300" height="300" fill="#256baf"></rect><rect x="2700" y="1800" width="300" height="300" fill="#053061"></rect><rect x="2700" y="2100" width="300" height="300" fill="#053061"></rect><rect x="3000" y="0" width="150" height="150" fill="#700320"></rect><rect x="3000" y="150" width="150" height="150" fill="#790622"></rect><rect x="3000" y="300" width="150" height="150" fill="#820923"></rect><rect x="3000" y="450" width="150" height="150" fill="#8b0c25"></rect><rect x="3150" y="0" width="150" height="150" fill="#940e26"></rect><rect x="3150" y="150" width="150" height="150" fill="#9d1128"></rect><rect x="3150" y="300" width="150" height="150" fill="#a61429"></rect><rect x="3150" y="450" width="150" height="150" fill="#af172b"></rect><rect x="3300" y="0" width="150" height="150" fill="#b51e2e"></rect><rect x="3300" y="150" width="150" height="150" fill="#b92632"></rect><rect x="3300" y="300" width="150" height="150" fill="#be2f36"></rect><rect x="3300" y="450" width="150" height="150" fill="#c2383a"></rect><rect x="3450" y="0" width="150" height="150" fill="#c6403e"></rect><rect x="3450" y="150" width="150" height="150" fill="#ca4942"></rect><rect x="3450" y="300" width="150" height="150" fill="#cf5246"></rect><rect x="3450" y="450" width="150" height="150" fill="#d35a4a"></rect><rect x="3000" y="600" width="150" height="150" fill="#e37d63"></rect><rect x="3000" y="750" width="150" height="150" fill="#f8f3ef"></rect><rect x="3000" y="900" width="150" height="150" fill="#7db8d7"></rect><rect x="3000" y="1050" width="150" height="150" fill="#0e4179"></rect><rect x="3150" y="600" width="150" height="150" fill="#053061"></rect><rect x="3150" y="750" width="150" height="150" fill="#053061"></rect><rect x="3150" y="900" width="150" height="150" fill="#053061"></rect><rect x="3150" y="1050" width="150" height="150" fill="#053061"></rect><rect x="3300" y="600" width="150" height="150" fill="#053061"></rect><rect x="3300" y="750" width="150" height="150" fill="#053061"></rect><rect x="3300" y="900" width="150" height="150" fill="#053061"></rect><rect x="3300" y="1050" width="150" height="150" fill="#053061"></rect><rect x="3450" y="600" width="150" height="150" fill="#053061"></rect><rect x="3450" y="750" width="150" height="150" fill="#053061"></rect><rect x="3450" y="900" width="150" height="150" fill="#053061"></rect><rect x="3450" y="1050" width="150" height="150" fill="#053061"></rect><rect x="3150" y="1350" width="300" height="300" fill="#195798"></rect><rect x="3000" y="1200" width="600" height="600" fill="#053061"></rect><rect x="3000" y="1800" width="300" height="300" fill="#720321"></rect><rect x="3000" y="2100" width="300" height="300" fill="#7c0722"></rect><rect x="3300" y="1800" width="300" height="300" fill="#870a24"></rect><rect x="3300" y="2100" width="300" height="300" fill="#910d26"></rect><rect x="3600" y="0" width="150" height="150" fill="#840924"></rect><rect x="3600" y="150" width="150" height="150" fill="#a01228"></rect><rect x="3600" y="300" width="150" height="150" fill="#b72230"></rect><rect x="3600" y="450" width="150" height="150" fill="#c53d3d"></rect><rect x="3750" y="0" width="150" height="150" fill="#d2594a"></rect><rect x="3750" y="150" width="150" height="150" fill="#de735c"></rect><rect x="3750" y="300" width="150" height="150" fill="#ea8e70"></rect><rect x="3750" y="450" width="150" height="150" fill="#f4a785"></rect><rect x="3900" y="0" width="150" height="150" fill="#f8bc9f"></rect><rect x="3900" y="150" width="150" height="150" fill="#fbd0b9"></rect><rect x="3900" y="300" width="150" height="150" fill="#fce0d0"></rect><rect x="3900" y="450" width="150" height="150" fill="#faebe2"></rect><rect x="4050" y="0" width="150" height="150" fill="#f7f5f4"></rect><rect x="4050" y="150" width="150" height="150" fill="#ebf1f5"></rect><rect x="4050" y="300" width="150" height="150" fill="#dceaf2"></rect><rect x="4050" y="450" width="150" height="150" fill="#cce2ef"></rect><rect x="3600" y="600" width="300" height="300" fill="#991027"></rect><rect x="3600" y="900" width="300" height="300" fill="#be3037"></rect><rect x="3900" y="600" width="300" height="300" fill="#d6614e"></rect><rect x="3900" y="900" width="300" height="300" fill="#ea8f71"></rect><rect x="3600" y="1200" width="600" height="600" fill="#b7212f"></rect><rect x="3750" y="1350" width="300" height="300" fill="#de725b"></rect><rect x="3600" y="1800" width="300" height="300" fill="#a11228"></rect><rect x="3600" y="2100" width="300" height="300" fill="#c53f3d"></rect><rect x="3900" y="1800" width="300" height="300" fill="#df755d"></rect><rect x="3900" y="2100" width="300" height="300" fill="#f5a988"></rect><rect x="4200" y="0" width="150" height="150" fill="#8a0b25"></rect><rect x="4200" y="150" width="150" height="150" fill="#ae172a"></rect><rect x="4200" y="300" width="150" height="150" fill="#c13639"></rect><rect x="4200" y="450" width="150" height="150" fill="#d25749"></rect><rect x="4350" y="0" width="150" height="150" fill="#e17860"></rect><rect x="4350" y="150" width="150" height="150" fill="#ef9978"></rect><rect x="4350" y="300" width="150" height="150" fill="#f7b596"></rect><rect x="4350" y="450" width="150" height="150" fill="#fbceb6"></rect><rect x="4500" y="0" width="150" height="150" fill="#fce1d2"></rect><rect x="4500" y="150" width="150" height="150" fill="#f9efe9"></rect><rect x="4500" y="300" width="150" height="150" fill="#f1f4f6"></rect><rect x="4500" y="450" width="150" height="150" fill="#dfebf3"></rect><rect x="4650" y="0" width="150" height="150" fill="#cae1ee"></rect><rect x="4650" y="150" width="150" height="150" fill="#acd2e6"></rect><rect x="4650" y="300" width="150" height="150" fill="#8ec3dd"></rect><rect x="4650" y="450" width="150" height="150" fill="#69abd0"></rect><rect x="4200" y="600" width="150" height="150" fill="#710321"></rect><rect x="4200" y="750" width="150" height="150" fill="#7b0622"></rect><rect x="4200" y="900" width="150" height="150" fill="#840924"></rect><rect x="4200" y="1050" width="150" height="150" fill="#8e0c25"></rect><rect x="4350" y="600" width="150" height="150" fill="#981027"></rect><rect x="4350" y="750" width="150" height="150" fill="#a21328"></rect><rect x="4350" y="900" width="150" height="150" fill="#ab162a"></rect><rect x="4350" y="1050" width="150" height="150" fill="#b31b2c"></rect><rect x="4500" y="600" width="150" height="150" fill="#b82431"></rect><rect x="4500" y="750" width="150" height="150" fill="#bd2e35"></rect><rect x="4500" y="900" width="150" height="150" fill="#c1373a"></rect><rect x="4500" y="1050" width="150" height="150" fill="#c6403e"></rect><rect x="4650" y="600" width="150" height="150" fill="#cb4a42"></rect><rect x="4650" y="750" width="150" height="150" fill="#d05347"></rect><rect x="4650" y="900" width="150" height="150" fill="#d45c4b"></rect><rect x="4650" y="1050" width="150" height="150" fill="#d86651"></rect><rect x="4350" y="1350" width="300" height="300" fill="#ad162a"></rect><rect x="4200" y="1200" width="600" height="600" fill="#d15648"></rect><rect x="4200" y="1800" width="300" height="300" fill="#ae172a"></rect><rect x="4200" y="2100" width="300" height="300" fill="#d25749"></rect><rect x="4500" y="1800" width="300" height="300" fill="#ef9978"></rect><rect x="4500" y="2100" width="300" height="300" fill="#fbceb6"></rect></g></svg>