<svg version="1.1" xmlns="http://www.w3.org/2000/svg" xmlns:xlink="http://www.w3.org/1999/xlink" width="2400" height="2400" viewBox="0,0,2400,2400"><g fill="none" fill-rule="nonzero" stroke="none" stroke-width="none" stroke-linecap="butt" stroke-linejoin="miter" stroke-miterlimit="10" stroke-dasharray="" stroke-dashoffset="0" font-family="none" font-weight="none" font-size="none" text-anchor="none" style="mix-blend-mode: normal"><rect x="0" y="0" width="2400" height="2400" fill="#000000" stroke="#000000" stroke-width="1"></rect><polyline points="0,0 0,150 150,150" fill="#fffac7" stroke="none" stroke-width="0"></polyline><polyline points="37.5,37.5 37.5,112.5 112.5,112.5" fill="#f7f3c7" stroke="none" stroke-width="0"></polyline><polyline points="0,150 0,300 150,300" fill="#fbd8ab" stroke="none" stroke-width="0"></polyline><polyline points="37.5,187.5 37.5,262.5 112.5,262.5" fill="#b6d1df" stroke="none" stroke-width="0"></polyline><polyline points="0,300 0,450 150,450" fill="#ebe1c0" stroke="none" stroke-width="0"></polyline><polyline points="37.5,337.5 37.5,412.5 112.5,412.5" fill="#e5bcbe" stroke="none" stroke-width="0"></polyline><polyline points="0,450 0,600 150,600" fill="#d8c0c7" stroke="none" stroke-width="0"></polyline><polyline points="37.5,487.5 37.5,562.5 112.5,562.5" fill="#fffac7" stroke="none" stroke-width="0"></polyline><polyline points="150,0 150,150 300,150" fill="#ccebc5" stroke="none" stroke-width="0"></polyline><polyline points="187.5,37.5 187.5,112.5 262.5,112.5" fill="#fffac7" stroke="none" stroke-width="0"></polyline><polyline points="150,150 150,300 300,300" fill="#b6d1df" stroke="none" stroke-width="0"></polyline><polyline points="187.5,187.5 187.5,262.5 262.5,262.5" fill="#cfe6ca" stroke="none" stroke-width="0"></polyline><polyline points="150,300 150,450 300,450" fill="#d2e1cf" stroke="none" stroke-width="0"></polyline><polyline points="187.5,337.5 187.5,412.5 262.5,412.5" fill="#c4e1cf" stroke="none" stroke-width="0"></polyline><polyline points="150,450 150,600 300,600" fill="#d5dcd4" stroke="none" stroke-width="0"></polyline><polyline points="187.5,487.5 187.5,562.5 262.5,562.5" fill="#ebe1c0" stroke="none" stroke-width="0"></polyline><polyline points="300,0 300,150 450,150" fill="#feeab7" stroke="none" stroke-width="0"></polyline><polyline points="337.5,37.5 337.5,112.5 412.5,112.5" fill="#e8dcbf" stroke="none" stroke-width="0"></polyline><polyline points="300,150 300,300 450,300" fill="#feeab7" stroke="none" stroke-width="0"></polyline><polyline points="337.5,187.5 337.5,262.5 412.5,262.5" fill="#cfe6ca" stroke="none" stroke-width="0"></polyline><polyline points="300,300 300,450 450,450" fill="#ede4c2" stroke="none" stroke-width="0"></polyline><polyline points="337.5,337.5 337.5,412.5 412.5,412.5" fill="#f7f3c7" stroke="none" stroke-width="0"></polyline><polyline points="300,450 300,600 450,600" fill="#d5dcd4" stroke="none" stroke-width="0"></polyline><polyline points="337.5,487.5 337.5,562.5 412.5,562.5" fill="#feeab7" stroke="none" stroke-width="0"></polyline><polyline points="450,0 450,150 600,150" fill="#feeab7" stroke="none" stroke-width="0"></polyline><polyline points="487.5,37.5 487.5,112.5 562.5,112.5" fill="#ccebc5" stroke="none" stroke-width="0"></polyline><polyline points="450,150 450,300 600,300" fill="#ede4c2" stroke="none" stroke-width="0"></polyline><polyline points="487.5,187.5 487.5,262.5 562.5,262.5" fill="#feeab7" stroke="none" stroke-width="0"></polyline><polyline points="450,300 450,450 600,450" fill="#f7e6ef" stroke="none" stroke-width="0"></polyline><polyline points="487.5,337.5 487.5,412.5 562.5,412.5" fill="#ede4c2" stroke="none" stroke-width="0"></polyline><polyline points="450,450 450,600 600,600" fill="#fffac7" stroke="none" stroke-width="0"></polyline><polyline points="487.5,487.5 487.5,562.5 562.5,562.5" fill="#f7f3c7" stroke="none" stroke-width="0"></polyline><polyline points="0,600 0,900 300,900" fill="#fee2af" stroke="none" stroke-width="0"></polyline><polyline points="75,675 75,825 225,825" fill="#c2dfd1" stroke="none" stroke-width="0"></polyline><polyline points="0,900 0,1200 300,1200" fill="#e6d8c0" stroke="none" stroke-width="0"></polyline><polyline points="75,975 75,1125 225,1125" fill="#b6d1df" stroke="none" stroke-width="0"></polyline><polyline points="300,600 300,900 600,900" fill="#b5cfe1" stroke="none" stroke-width="0"></polyline><polyline points="375,675 375,825 525,825" fill="#fee2af" stroke="none" stroke-width="0"></polyline><polyline points="300,900 300,1200 600,1200" fill="#b5cfe1" stroke="none" stroke-width="0"></polyline><polyline points="375,975 375,1125 525,1125" fill="#dfcce2" stroke="none" stroke-width="0"></polyline><polyline points="0,1200 0,1500 300,1500" fill="#e4ced8" stroke="none" stroke-width="0"></polyline><polyline points="75,1275 75,1425 225,1425" fill="#e7dbbe" stroke="none" stroke-width="0"></polyline><polyline points="0,1500 0,1800 300,1800" fill="#fcfaca" stroke="none" stroke-width="0"></polyline><polyline points="75,1575 75,1725 225,1725" fill="#eae0c0" stroke="none" stroke-width="0"></polyline><polyline points="300,1200 300,1500 600,1500" fill="#feebb8" stroke="none" stroke-width="0"></polyline><polyline points="375,1275 375,1425 525,1425" fill="#f3eec5" stroke="none" stroke-width="0"></polyline><polyline points="300,1500 300,1800 600,1800" fill="#dfcce2" stroke="none" stroke-width="0"></polyline><polyline points="375,1575 375,1725 525,1725" fill="#fcdded" stroke="none" stroke-width="0"></polyline><polyline points="0,1800 0,2100 300,2100" fill="#c6e3cd" stroke="none" stroke-width="0"></polyline><polyline points="75,1875 75,2025 225,2025" fill="#e4ced8" stroke="none" stroke-width="0"></polyline><polyline points="0,2100 0,2400 300,2400" fill="#f5b6b2" stroke="none" stroke-width="0"></polyline><polyline points="75,2175 75,2325 225,2325" fill="#fff4c1" stroke="none" stroke-width="0"></polyline><polyline points="300,1800 300,2100 600,2100" fill="#f5b6b2" stroke="none" stroke-width="0"></polyline><polyline points="375,1875 375,2025 525,2025" fill="#fddbec" stroke="none" stroke-width="0"></polyline><polyline points="300,2100 300,2400 600,2400" fill="#f5f1c6" stroke="none" stroke-width="0"></polyline><polyline points="375,2175 375,2325 525,2325" fill="#f5b6b2" stroke="none" stroke-width="0"></polyline><polyline points="600,0 600,300 900,300" fill="#e0ccdf" stroke="none" stroke-width="0"></polyline><polyline points="675,75 675,225 825,225" fill="#eababb" stroke="none" stroke-width="0"></polyline><polyline points="600,300 600,600 900,600" fill="#e0ccdf" stroke="none" stroke-width="0"></polyline><polyline points="675,375 675,525 825,525" fill="#e4ced8" stroke="none" stroke-width="0"></polyline><polyline points="900,0 900,300 1200,300" fill="#e4ced8" stroke="none" stroke-width="0"></polyline><polyline points="975,75 975,225 1125,225" fill="#d5dcd4" stroke="none" stroke-width="0"></polyline><polyline points="900,300 900,600 1200,600" fill="#eababb" stroke="none" stroke-width="0"></polyline><polyline points="975,375 975,525 1125,525" fill="#fcdbec" stroke="none" stroke-width="0"></polyline><polyline points="-300,-300 -300,2100 2100,2100" fill="#feebb8" stroke="none" stroke-width="0"></polyline><polyline points="300,300 300,1500 1500,1500" fill="#fff2bf" stroke="none" stroke-width="0"></polyline><polyline points="750,750 750,1050 1050,1050" fill="#fee8b5" stroke="none" stroke-width="0"></polyline><polyline points="600,600 600,1200 1200,1200" fill="#fefdcb" stroke="none" stroke-width="0"></polyline><polyline points="600,1200 600,1500 900,1500" fill="#fcdded" stroke="none" stroke-width="0"></polyline><polyline points="675,1275 675,1425 825,1425" fill="#f0e9c3" stroke="none" stroke-width="0"></polyline><polyline points="600,1500 600,1800 900,1800" fill="#f6e9f0" stroke="none" stroke-width="0"></polyline><polyline points="675,1575 675,1725 825,1725" fill="#fbdfed" stroke="none" stroke-width="0"></polyline><polyline points="900,1200 900,1500 1200,1500" fill="#ddcce3" stroke="none" stroke-width="0"></polyline><polyline points="975,1275 975,1425 1125,1425" fill="#fbdfed" stroke="none" stroke-width="0"></polyline><polyline points="900,1500 900,1800 1200,1800" fill="#f0e9c3" stroke="none" stroke-width="0"></polyline><polyline points="975,1575 975,1725 1125,1725" fill="#f6e9f0" stroke="none" stroke-width="0"></polyline><polyline points="600,1800 600,2100 900,2100" fill="#d1e3cd" stroke="none" stroke-width="0"></polyline><polyline points="675,1875 675,2025 825,2025" fill="#d1e3cd" stroke="none" stroke-width="0"></polyline><polyline points="600,2100 600,2400 900,2400" fill="#f2f2f2" stroke="none" stroke-width="0"></polyline><polyline points="675,2175 675,2325 825,2325" fill="#f2d4bd" stroke="none" stroke-width="0"></polyline><polyline points="900,1800 900,2100 1200,2100" fill="#fcfaca" stroke="none" stroke-width="0"></polyline><polyline points="975,1875 975,2025 1125,2025" fill="#bedad6" stroke="none" stroke-width="0"></polyline><polyline points="900,2100 900,2400 1200,2400" fill="#ffffcc" stroke="none" stroke-width="0"></polyline><polyline points="975,2175 975,2325 1125,2325" fill="#f2f2f2" stroke="none" stroke-width="0"></polyline><polyline points="1200,0 1200,300 1500,300" fill="#efd2c3" stroke="none" stroke-width="0"></polyline><polyline points="1275,75 1275,225 1425,225" fill="#fddbec" stroke="none" stroke-width="0"></polyline><polyline points="1200,300 1200,600 1500,600" fill="#fee5b2" stroke="none" stroke-width="0"></polyline><polyline points="1275,375 1275,525 1425,525" fill="#f5b6b2" stroke="none" stroke-width="0"></polyline><polyline points="1500,0 1500,300 1800,300" fill="#cae9c7" stroke="none" stroke-width="0"></polyline><polyline points="1575,75 1575,225 1725,225" fill="#b4cee2" stroke="none" stroke-width="0"></polyline><polyline points="1500,300 1500,600 1800,600" fill="#e9d8c5" stroke="none" stroke-width="0"></polyline><polyline points="1575,375 1575,525 1725,525" fill="#cceac6" stroke="none" stroke-width="0"></polyline><polyline points="1200,600 1200,900 1500,900" fill="#fefdcb" stroke="none" stroke-width="0"></polyline><polyline points="1275,675 1275,825 1425,825" fill="#feeab7" stroke="none" stroke-width="0"></polyline><polyline points="1200,900 1200,1200 1500,1200" fill="#e9debf" stroke="none" stroke-width="0"></polyline><polyline points="1275,975 1275,1125 1425,1125" fill="#d8c0c7" stroke="none" stroke-width="0"></polyline><polyline points="1500,600 1500,900 1800,900" fill="#f7e8ef" stroke="none" stroke-width="0"></polyline><polyline points="1575,675 1575,825 1725,825" fill="#d8c0c7" stroke="none" stroke-width="0"></polyline><polyline points="1500,900 1500,1200 1800,1200" fill="#c1ded2" stroke="none" stroke-width="0"></polyline><polyline points="1575,975 1575,1125 1725,1125" fill="#e4bcbf" stroke="none" stroke-width="0"></polyline><polyline points="300,300 300,2700 2700,2700" fill="#f8e5ef" stroke="none" stroke-width="0"></polyline><polyline points="1350,1350 1350,1650 1650,1650" fill="#f5b6b2" stroke="none" stroke-width="0"></polyline><polyline points="900,900 900,2100 2100,2100" fill="#cbeac6" stroke="none" stroke-width="0"></polyline><polyline points="1200,1200 1200,1800 1800,1800" fill="#d2e1cf" stroke="none" stroke-width="0"></polyline><polyline points="1200,1800 1200,2100 1500,2100" fill="#cde8c7" stroke="none" stroke-width="0"></polyline><polyline points="1275,1875 1275,2025 1425,2025" fill="#fefdcb" stroke="none" stroke-width="0"></polyline><polyline points="1200,2100 1200,2400 1500,2400" fill="#c1ded2" stroke="none" stroke-width="0"></polyline><polyline points="1275,2175 1275,2325 1425,2325" fill="#d1e2ce" stroke="none" stroke-width="0"></polyline><polyline points="1500,1800 1500,2100 1800,2100" fill="#fbd8ab" stroke="none" stroke-width="0"></polyline><polyline points="1575,1875 1575,2025 1725,2025" fill="#d1e2ce" stroke="none" stroke-width="0"></polyline><polyline points="1500,2100 1500,2400 1800,2400" fill="#edd2c6" stroke="none" stroke-width="0"></polyline><polyline points="1575,2175 1575,2325 1725,2325" fill="#c0ddd3" stroke="none" stroke-width="0"></polyline><polyline points="1800,0 1800,150 1950,150" fill="#d2e1cf" stroke="none" stroke-width="0"></polyline><polyline points="1837.5,37.5 1837.5,112.5 1912.5,112.5" fill="#d2e1cf" stroke="none" stroke-width="0"></polyline><polyline points="1800,150 1800,300 1950,300" fill="#f5ecf1" stroke="none" stroke-width="0"></polyline><polyline points="1837.5,187.5 1837.5,262.5 1912.5,262.5" fill="#fff5c2" stroke="none" stroke-width="0"></polyline><polyline points="1800,300 1800,450 1950,450" fill="#e7d8c1" stroke="none" stroke-width="0"></polyline><polyline points="1837.5,337.5 1837.5,412.5 1912.5,412.5" fill="#fff5c2" stroke="none" stroke-width="0"></polyline><polyline points="1800,450 1800,600 1950,600" fill="#fadae6" stroke="none" stroke-width="0"></polyline><polyline points="1837.5,487.5 1837.5,562.5 1912.5,562.5" fill="#b8cbdf" stroke="none" stroke-width="0"></polyline><polyline points="1950,0 1950,150 2100,150" fill="#f5ecf1" stroke="none" stroke-width="0"></polyline><polyline points="1987.5,37.5 1987.5,112.5 2062.5,112.5" fill="#b8cbdf" stroke="none" stroke-width="0"></polyline><polyline points="1950,150 1950,300 2100,300" fill="#f4d9db" stroke="none" stroke-width="0"></polyline><polyline points="1987.5,187.5 1987.5,262.5 2062.5,262.5" fill="#b8cbdf" stroke="none" stroke-width="0"></polyline><polyline points="1950,300 1950,450 2100,450" fill="#f1ebc4" stroke="none" stroke-width="0"></polyline><polyline points="1987.5,337.5 1987.5,412.5 2062.5,412.5" fill="#f1ebc4" stroke="none" stroke-width="0"></polyline><polyline points="1950,450 1950,600 2100,600" fill="#f6e8f0" stroke="none" stroke-width="0"></polyline><polyline points="1987.5,487.5 1987.5,562.5 2062.5,562.5" fill="#e7d8c1" stroke="none" stroke-width="0"></polyline><polyline points="2100,0 2100,150 2250,150" fill="#e6d8bf" stroke="none" stroke-width="0"></polyline><polyline points="2137.5,37.5 2137.5,112.5 2212.5,112.5" fill="#e0cce1" stroke="none" stroke-width="0"></polyline><polyline points="2100,150 2100,300 2250,300" fill="#efd2c4" stroke="none" stroke-width="0"></polyline><polyline points="2137.5,187.5 2137.5,262.5 2212.5,262.5" fill="#fff5c2" stroke="none" stroke-width="0"></polyline><polyline points="2100,300 2100,450 2250,450" fill="#fff5c2" stroke="none" stroke-width="0"></polyline><polyline points="2137.5,337.5 2137.5,412.5 2212.5,412.5" fill="#f5ecf1" stroke="none" stroke-width="0"></polyline><polyline points="2100,450 2100,600 2250,600" fill="#fff5c2" stroke="none" stroke-width="0"></polyline><polyline points="2137.5,487.5 2137.5,562.5 2212.5,562.5" fill="#fadae6" stroke="none" stroke-width="0"></polyline><polyline points="2250,0 2250,150 2400,150" fill="#fff5c2" stroke="none" stroke-width="0"></polyline><polyline points="2287.5,37.5 2287.5,112.5 2362.5,112.5" fill="#bdd9d7" stroke="none" stroke-width="0"></polyline><polyline points="2250,150 2250,300 2400,300" fill="#fbdfed" stroke="none" stroke-width="0"></polyline><polyline points="2287.5,187.5 2287.5,262.5 2362.5,262.5" fill="#f6e8f0" stroke="none" stroke-width="0"></polyline><polyline points="2250,300 2250,450 2400,450" fill="#f1ebc4" stroke="none" stroke-width="0"></polyline><polyline points="2287.5,337.5 2287.5,412.5 2362.5,412.5" fill="#ecd1c9" stroke="none" stroke-width="0"></polyline><polyline points="2250,450 2250,600 2400,600" fill="#fadae6" stroke="none" stroke-width="0"></polyline><polyline points="2287.5,487.5 2287.5,562.5 2362.5,562.5" fill="#f1ebc4" stroke="none" stroke-width="0"></polyline><polyline points="1800,600 1800,900 2100,900" fill="#fefdcb" stroke="none" stroke-width="0"></polyline><polyline points="1875,675 1875,825 2025,825" fill="#cdc4d0" stroke="none" stroke-width="0"></polyline><polyline points="1800,900 1800,1200 2100,1200" fill="#f5ecf1" stroke="none" stroke-width="0"></polyline><polyline points="1875,975 1875,1125 2025,1125" fill="#fee8b5" stroke="none" stroke-width="0"></polyline><polyline points="2100,600 2100,900 2400,900" fill="#f9e3ee" stroke="none" stroke-width="0"></polyline><polyline points="2175,675 2175,825 2325,825" fill="#d9d4db" stroke="none" stroke-width="0"></polyline><polyline points="2100,900 2100,1200 2400,1200" fill="#f6d5b6" stroke="none" stroke-width="0"></polyline><polyline points="2175,975 2175,1125 2325,1125" fill="#cdc4d0" stroke="none" stroke-width="0"></polyline><polyline points="1800,1200 1800,1500 2100,1500" fill="#fcfaca" stroke="none" stroke-width="0"></polyline><polyline points="1875,1275 1875,1425 2025,1425" fill="#fffac7" stroke="none" stroke-width="0"></polyline><polyline points="1800,1500 1800,1800 2100,1800" fill="#ebd9c9" stroke="none" stroke-width="0"></polyline><polyline points="1875,1575 1875,1725 2025,1725" fill="#f5ebf0" stroke="none" stroke-width="0"></polyline><polyline points="2100,1200 2100,1500 2400,1500" fill="#ecb9b9" stroke="none" stroke-width="0"></polyline><polyline points="2175,1275 2175,1425 2325,1425" fill="#f7e8ef" stroke="none" stroke-width="0"></polyline><polyline points="2100,1500 2100,1800 2400,1800" fill="#fadae6" stroke="none" stroke-width="0"></polyline><polyline points="2175,1575 2175,1725 2325,1725" fill="#f9f7c9" stroke="none" stroke-width="0"></polyline><polyline points="1800,1800 1800,2100 2100,2100" fill="#f3d9d8" stroke="none" stroke-width="0"></polyline><polyline points="1875,1875 1875,2025 2025,2025" fill="#fedaa7" stroke="none" stroke-width="0"></polyline><polyline points="1800,2100 1800,2400 2100,2400" fill="#efe7c3" stroke="none" stroke-width="0"></polyline><polyline points="1875,2175 1875,2325 2025,2325" fill="#c1c8d8" stroke="none" stroke-width="0"></polyline><polyline points="2100,1800 2100,2100 2400,2100" fill="#ffeebb" stroke="none" stroke-width="0"></polyline><polyline points="2175,1875 2175,2025 2325,2025" fill="#dccee1" stroke="none" stroke-width="0"></polyline><polyline points="2100,2100 2100,2400 2400,2400" fill="#dccee1" stroke="none" stroke-width="0"></polyline><polyline points="2175,2175 2175,2325 2325,2325" fill="#e7d8c1" stroke="none" stroke-width="0"></polyline></g></svg>