<svg version="1.1" xmlns="http://www.w3.org/2000/svg" xmlns:xlink="http://www.w3.org/1999/xlink" width="2400" height="2400" viewBox="0,0,2400,2400"><g fill="none" fill-rule="nonzero" stroke="none" stroke-width="1" stroke-linecap="butt" stroke-linejoin="miter" stroke-miterlimit="10" stroke-dasharray="" stroke-dashoffset="0" font-family="none" font-weight="none" font-size="none" text-anchor="none" style="mix-blend-mode: normal"><g fill="#c32a4b"><rect x="0" y="0" width="600" height="600"></rect></g><g fill="#fffbb8"><rect x="0" y="600" width="600" height="600"></rect></g><g><rect x="0" y="1200" width="300" height="300" fill="#f3faad"></rect><rect x="0" y="1500" width="300" height="300" fill="#55afad"></rect><rect x="300" y="1200" width="300" height="300" fill="#fca75e"></rect><rect x="300" y="1500" width="300" height="300" fill="#fdb264"></rect></g><g fill="#f57546"><rect x="0" y="1800" width="600" height="600"></rect></g><g><rect x="600" y="0" width="300" height="300" fill="#58b2ac"></rect><rect x="600" y="300" width="300" height="300" fill="#f2faab"></rect><rect x="900" y="0" width="300" height="300" fill="#48a0b3"></rect><rect x="900" y="300" width="300" height="300" fill="#f1faaa"></rect></g><g><rect x="600" y="600" width="300" height="300" fill="#a70a44"></rect><rect x="600" y="900" width="300" height="300" fill="#c1e6a0"></rect><rect x="900" y="600" width="300" height="300" fill="#acdda4"></rect><rect x="900" y="900" width="300" height="300" fill="#fed985"></rect></g><g fill="#bc2249"><rect x="600" y="1200" width="600" height="600"></rect></g><g fill="#a30643"><rect x="600" y="1800" width="600" height="600"></rect></g><g><rect x="1200" y="0" width="300" height="300" fill="#7ccba5"></rect><rect x="1200" y="300" width="300" height="300" fill="#def29a"></rect><rect x="1500" y="0" width="300" height="300" fill="#fdfebc"></rect><rect x="1500" y="300" width="300" height="300" fill="#ac1145"></rect></g><g fill="#b31847"><rect x="1200" y="600" width="600" height="600"></rect></g><g><rect x="1200" y="1200" width="300" height="300" fill="#fedf8a"></rect><rect x="1200" y="1500" width="300" height="300" fill="#fdc070"></rect><rect x="1500" y="1200" width="300" height="300" fill="#fff3ab"></rect><rect x="1500" y="1500" width="300" height="300" fill="#cd354d"></rect></g><g><rect x="1200" y="1800" width="300" height="300" fill="#51abaf"></rect><rect x="1200" y="2100" width="300" height="300" fill="#c52c4b"></rect><rect x="1500" y="1800" width="300" height="300" fill="#e85a48"></rect><rect x="1500" y="2100" width="300" height="300" fill="#5160aa"></rect></g><g fill="#87cfa5"><rect x="1800" y="0" width="600" height="600"></rect></g><g fill="#54aead"><rect x="1800" y="600" width="600" height="600"></rect></g><g fill="#daf09b"><rect x="1800" y="1200" width="600" height="600"></rect></g><g><rect x="1800" y="1800" width="300" height="300" fill="#c9e99e"></rect><rect x="1800" y="2100" width="300" height="300" fill="#e75a48"></rect><rect x="2100" y="1800" width="300" height="300" fill="#f88950"></rect><rect x="2100" y="2100" width="300" height="300" fill="#e75948"></rect></g></g></svg>