<svg version="1.1" xmlns="http://www.w3.org/2000/svg" xmlns:xlink="http://www.w3.org/1999/xlink" width="2400" height="2400" viewBox="0,0,2400,2400"><g fill="none" fill-rule="nonzero" stroke="none" stroke-width="1" stroke-linecap="butt" stroke-linejoin="miter" stroke-miterlimit="10" stroke-dasharray="" stroke-dashoffset="0" font-family="none" font-weight="none" font-size="none" text-anchor="none" style="mix-blend-mode: normal"><g><rect x="0" y="0" width="300" height="300" fill="#eff3f6"></rect><rect x="0" y="300" width="300" height="300" fill="#bd2d35"></rect><rect x="300" y="0" width="300" height="300" fill="#f8bb9f"></rect><rect x="300" y="300" width="300" height="300" fill="#d45c4b"></rect></g><rect x="0" y="0" width="300" height="300" fill="#c1373a"></rect><rect x="75" y="75" width="150" height="150" fill="#0b3b70"></rect><rect x="0" y="300" width="300" height="300" fill="#f4a583"></rect><rect x="75" y="375" width="150" height="150" fill="#800823"></rect><rect x="300" y="0" width="300" height="300" fill="#ef9a7a"></rect><rect x="375" y="75" width="150" height="150" fill="#fcd4be"></rect><rect x="300" y="300" width="300" height="300" fill="#a9d1e4"></rect><rect x="375" y="375" width="150" height="150" fill="#c8e1ee"></rect><g fill="#fbe6d9"><rect x="0" y="600" width="600" height="600"></rect></g><rect x="0" y="600" width="600" height="600" fill="#fbe3d4"></rect><rect x="30" y="630" width="540" height="540" fill="#cb4942"></rect><rect x="240" y="840" width="120" height="120" fill="#e17860"></rect><rect x="60" y="660" width="480" height="480" fill="#0e427a"></rect><rect x="150" y="750" width="300" height="300" fill="#175290"></rect><rect x="90" y="690" width="420" height="420" fill="#073467"></rect><rect x="120" y="720" width="360" height="360" fill="#a9152a"></rect><rect x="180" y="780" width="240" height="240" fill="#3b89be"></rect><rect x="210" y="810" width="180" height="180" fill="#408fc1"></rect><g fill="#c43c3c"><rect x="0" y="1200" width="600" height="600"></rect></g><rect x="0" y="1200" width="600" height="600" fill="#fcd8c3"></rect><rect x="30" y="1230" width="540" height="540" fill="#cb4942"></rect><rect x="240" y="1440" width="120" height="120" fill="#3580b9"></rect><rect x="60" y="1260" width="480" height="480" fill="#eff3f6"></rect><rect x="150" y="1350" width="300" height="300" fill="#1d5da0"></rect><rect x="90" y="1290" width="420" height="420" fill="#f6f6f7"></rect><rect x="120" y="1320" width="360" height="360" fill="#195696"></rect><rect x="180" y="1380" width="240" height="240" fill="#92c5de"></rect><rect x="210" y="1410" width="180" height="180" fill="#faeae1"></rect><g><rect x="0" y="1800" width="300" height="300" fill="#f2f5f6"></rect><rect x="0" y="2100" width="300" height="300" fill="#2f79b5"></rect><rect x="300" y="1800" width="300" height="300" fill="#e2edf3"></rect><rect x="300" y="2100" width="300" height="300" fill="#a11328"></rect></g><rect x="0" y="1800" width="300" height="300" fill="#fbcdb5"></rect><rect x="75" y="1875" width="150" height="150" fill="#3e8cbf"></rect><rect x="0" y="2100" width="300" height="300" fill="#3d8bbf"></rect><rect x="75" y="2175" width="150" height="150" fill="#0e427a"></rect><rect x="300" y="1800" width="300" height="300" fill="#a8d0e4"></rect><rect x="375" y="1875" width="150" height="150" fill="#0b3c72"></rect><rect x="300" y="2100" width="300" height="300" fill="#9fcce2"></rect><rect x="375" y="2175" width="150" height="150" fill="#dbeaf2"></rect><g><rect x="600" y="0" width="150" height="150" fill="#d25849"></rect><rect x="600" y="150" width="150" height="150" fill="#fdddca"></rect><rect x="600" y="300" width="150" height="150" fill="#860a24"></rect><rect x="600" y="450" width="150" height="150" fill="#ecf2f5"></rect><rect x="750" y="0" width="150" height="150" fill="#aed3e6"></rect><rect x="750" y="150" width="150" height="150" fill="#f9c2a8"></rect><rect x="750" y="300" width="150" height="150" fill="#f8f1ec"></rect><rect x="750" y="450" width="150" height="150" fill="#2f78b5"></rect><rect x="900" y="0" width="150" height="150" fill="#bbdaea"></rect><rect x="900" y="150" width="150" height="150" fill="#0c3d74"></rect><rect x="900" y="300" width="150" height="150" fill="#d25849"></rect><rect x="900" y="450" width="150" height="150" fill="#09386c"></rect><rect x="1050" y="0" width="150" height="150" fill="#fce2d3"></rect><rect x="1050" y="150" width="150" height="150" fill="#d3e6f0"></rect><rect x="1050" y="300" width="150" height="150" fill="#95c7df"></rect><rect x="1050" y="450" width="150" height="150" fill="#c2deec"></rect></g><rect x="600" y="0" width="150" height="150" fill="#3c89be"></rect><rect x="637.5" y="37.5" width="75" height="75" fill="#e98c6f"></rect><rect x="600" y="150" width="150" height="150" fill="#fdddcb"></rect><rect x="637.5" y="187.5" width="75" height="75" fill="#2870b1"></rect><rect x="600" y="300" width="150" height="150" fill="#f9efe9"></rect><rect x="637.5" y="337.5" width="75" height="75" fill="#a9d1e5"></rect><rect x="600" y="450" width="150" height="150" fill="#c7e0ed"></rect><rect x="637.5" y="487.5" width="75" height="75" fill="#c53e3d"></rect><rect x="750" y="0" width="150" height="150" fill="#cf5347"></rect><rect x="787.5" y="37.5" width="75" height="75" fill="#e68569"></rect><rect x="750" y="150" width="150" height="150" fill="#f7f5f4"></rect><rect x="787.5" y="187.5" width="75" height="75" fill="#fcdfcf"></rect><rect x="750" y="300" width="150" height="150" fill="#e5eff4"></rect><rect x="787.5" y="337.5" width="75" height="75" fill="#fce1d1"></rect><rect x="750" y="450" width="150" height="150" fill="#2970b1"></rect><rect x="787.5" y="487.5" width="75" height="75" fill="#4f9bc7"></rect><rect x="900" y="0" width="150" height="150" fill="#134a86"></rect><rect x="937.5" y="37.5" width="75" height="75" fill="#4695c4"></rect><rect x="900" y="150" width="150" height="150" fill="#cae1ee"></rect><rect x="937.5" y="187.5" width="75" height="75" fill="#d8e8f1"></rect><rect x="900" y="300" width="150" height="150" fill="#e8896d"></rect><rect x="937.5" y="337.5" width="75" height="75" fill="#e27b61"></rect><rect x="900" y="450" width="150" height="150" fill="#3986bc"></rect><rect x="937.5" y="487.5" width="75" height="75" fill="#fac6ac"></rect><rect x="1050" y="0" width="150" height="150" fill="#d4e6f0"></rect><rect x="1087.5" y="37.5" width="75" height="75" fill="#ecf2f5"></rect><rect x="1050" y="150" width="150" height="150" fill="#cee3ef"></rect><rect x="1087.5" y="187.5" width="75" height="75" fill="#2063a8"></rect><rect x="1050" y="300" width="150" height="150" fill="#fce1d1"></rect><rect x="1087.5" y="337.5" width="75" height="75" fill="#1e61a5"></rect><rect x="1050" y="450" width="150" height="150" fill="#6daed1"></rect><rect x="1087.5" y="487.5" width="75" height="75" fill="#fddcca"></rect><g fill="#2970b1"><rect x="600" y="600" width="600" height="600"></rect></g><rect x="840" y="840" width="120" height="120" fill="#e48066"></rect><rect x="630" y="630" width="540" height="540" fill="#fbd1ba"></rect><rect x="600" y="600" width="600" height="600" fill="#c8433f"></rect><rect x="810" y="810" width="180" height="180" fill="#59a1ca"></rect><rect x="780" y="780" width="240" height="240" fill="#f1f4f6"></rect><rect x="750" y="750" width="300" height="300" fill="#f7ba9c"></rect><rect x="720" y="720" width="360" height="360" fill="#cd4e44"></rect><rect x="690" y="690" width="420" height="420" fill="#4a97c5"></rect><rect x="660" y="660" width="480" height="480" fill="#e7876b"></rect><g><rect x="600" y="1200" width="300" height="300" fill="#cd4f45"></rect><rect x="600" y="1500" width="300" height="300" fill="#95c7df"></rect><rect x="900" y="1200" width="300" height="300" fill="#073568"></rect><rect x="900" y="1500" width="300" height="300" fill="#3681ba"></rect></g><rect x="600" y="1200" width="300" height="300" fill="#e58368"></rect><rect x="675" y="1275" width="150" height="150" fill="#dc6d57"></rect><rect x="600" y="1500" width="300" height="300" fill="#f7b99c"></rect><rect x="675" y="1575" width="150" height="150" fill="#d9e9f1"></rect><rect x="900" y="1200" width="300" height="300" fill="#539dc9"></rect><rect x="975" y="1275" width="150" height="150" fill="#bd2e35"></rect><rect x="900" y="1500" width="300" height="300" fill="#b1182b"></rect><rect x="975" y="1575" width="150" height="150" fill="#e9f0f4"></rect><g><rect x="600" y="1800" width="300" height="300" fill="#90c4dd"></rect><rect x="600" y="2100" width="300" height="300" fill="#bb2a34"></rect><rect x="900" y="1800" width="300" height="300" fill="#f8f0eb"></rect><rect x="900" y="2100" width="300" height="300" fill="#154e8b"></rect></g><rect x="600" y="1800" width="300" height="300" fill="#ecf2f5"></rect><rect x="675" y="1875" width="150" height="150" fill="#c6dfed"></rect><rect x="600" y="2100" width="300" height="300" fill="#b9d9e9"></rect><rect x="675" y="2175" width="150" height="150" fill="#2369ae"></rect><rect x="900" y="1800" width="300" height="300" fill="#124a85"></rect><rect x="975" y="1875" width="150" height="150" fill="#f8bea1"></rect><rect x="900" y="2100" width="300" height="300" fill="#f9f0eb"></rect><rect x="975" y="2175" width="150" height="150" fill="#bf3137"></rect><g fill="#df755d"><rect x="1200" y="0" width="600" height="600"></rect></g><rect x="1440" y="240" width="120" height="120" fill="#960f27"></rect><rect x="1230" y="30" width="540" height="540" fill="#97c8df"></rect><rect x="1290" y="90" width="420" height="420" fill="#900d26"></rect><rect x="1350" y="150" width="300" height="300" fill="#b41d2d"></rect><rect x="1260" y="60" width="480" height="480" fill="#3885bc"></rect><rect x="1320" y="120" width="360" height="360" fill="#a0cce2"></rect><rect x="1380" y="180" width="240" height="240" fill="#f6f7f7"></rect><rect x="1410" y="210" width="180" height="180" fill="#7cb7d6"></rect><rect x="1200" y="0" width="600" height="600" fill="#76b3d4"></rect><g><rect x="1200" y="600" width="150" height="150" fill="#ddebf2"></rect><rect x="1200" y="750" width="150" height="150" fill="#104680"></rect><rect x="1200" y="900" width="150" height="150" fill="#4292c2"></rect><rect x="1200" y="1050" width="150" height="150" fill="#6fafd2"></rect><rect x="1350" y="600" width="150" height="150" fill="#58a0ca"></rect><rect x="1350" y="750" width="150" height="150" fill="#fbe3d5"></rect><rect x="1350" y="900" width="150" height="150" fill="#db6b56"></rect><rect x="1350" y="1050" width="150" height="150" fill="#eef3f5"></rect><rect x="1500" y="600" width="150" height="150" fill="#eaf1f5"></rect><rect x="1500" y="750" width="150" height="150" fill="#b5d7e8"></rect><rect x="1500" y="900" width="150" height="150" fill="#a81529"></rect><rect x="1500" y="1050" width="150" height="150" fill="#5ba2cb"></rect><rect x="1650" y="600" width="150" height="150" fill="#facab2"></rect><rect x="1650" y="750" width="150" height="150" fill="#3f8dc0"></rect><rect x="1650" y="900" width="150" height="150" fill="#3884bb"></rect><rect x="1650" y="1050" width="150" height="150" fill="#f9ebe3"></rect></g><rect x="1200" y="600" width="150" height="150" fill="#95c7df"></rect><rect x="1237.5" y="637.5" width="75" height="75" fill="#a31329"></rect><rect x="1200" y="750" width="150" height="150" fill="#195797"></rect><rect x="1237.5" y="787.5" width="75" height="75" fill="#f9ece4"></rect><rect x="1200" y="900" width="150" height="150" fill="#286fb1"></rect><rect x="1237.5" y="937.5" width="75" height="75" fill="#d25849"></rect><rect x="1200" y="1050" width="150" height="150" fill="#5ca3cb"></rect><rect x="1237.5" y="1087.5" width="75" height="75" fill="#1a599a"></rect><rect x="1350" y="600" width="150" height="150" fill="#e6eff4"></rect><rect x="1387.5" y="637.5" width="75" height="75" fill="#f6b394"></rect><rect x="1350" y="750" width="150" height="150" fill="#2a72b2"></rect><rect x="1387.5" y="787.5" width="75" height="75" fill="#f5f6f7"></rect><rect x="1350" y="900" width="150" height="150" fill="#bddbea"></rect><rect x="1387.5" y="937.5" width="75" height="75" fill="#fddcc9"></rect><rect x="1350" y="1050" width="150" height="150" fill="#bedbea"></rect><rect x="1387.5" y="1087.5" width="75" height="75" fill="#90c4dd"></rect><rect x="1500" y="600" width="150" height="150" fill="#dbeaf2"></rect><rect x="1537.5" y="637.5" width="75" height="75" fill="#78b5d5"></rect><rect x="1500" y="750" width="150" height="150" fill="#ddeaf2"></rect><rect x="1537.5" y="787.5" width="75" height="75" fill="#dd715a"></rect><rect x="1500" y="900" width="150" height="150" fill="#68abd0"></rect><rect x="1537.5" y="937.5" width="75" height="75" fill="#1e61a5"></rect><rect x="1500" y="1050" width="150" height="150" fill="#d1e5f0"></rect><rect x="1537.5" y="1087.5" width="75" height="75" fill="#4393c3"></rect><rect x="1650" y="600" width="150" height="150" fill="#e7876b"></rect><rect x="1687.5" y="637.5" width="75" height="75" fill="#ea8d70"></rect><rect x="1650" y="750" width="150" height="150" fill="#ba2933"></rect><rect x="1687.5" y="787.5" width="75" height="75" fill="#dfebf3"></rect><rect x="1650" y="900" width="150" height="150" fill="#b2d5e7"></rect><rect x="1687.5" y="937.5" width="75" height="75" fill="#2166ac"></rect><rect x="1650" y="1050" width="150" height="150" fill="#dbeaf2"></rect><rect x="1687.5" y="1087.5" width="75" height="75" fill="#7bb6d6"></rect><g fill="#770522"><rect x="1200" y="1200" width="600" height="600"></rect></g><rect x="1440" y="1440" width="120" height="120" fill="#f6b495"></rect><rect x="1230" y="1230" width="540" height="540" fill="#2d76b4"></rect><rect x="1290" y="1290" width="420" height="420" fill="#fae8dd"></rect><rect x="1350" y="1350" width="300" height="300" fill="#1a599a"></rect><rect x="1260" y="1260" width="480" height="480" fill="#d3e6f0"></rect><rect x="1320" y="1320" width="360" height="360" fill="#3c89be"></rect><rect x="1380" y="1380" width="240" height="240" fill="#256baf"></rect><rect x="1410" y="1410" width="180" height="180" fill="#faebe2"></rect><rect x="1200" y="1200" width="600" height="600" fill="#fac6ac"></rect><g><rect x="1200" y="1800" width="300" height="300" fill="#3884bc"></rect><rect x="1200" y="2100" width="300" height="300" fill="#ecf2f5"></rect><rect x="1500" y="1800" width="300" height="300" fill="#cee3ef"></rect><rect x="1500" y="2100" width="300" height="300" fill="#6dadd1"></rect></g><rect x="1200" y="1800" width="300" height="300" fill="#720321"></rect><rect x="1275" y="1875" width="150" height="150" fill="#f5aa89"></rect><rect x="1200" y="2100" width="300" height="300" fill="#d96652"></rect><rect x="1275" y="2175" width="150" height="150" fill="#f9ece5"></rect><rect x="1500" y="1800" width="300" height="300" fill="#3682ba"></rect><rect x="1575" y="1875" width="150" height="150" fill="#85bdd9"></rect><rect x="1500" y="2100" width="300" height="300" fill="#f7b799"></rect><rect x="1575" y="2175" width="150" height="150" fill="#ea8e70"></rect><g><rect x="1800" y="0" width="300" height="300" fill="#1f61a5"></rect><rect x="1800" y="300" width="300" height="300" fill="#f7f6f6"></rect><rect x="2100" y="0" width="300" height="300" fill="#bf3338"></rect><rect x="2100" y="300" width="300" height="300" fill="#ef9979"></rect></g><rect x="1800" y="0" width="300" height="300" fill="#57a0ca"></rect><rect x="1875" y="75" width="150" height="150" fill="#69011f"></rect><rect x="1800" y="300" width="300" height="300" fill="#cfe4ef"></rect><rect x="1875" y="375" width="150" height="150" fill="#2063a8"></rect><rect x="2100" y="0" width="300" height="300" fill="#d55e4c"></rect><rect x="2175" y="75" width="150" height="150" fill="#a6cfe4"></rect><rect x="2100" y="300" width="300" height="300" fill="#134c87"></rect><rect x="2175" y="375" width="150" height="150" fill="#d86651"></rect><g><rect x="1800" y="600" width="150" height="150" fill="#c8e1ed"></rect><rect x="1800" y="750" width="150" height="150" fill="#faccb3"></rect><rect x="1800" y="900" width="150" height="150" fill="#cc4b43"></rect><rect x="1800" y="1050" width="150" height="150" fill="#8fc3dd"></rect><rect x="1950" y="600" width="150" height="150" fill="#317cb7"></rect><rect x="1950" y="750" width="150" height="150" fill="#e98c6f"></rect><rect x="1950" y="900" width="150" height="150" fill="#62a6cd"></rect><rect x="1950" y="1050" width="150" height="150" fill="#2b73b3"></rect><rect x="2100" y="600" width="150" height="150" fill="#134b86"></rect><rect x="2100" y="750" width="150" height="150" fill="#ca4741"></rect><rect x="2100" y="900" width="150" height="150" fill="#e48066"></rect><rect x="2100" y="1050" width="150" height="150" fill="#c9e1ee"></rect><rect x="2250" y="600" width="150" height="150" fill="#fac8ae"></rect><rect x="2250" y="750" width="150" height="150" fill="#fce0d0"></rect><rect x="2250" y="900" width="150" height="150" fill="#b6212f"></rect><rect x="2250" y="1050" width="150" height="150" fill="#bedbea"></rect></g><rect x="1800" y="600" width="150" height="150" fill="#fcd6c0"></rect><rect x="1837.5" y="637.5" width="75" height="75" fill="#bf3237"></rect><rect x="1800" y="750" width="150" height="150" fill="#509bc7"></rect><rect x="1837.5" y="787.5" width="75" height="75" fill="#fcd3bd"></rect><rect x="1800" y="900" width="150" height="150" fill="#4393c3"></rect><rect x="1837.5" y="937.5" width="75" height="75" fill="#5da4cc"></rect><rect x="1800" y="1050" width="150" height="150" fill="#3885bc"></rect><rect x="1837.5" y="1087.5" width="75" height="75" fill="#8cc1dc"></rect><rect x="1950" y="600" width="150" height="150" fill="#fcd6c1"></rect><rect x="1987.5" y="637.5" width="75" height="75" fill="#abd1e5"></rect><rect x="1950" y="750" width="150" height="150" fill="#134a85"></rect><rect x="1987.5" y="787.5" width="75" height="75" fill="#154f8c"></rect><rect x="1950" y="900" width="150" height="150" fill="#add3e6"></rect><rect x="1987.5" y="937.5" width="75" height="75" fill="#b51e2e"></rect><rect x="1950" y="1050" width="150" height="150" fill="#a3cee3"></rect><rect x="1987.5" y="1087.5" width="75" height="75" fill="#2971b2"></rect><rect x="2100" y="600" width="150" height="150" fill="#f8f1ed"></rect><rect x="2137.5" y="637.5" width="75" height="75" fill="#eff3f6"></rect><rect x="2100" y="750" width="150" height="150" fill="#a2cde2"></rect><rect x="2137.5" y="787.5" width="75" height="75" fill="#d8e8f1"></rect><rect x="2100" y="900" width="150" height="150" fill="#e27b62"></rect><rect x="2137.5" y="937.5" width="75" height="75" fill="#9fcce2"></rect><rect x="2100" y="1050" width="150" height="150" fill="#f7b89a"></rect><rect x="2137.5" y="1087.5" width="75" height="75" fill="#ac162a"></rect><rect x="2250" y="600" width="150" height="150" fill="#f8f2ee"></rect><rect x="2287.5" y="637.5" width="75" height="75" fill="#900d26"></rect><rect x="2250" y="750" width="150" height="150" fill="#b61f2f"></rect><rect x="2287.5" y="787.5" width="75" height="75" fill="#d8e8f1"></rect><rect x="2250" y="900" width="150" height="150" fill="#9fcce2"></rect><rect x="2287.5" y="937.5" width="75" height="75" fill="#790622"></rect><rect x="2250" y="1050" width="150" height="150" fill="#f4f6f6"></rect><rect x="2287.5" y="1087.5" width="75" height="75" fill="#529dc8"></rect><g><rect x="1800" y="1200" width="300" height="300" fill="#d1e5f0"></rect><rect x="1800" y="1500" width="300" height="300" fill="#fac7ae"></rect><rect x="2100" y="1200" width="300" height="300" fill="#337eb8"></rect><rect x="2100" y="1500" width="300" height="300" fill="#f7f5f4"></rect></g><rect x="1800" y="1200" width="300" height="300" fill="#4896c5"></rect><rect x="1875" y="1275" width="150" height="150" fill="#f9c1a6"></rect><rect x="1800" y="1500" width="300" height="300" fill="#faebe2"></rect><rect x="1875" y="1575" width="150" height="150" fill="#8b0b25"></rect><rect x="2100" y="1200" width="300" height="300" fill="#f4f6f6"></rect><rect x="2175" y="1275" width="150" height="150" fill="#eff3f6"></rect><rect x="2100" y="1500" width="300" height="300" fill="#134b86"></rect><rect x="2175" y="1575" width="150" height="150" fill="#f5ab89"></rect><g><rect x="1800" y="1800" width="150" height="150" fill="#dd715a"></rect><rect x="1800" y="1950" width="150" height="150" fill="#8fc3dd"></rect><rect x="1800" y="2100" width="150" height="150" fill="#f9efe9"></rect><rect x="1800" y="2250" width="150" height="150" fill="#f6b292"></rect><rect x="1950" y="1800" width="150" height="150" fill="#b51e2e"></rect><rect x="1950" y="1950" width="150" height="150" fill="#e0785f"></rect><rect x="1950" y="2100" width="150" height="150" fill="#fbe4d6"></rect><rect x="1950" y="2250" width="150" height="150" fill="#d25849"></rect><rect x="2100" y="1800" width="150" height="150" fill="#195797"></rect><rect x="2100" y="1950" width="150" height="150" fill="#e5eef4"></rect><rect x="2100" y="2100" width="150" height="150" fill="#154f8c"></rect><rect x="2100" y="2250" width="150" height="150" fill="#a11228"></rect><rect x="2250" y="1800" width="150" height="150" fill="#ecf2f5"></rect><rect x="2250" y="1950" width="150" height="150" fill="#b72230"></rect><rect x="2250" y="2100" width="150" height="150" fill="#ba2933"></rect><rect x="2250" y="2250" width="150" height="150" fill="#a9152a"></rect></g><rect x="1800" y="1800" width="150" height="150" fill="#3e8cbf"></rect><rect x="1837.5" y="1837.5" width="75" height="75" fill="#154f8c"></rect><rect x="1800" y="1950" width="150" height="150" fill="#a81529"></rect><rect x="1837.5" y="1987.5" width="75" height="75" fill="#276eb0"></rect><rect x="1800" y="2100" width="150" height="150" fill="#f1f4f6"></rect><rect x="1837.5" y="2137.5" width="75" height="75" fill="#073466"></rect><rect x="1800" y="2250" width="150" height="150" fill="#ad162a"></rect><rect x="1837.5" y="2287.5" width="75" height="75" fill="#59a1ca"></rect><rect x="1950" y="1800" width="150" height="150" fill="#c7433f"></rect><rect x="1987.5" y="1837.5" width="75" height="75" fill="#cc4b43"></rect><rect x="1950" y="1950" width="150" height="150" fill="#a6cfe4"></rect><rect x="1987.5" y="1987.5" width="75" height="75" fill="#e6856a"></rect><rect x="1950" y="2100" width="150" height="150" fill="#a01228"></rect><rect x="1987.5" y="2137.5" width="75" height="75" fill="#e68569"></rect><rect x="1950" y="2250" width="150" height="150" fill="#2065aa"></rect><rect x="1987.5" y="2287.5" width="75" height="75" fill="#063263"></rect><rect x="2100" y="1800" width="150" height="150" fill="#0a3a6f"></rect><rect x="2137.5" y="1837.5" width="75" height="75" fill="#fcdecd"></rect><rect x="2100" y="1950" width="150" height="150" fill="#c7433f"></rect><rect x="2137.5" y="1987.5" width="75" height="75" fill="#bedceb"></rect><rect x="2100" y="2100" width="150" height="150" fill="#aed3e6"></rect><rect x="2137.5" y="2137.5" width="75" height="75" fill="#f9efe9"></rect><rect x="2100" y="2250" width="150" height="150" fill="#d8e8f1"></rect><rect x="2137.5" y="2287.5" width="75" height="75" fill="#16518e"></rect><rect x="2250" y="1800" width="150" height="150" fill="#b31a2c"></rect><rect x="2287.5" y="1837.5" width="75" height="75" fill="#950f26"></rect><rect x="2250" y="1950" width="150" height="150" fill="#8cc1dc"></rect><rect x="2287.5" y="1987.5" width="75" height="75" fill="#fae9df"></rect><rect x="2250" y="2100" width="150" height="150" fill="#8cc1dc"></rect><rect x="2287.5" y="2137.5" width="75" height="75" fill="#fddac6"></rect><rect x="2250" y="2250" width="150" height="150" fill="#5fa5cd"></rect><rect x="2287.5" y="2287.5" width="75" height="75" fill="#2971b2"></rect></g></svg>