<svg version="1.1" xmlns="http://www.w3.org/2000/svg" xmlns:xlink="http://www.w3.org/1999/xlink" width="2400" height="2400" viewBox="0,0,2400,2400"><g fill="none" fill-rule="nonzero" stroke="none" stroke-width="1" stroke-linecap="butt" stroke-linejoin="miter" stroke-miterlimit="10" stroke-dasharray="" stroke-dashoffset="0" font-family="none" font-weight="none" font-size="none" text-anchor="none" style="mix-blend-mode: normal"><g><rect x="0" y="0" width="300" height="300" fill="#73b1d3"></rect><rect x="0" y="300" width="300" height="300" fill="#870a24"></rect><rect x="300" y="0" width="300" height="300" fill="#f6f6f7"></rect><rect x="300" y="300" width="300" height="300" fill="#af172b"></rect></g><rect x="0" y="0" width="300" height="300" fill="#c5dfed"></rect><rect x="75" y="75" width="150" height="150" fill="#3783bb"></rect><rect x="0" y="300" width="300" height="300" fill="#e37d63"></rect><rect x="75" y="375" width="150" height="150" fill="#da6a55"></rect><rect x="300" y="0" width="300" height="300" fill="#c8e0ed"></rect><rect x="375" y="75" width="150" height="150" fill="#860a24"></rect><rect x="300" y="300" width="300" height="300" fill="#910e26"></rect><rect x="375" y="375" width="150" height="150" fill="#d55e4c"></rect><g><rect x="0" y="600" width="150" height="150" fill="#860a24"></rect><rect x="0" y="750" width="150" height="150" fill="#4f9bc7"></rect><rect x="0" y="900" width="150" height="150" fill="#74b2d4"></rect><rect x="0" y="1050" width="150" height="150" fill="#dd6f59"></rect><rect x="150" y="600" width="150" height="150" fill="#be3137"></rect><rect x="150" y="750" width="150" height="150" fill="#a8d0e4"></rect><rect x="150" y="900" width="150" height="150" fill="#68001f"></rect><rect x="150" y="1050" width="150" height="150" fill="#6b0120"></rect><rect x="300" y="600" width="150" height="150" fill="#dc6d57"></rect><rect x="300" y="750" width="150" height="150" fill="#be3036"></rect><rect x="300" y="900" width="150" height="150" fill="#2f79b6"></rect><rect x="300" y="1050" width="150" height="150" fill="#d3e6f0"></rect><rect x="450" y="600" width="150" height="150" fill="#74b2d4"></rect><rect x="450" y="750" width="150" height="150" fill="#ea8e71"></rect><rect x="450" y="900" width="150" height="150" fill="#df755d"></rect><rect x="450" y="1050" width="150" height="150" fill="#e4eef3"></rect></g><rect x="0" y="600" width="150" height="150" fill="#89bfdb"></rect><rect x="37.5" y="637.5" width="75" height="75" fill="#408fc1"></rect><rect x="0" y="750" width="150" height="150" fill="#fcd5bf"></rect><rect x="37.5" y="787.5" width="75" height="75" fill="#f2a17f"></rect><rect x="0" y="900" width="150" height="150" fill="#276eb0"></rect><rect x="37.5" y="937.5" width="75" height="75" fill="#f9c4aa"></rect><rect x="0" y="1050" width="150" height="150" fill="#c7433f"></rect><rect x="37.5" y="1087.5" width="75" height="75" fill="#fae9e0"></rect><rect x="150" y="600" width="150" height="150" fill="#be2f36"></rect><rect x="187.5" y="637.5" width="75" height="75" fill="#e7f0f4"></rect><rect x="150" y="750" width="150" height="150" fill="#4a97c5"></rect><rect x="187.5" y="787.5" width="75" height="75" fill="#519cc8"></rect><rect x="150" y="900" width="150" height="150" fill="#f9c5ab"></rect><rect x="187.5" y="937.5" width="75" height="75" fill="#700320"></rect><rect x="150" y="1050" width="150" height="150" fill="#940e26"></rect><rect x="187.5" y="1087.5" width="75" height="75" fill="#f8f2ee"></rect><rect x="300" y="600" width="150" height="150" fill="#b41d2d"></rect><rect x="337.5" y="637.5" width="75" height="75" fill="#0d3f76"></rect><rect x="300" y="750" width="150" height="150" fill="#bbdaea"></rect><rect x="337.5" y="787.5" width="75" height="75" fill="#b1d5e7"></rect><rect x="300" y="900" width="150" height="150" fill="#75b3d4"></rect><rect x="337.5" y="937.5" width="75" height="75" fill="#063365"></rect><rect x="300" y="1050" width="150" height="150" fill="#d7e8f1"></rect><rect x="337.5" y="1087.5" width="75" height="75" fill="#fae7db"></rect><rect x="450" y="600" width="150" height="150" fill="#870a24"></rect><rect x="487.5" y="637.5" width="75" height="75" fill="#073467"></rect><rect x="450" y="750" width="150" height="150" fill="#dceaf2"></rect><rect x="487.5" y="787.5" width="75" height="75" fill="#3884bb"></rect><rect x="450" y="900" width="150" height="150" fill="#ee9878"></rect><rect x="487.5" y="937.5" width="75" height="75" fill="#e8f0f4"></rect><rect x="450" y="1050" width="150" height="150" fill="#f9efe9"></rect><rect x="487.5" y="1087.5" width="75" height="75" fill="#fbcfb8"></rect><g><rect x="0" y="1200" width="150" height="150" fill="#e0ecf3"></rect><rect x="0" y="1350" width="150" height="150" fill="#347fb9"></rect><rect x="0" y="1500" width="150" height="150" fill="#fbe4d7"></rect><rect x="0" y="1650" width="150" height="150" fill="#114680"></rect><rect x="150" y="1200" width="150" height="150" fill="#e98c6f"></rect><rect x="150" y="1350" width="150" height="150" fill="#114781"></rect><rect x="150" y="1500" width="150" height="150" fill="#4997c5"></rect><rect x="150" y="1650" width="150" height="150" fill="#0c3e75"></rect><rect x="300" y="1200" width="150" height="150" fill="#f5a987"></rect><rect x="300" y="1350" width="150" height="150" fill="#4594c4"></rect><rect x="300" y="1500" width="150" height="150" fill="#317cb7"></rect><rect x="300" y="1650" width="150" height="150" fill="#f5f6f7"></rect><rect x="450" y="1200" width="150" height="150" fill="#c84540"></rect><rect x="450" y="1350" width="150" height="150" fill="#f8f1ed"></rect><rect x="450" y="1500" width="150" height="150" fill="#f5ab8a"></rect><rect x="450" y="1650" width="150" height="150" fill="#f1f4f6"></rect></g><rect x="0" y="1200" width="150" height="150" fill="#b8d9e9"></rect><rect x="37.5" y="1237.5" width="75" height="75" fill="#9ecbe2"></rect><rect x="0" y="1350" width="150" height="150" fill="#e27c63"></rect><rect x="37.5" y="1387.5" width="75" height="75" fill="#facbb3"></rect><rect x="0" y="1500" width="150" height="150" fill="#fae8dd"></rect><rect x="37.5" y="1537.5" width="75" height="75" fill="#d9e9f2"></rect><rect x="0" y="1650" width="150" height="150" fill="#fcdecc"></rect><rect x="37.5" y="1687.5" width="75" height="75" fill="#b31b2c"></rect><rect x="150" y="1200" width="150" height="150" fill="#eef3f5"></rect><rect x="187.5" y="1237.5" width="75" height="75" fill="#66a9cf"></rect><rect x="150" y="1350" width="150" height="150" fill="#5ea4cc"></rect><rect x="187.5" y="1387.5" width="75" height="75" fill="#175291"></rect><rect x="150" y="1500" width="150" height="150" fill="#930e26"></rect><rect x="187.5" y="1537.5" width="75" height="75" fill="#9ecbe1"></rect><rect x="150" y="1650" width="150" height="150" fill="#aad1e5"></rect><rect x="187.5" y="1687.5" width="75" height="75" fill="#f3f5f6"></rect><rect x="300" y="1200" width="150" height="150" fill="#c84540"></rect><rect x="337.5" y="1237.5" width="75" height="75" fill="#e27b62"></rect><rect x="300" y="1350" width="150" height="150" fill="#09386c"></rect><rect x="337.5" y="1387.5" width="75" height="75" fill="#b4d6e8"></rect><rect x="300" y="1500" width="150" height="150" fill="#c13639"></rect><rect x="337.5" y="1537.5" width="75" height="75" fill="#e7876b"></rect><rect x="300" y="1650" width="150" height="150" fill="#820923"></rect><rect x="337.5" y="1687.5" width="75" height="75" fill="#76b3d4"></rect><rect x="450" y="1200" width="150" height="150" fill="#154e8b"></rect><rect x="487.5" y="1237.5" width="75" height="75" fill="#f5ab89"></rect><rect x="450" y="1350" width="150" height="150" fill="#8fc3dd"></rect><rect x="487.5" y="1387.5" width="75" height="75" fill="#a31329"></rect><rect x="450" y="1500" width="150" height="150" fill="#073568"></rect><rect x="487.5" y="1537.5" width="75" height="75" fill="#cf5347"></rect><rect x="450" y="1650" width="150" height="150" fill="#d2594a"></rect><rect x="487.5" y="1687.5" width="75" height="75" fill="#fce1d1"></rect><g><rect x="0" y="1800" width="300" height="300" fill="#e2edf3"></rect><rect x="0" y="2100" width="300" height="300" fill="#c6dfed"></rect><rect x="300" y="1800" width="300" height="300" fill="#307ab6"></rect><rect x="300" y="2100" width="300" height="300" fill="#408fc1"></rect></g><rect x="0" y="1800" width="300" height="300" fill="#2368ad"></rect><rect x="75" y="1875" width="150" height="150" fill="#faebe2"></rect><rect x="0" y="2100" width="300" height="300" fill="#de725b"></rect><rect x="75" y="2175" width="150" height="150" fill="#b2d5e7"></rect><rect x="300" y="1800" width="300" height="300" fill="#ed9676"></rect><rect x="375" y="1875" width="150" height="150" fill="#e48166"></rect><rect x="300" y="2100" width="300" height="300" fill="#971027"></rect><rect x="375" y="2175" width="150" height="150" fill="#bedceb"></rect><g><rect x="600" y="0" width="300" height="300" fill="#fae8dd"></rect><rect x="600" y="300" width="300" height="300" fill="#d45c4b"></rect><rect x="900" y="0" width="300" height="300" fill="#9f1228"></rect><rect x="900" y="300" width="300" height="300" fill="#eaf1f5"></rect></g><rect x="600" y="0" width="300" height="300" fill="#cc4d44"></rect><rect x="675" y="75" width="150" height="150" fill="#c2383a"></rect><rect x="600" y="300" width="300" height="300" fill="#f7b89a"></rect><rect x="675" y="375" width="150" height="150" fill="#0e4178"></rect><rect x="900" y="0" width="300" height="300" fill="#d35a4a"></rect><rect x="975" y="75" width="150" height="150" fill="#8bc0dc"></rect><rect x="900" y="300" width="300" height="300" fill="#9ecbe1"></rect><rect x="975" y="375" width="150" height="150" fill="#d6e7f1"></rect><g><rect x="600" y="600" width="300" height="300" fill="#f4a785"></rect><rect x="600" y="900" width="300" height="300" fill="#90c4dd"></rect><rect x="900" y="600" width="300" height="300" fill="#0f437c"></rect><rect x="900" y="900" width="300" height="300" fill="#e17960"></rect></g><rect x="600" y="600" width="300" height="300" fill="#72b1d3"></rect><rect x="675" y="675" width="150" height="150" fill="#114680"></rect><rect x="600" y="900" width="300" height="300" fill="#e27b62"></rect><rect x="675" y="975" width="150" height="150" fill="#1b599b"></rect><rect x="900" y="600" width="300" height="300" fill="#bd2e35"></rect><rect x="975" y="675" width="150" height="150" fill="#1a599b"></rect><rect x="900" y="900" width="300" height="300" fill="#16518f"></rect><rect x="975" y="975" width="150" height="150" fill="#c7e0ed"></rect><g fill="#0f447d"><rect x="600" y="1200" width="600" height="600"></rect></g><rect x="600" y="1200" width="600" height="600" fill="#f9ece4"></rect><rect x="630" y="1230" width="540" height="540" fill="#7b0722"></rect><rect x="660" y="1260" width="480" height="480" fill="#c5dfed"></rect><rect x="840" y="1440" width="120" height="120" fill="#2166ac"></rect><rect x="720" y="1320" width="360" height="360" fill="#b0172b"></rect><rect x="810" y="1410" width="180" height="180" fill="#7bb6d6"></rect><rect x="750" y="1350" width="300" height="300" fill="#840924"></rect><rect x="780" y="1380" width="240" height="240" fill="#da6954"></rect><rect x="690" y="1290" width="420" height="420" fill="#a01228"></rect><g fill="#fbe5d9"><rect x="600" y="1800" width="600" height="600"></rect></g><rect x="600" y="1800" width="600" height="600" fill="#9b1127"></rect><rect x="630" y="1830" width="540" height="540" fill="#aed3e6"></rect><rect x="660" y="1860" width="480" height="480" fill="#800823"></rect><rect x="840" y="2040" width="120" height="120" fill="#86beda"></rect><rect x="720" y="1920" width="360" height="360" fill="#e5eef4"></rect><rect x="810" y="2010" width="180" height="180" fill="#3681ba"></rect><rect x="750" y="1950" width="300" height="300" fill="#e7eff4"></rect><rect x="780" y="1980" width="240" height="240" fill="#e58368"></rect><rect x="690" y="1890" width="420" height="420" fill="#e17960"></rect><g><rect x="1200" y="0" width="300" height="300" fill="#3c89be"></rect><rect x="1200" y="300" width="300" height="300" fill="#cbe2ee"></rect><rect x="1500" y="0" width="300" height="300" fill="#6eaed2"></rect><rect x="1500" y="300" width="300" height="300" fill="#c63f3e"></rect></g><rect x="1200" y="0" width="300" height="300" fill="#c94741"></rect><rect x="1275" y="75" width="150" height="150" fill="#e37f65"></rect><rect x="1200" y="300" width="300" height="300" fill="#c7423f"></rect><rect x="1275" y="375" width="150" height="150" fill="#dd7059"></rect><rect x="1500" y="0" width="300" height="300" fill="#dc6e58"></rect><rect x="1575" y="75" width="150" height="150" fill="#1a599a"></rect><rect x="1500" y="300" width="300" height="300" fill="#b41d2d"></rect><rect x="1575" y="375" width="150" height="150" fill="#e0ecf3"></rect><g><rect x="1200" y="600" width="300" height="300" fill="#e17a61"></rect><rect x="1200" y="900" width="300" height="300" fill="#d15548"></rect><rect x="1500" y="600" width="300" height="300" fill="#4292c2"></rect><rect x="1500" y="900" width="300" height="300" fill="#dfecf3"></rect></g><rect x="1200" y="600" width="300" height="300" fill="#f9ede5"></rect><rect x="1275" y="675" width="150" height="150" fill="#c84440"></rect><rect x="1200" y="900" width="300" height="300" fill="#8cc1dc"></rect><rect x="1275" y="975" width="150" height="150" fill="#fac8af"></rect><rect x="1500" y="600" width="300" height="300" fill="#ad172a"></rect><rect x="1575" y="675" width="150" height="150" fill="#f8f4f2"></rect><rect x="1500" y="900" width="300" height="300" fill="#900d26"></rect><rect x="1575" y="975" width="150" height="150" fill="#9f1228"></rect><g fill="#5aa2cb"><rect x="1200" y="1200" width="600" height="600"></rect></g><rect x="1200" y="1200" width="600" height="600" fill="#063264"></rect><rect x="1440" y="1440" width="120" height="120" fill="#b6d7e8"></rect><rect x="1290" y="1290" width="420" height="420" fill="#63a7ce"></rect><rect x="1410" y="1410" width="180" height="180" fill="#7a0622"></rect><rect x="1260" y="1260" width="480" height="480" fill="#a81529"></rect><rect x="1320" y="1320" width="360" height="360" fill="#faebe3"></rect><rect x="1230" y="1230" width="540" height="540" fill="#7f0823"></rect><rect x="1350" y="1350" width="300" height="300" fill="#3885bc"></rect><rect x="1380" y="1380" width="240" height="240" fill="#a9152a"></rect><g><rect x="1200" y="1800" width="300" height="300" fill="#c1ddeb"></rect><rect x="1200" y="2100" width="300" height="300" fill="#f2a07e"></rect><rect x="1500" y="1800" width="300" height="300" fill="#deebf2"></rect><rect x="1500" y="2100" width="300" height="300" fill="#e48066"></rect></g><rect x="1200" y="1800" width="300" height="300" fill="#f1f4f6"></rect><rect x="1275" y="1875" width="150" height="150" fill="#cde3ef"></rect><rect x="1200" y="2100" width="300" height="300" fill="#91c5de"></rect><rect x="1275" y="2175" width="150" height="150" fill="#f19e7d"></rect><rect x="1500" y="1800" width="300" height="300" fill="#c53d3c"></rect><rect x="1575" y="1875" width="150" height="150" fill="#9f1228"></rect><rect x="1500" y="2100" width="300" height="300" fill="#81bad8"></rect><rect x="1575" y="2175" width="150" height="150" fill="#0b3c71"></rect><g fill="#a41429"><rect x="1800" y="0" width="600" height="600"></rect></g><rect x="1830" y="30" width="540" height="540" fill="#fcd4be"></rect><rect x="1800" y="0" width="600" height="600" fill="#9f1228"></rect><rect x="2040" y="240" width="120" height="120" fill="#e7886c"></rect><rect x="1860" y="60" width="480" height="480" fill="#f1f4f6"></rect><rect x="1920" y="120" width="360" height="360" fill="#d15548"></rect><rect x="1980" y="180" width="240" height="240" fill="#ca4741"></rect><rect x="1890" y="90" width="420" height="420" fill="#f9c1a5"></rect><rect x="1950" y="150" width="300" height="300" fill="#970f27"></rect><rect x="2010" y="210" width="180" height="180" fill="#95c7df"></rect><g><rect x="1800" y="600" width="300" height="300" fill="#dbeaf2"></rect><rect x="1800" y="900" width="300" height="300" fill="#2b74b3"></rect><rect x="2100" y="600" width="300" height="300" fill="#fae9e0"></rect><rect x="2100" y="900" width="300" height="300" fill="#10457e"></rect></g><rect x="1800" y="600" width="300" height="300" fill="#4292c3"></rect><rect x="1875" y="675" width="150" height="150" fill="#eff3f5"></rect><rect x="1800" y="900" width="300" height="300" fill="#c4dfec"></rect><rect x="1875" y="975" width="150" height="150" fill="#fae8dd"></rect><rect x="2100" y="600" width="300" height="300" fill="#8a0b25"></rect><rect x="2175" y="675" width="150" height="150" fill="#d3e6f0"></rect><rect x="2100" y="900" width="300" height="300" fill="#e3eef3"></rect><rect x="2175" y="975" width="150" height="150" fill="#7bb6d6"></rect><g><rect x="1800" y="1200" width="300" height="300" fill="#db6c57"></rect><rect x="1800" y="1500" width="300" height="300" fill="#2870b1"></rect><rect x="2100" y="1200" width="300" height="300" fill="#fbe4d7"></rect><rect x="2100" y="1500" width="300" height="300" fill="#ad162a"></rect></g><rect x="1800" y="1200" width="300" height="300" fill="#fbceb7"></rect><rect x="1875" y="1275" width="150" height="150" fill="#4191c2"></rect><rect x="1800" y="1500" width="300" height="300" fill="#af172a"></rect><rect x="1875" y="1575" width="150" height="150" fill="#bb2a34"></rect><rect x="2100" y="1200" width="300" height="300" fill="#880b24"></rect><rect x="2175" y="1275" width="150" height="150" fill="#e7866a"></rect><rect x="2100" y="1500" width="300" height="300" fill="#e48066"></rect><rect x="2175" y="1575" width="150" height="150" fill="#276eb0"></rect><g><rect x="1800" y="1800" width="150" height="150" fill="#3581ba"></rect><rect x="1800" y="1950" width="150" height="150" fill="#175391"></rect><rect x="1800" y="2100" width="150" height="150" fill="#1a599a"></rect><rect x="1800" y="2250" width="150" height="150" fill="#d9e9f1"></rect><rect x="1950" y="1800" width="150" height="150" fill="#175290"></rect><rect x="1950" y="1950" width="150" height="150" fill="#bc2c34"></rect><rect x="1950" y="2100" width="150" height="150" fill="#dceaf2"></rect><rect x="1950" y="2250" width="150" height="150" fill="#3a88bd"></rect><rect x="2100" y="1800" width="150" height="150" fill="#d05548"></rect><rect x="2100" y="1950" width="150" height="150" fill="#3f8dc0"></rect><rect x="2100" y="2100" width="150" height="150" fill="#b9d9e9"></rect><rect x="2100" y="2250" width="150" height="150" fill="#aad1e5"></rect><rect x="2250" y="1800" width="150" height="150" fill="#083669"></rect><rect x="2250" y="1950" width="150" height="150" fill="#c53f3d"></rect><rect x="2250" y="2100" width="150" height="150" fill="#fcddcb"></rect><rect x="2250" y="2250" width="150" height="150" fill="#67aacf"></rect></g><rect x="1800" y="1800" width="150" height="150" fill="#2e77b5"></rect><rect x="1837.5" y="1837.5" width="75" height="75" fill="#f2a17f"></rect><rect x="1800" y="1950" width="150" height="150" fill="#fddcc9"></rect><rect x="1837.5" y="1987.5" width="75" height="75" fill="#e98b6e"></rect><rect x="1800" y="2100" width="150" height="150" fill="#7ab6d6"></rect><rect x="1837.5" y="2137.5" width="75" height="75" fill="#8bc0db"></rect><rect x="1800" y="2250" width="150" height="150" fill="#8ec2dd"></rect><rect x="1837.5" y="2287.5" width="75" height="75" fill="#faeae1"></rect><rect x="1950" y="1800" width="150" height="150" fill="#d55d4c"></rect><rect x="1987.5" y="1837.5" width="75" height="75" fill="#acd2e5"></rect><rect x="1950" y="1950" width="150" height="150" fill="#8a0b25"></rect><rect x="1987.5" y="1987.5" width="75" height="75" fill="#da6954"></rect><rect x="1950" y="2100" width="150" height="150" fill="#3a86bd"></rect><rect x="1987.5" y="2137.5" width="75" height="75" fill="#f7b99c"></rect><rect x="1950" y="2250" width="150" height="150" fill="#bc2c34"></rect><rect x="1987.5" y="2287.5" width="75" height="75" fill="#8f0d25"></rect><rect x="2100" y="1800" width="150" height="150" fill="#b31a2c"></rect><rect x="2137.5" y="1837.5" width="75" height="75" fill="#f4a784"></rect><rect x="2100" y="1950" width="150" height="150" fill="#89bfdb"></rect><rect x="2137.5" y="1987.5" width="75" height="75" fill="#4f9bc7"></rect><rect x="2100" y="2100" width="150" height="150" fill="#c4dfec"></rect><rect x="2137.5" y="2137.5" width="75" height="75" fill="#b92732"></rect><rect x="2100" y="2250" width="150" height="150" fill="#5da3cc"></rect><rect x="2137.5" y="2287.5" width="75" height="75" fill="#6a011f"></rect><rect x="2250" y="1800" width="150" height="150" fill="#cf5246"></rect><rect x="2287.5" y="1837.5" width="75" height="75" fill="#96c7df"></rect><rect x="2250" y="1950" width="150" height="150" fill="#fdd8c4"></rect><rect x="2287.5" y="1987.5" width="75" height="75" fill="#cc4d44"></rect><rect x="2250" y="2100" width="150" height="150" fill="#ea8f71"></rect><rect x="2287.5" y="2137.5" width="75" height="75" fill="#bd2d35"></rect><rect x="2250" y="2250" width="150" height="150" fill="#ee9677"></rect><rect x="2287.5" y="2287.5" width="75" height="75" fill="#fae8dd"></rect></g></svg>