<svg version="1.1" xmlns="http://www.w3.org/2000/svg" xmlns:xlink="http://www.w3.org/1999/xlink" width="2400" height="2400" viewBox="0,0,2400,2400"><g fill="none" fill-rule="nonzero" stroke="none" stroke-width="1" stroke-linecap="butt" stroke-linejoin="miter" stroke-miterlimit="10" stroke-dasharray="" stroke-dashoffset="0" font-family="none" font-weight="none" font-size="none" text-anchor="none" style="mix-blend-mode: normal"><rect x="60" y="60" width="1080" height="1080" fill="#9e0142"></rect><rect x="120" y="120" width="960" height="960" fill="#c32a4b"></rect><rect x="180" y="180" width="840" height="840" fill="#df4e4b"></rect><rect x="240" y="240" width="720" height="720" fill="#f46d43"></rect><rect x="0" y="0" width="1200" height="1200" fill="#fa9857"></rect><rect x="300" y="300" width="600" height="600" fill="#fdbf6f"></rect><g><rect x="0" y="1200" width="600" height="600" fill="#b01546"></rect><rect x="0" y="1800" width="600" height="600" fill="#f46f44"></rect><rect x="600" y="1200" width="600" height="600" fill="#5ebaa8"></rect><rect x="600" y="1800" width="600" height="600" fill="#95d4a4"></rect></g><rect x="1200" y="0" width="1200" height="1200" fill="#9e0142"></rect><rect x="1320" y="120" width="960" height="960" fill="#d53e4f"></rect><rect x="1380" y="180" width="840" height="840" fill="#f46d43"></rect><rect x="1440" y="240" width="720" height="720" fill="#fdae61"></rect><rect x="1200" y="1200" width="1200" height="1200" fill="#9e0142"></rect><rect x="1320" y="1320" width="960" height="960" fill="#f7834d"></rect><rect x="1380" y="1380" width="840" height="840" fill="#fff5ae"></rect><rect x="1440" y="1440" width="720" height="720" fill="#abdda4"></rect></g></svg>