<svg version="1.1" xmlns="http://www.w3.org/2000/svg" xmlns:xlink="http://www.w3.org/1999/xlink" width="1200" height="1200" viewBox="0,0,1200,1200"><defs><symbol viewBox="-50,-50,100,100" id="symbol-1"><rect x="-50" y="-50" width="100" height="100" fill="#d43d4f" fill-rule="nonzero" stroke="none" stroke-width="1" stroke-linecap="butt" stroke-linejoin="miter" stroke-miterlimit="10" stroke-dasharray="" stroke-dashoffset="0" font-family="none" font-weight="none" font-size="none" text-anchor="none" style="mix-blend-mode: normal"></rect></symbol></defs><g fill="none" fill-rule="nonzero" stroke="none" stroke-width="1" stroke-linecap="butt" stroke-linejoin="miter" stroke-miterlimit="10" stroke-dasharray="" stroke-dashoffset="0" font-family="none" font-weight="none" font-size="none" text-anchor="none" style="mix-blend-mode: normal"><use x="600" y="800" href="#symbol-1" width="100" height="100" overflow="visible"></use><use x="0" y="900" href="#symbol-1" width="100" height="100" overflow="visible"></use><use x="500" y="600" href="#symbol-1" width="100" height="100" overflow="visible"></use><use x="0" y="400" href="#symbol-1" width="100" height="100" overflow="visible"></use><use x="0" y="700" href="#symbol-1" width="100" height="100" overflow="visible"></use><use x="1000" y="500" href="#symbol-1" width="100" height="100" overflow="visible"></use><use x="0" y="0" href="#symbol-1" width="100" height="100" overflow="visible"></use><use x="800" y="200" href="#symbol-1" width="100" height="100" overflow="visible"></use><use x="600" y="600" href="#symbol-1" width="100" height="100" overflow="visible"></use><use x="600" y="200" href="#symbol-1" width="100" height="100" overflow="visible"></use><use x="300" y="100" href="#symbol-1" width="100" height="100" overflow="visible"></use><use x="1100" y="500" href="#symbol-1" width="100" height="100" overflow="visible"></use><use x="300" y="600" href="#symbol-1" width="100" height="100" overflow="visible"></use><use x="0" y="600" href="#symbol-1" width="100" height="100" overflow="visible"></use><use x="0" y="700" href="#symbol-1" width="100" height="100" overflow="visible"></use><use x="0" y="0" href="#symbol-1" width="100" height="100" overflow="visible"></use><use x="1000" y="300" href="#symbol-1" width="100" height="100" overflow="visible"></use><use x="1100" y="600" href="#symbol-1" width="100" height="100" overflow="visible"></use><use x="200" y="600" href="#symbol-1" width="100" height="100" overflow="visible"></use><use x="0" y="900" href="#symbol-1" width="100" height="100" overflow="visible"></use><use x="400" y="700" href="#symbol-1" width="100" height="100" overflow="visible"></use><use x="0" y="1100" href="#symbol-1" width="100" height="100" overflow="visible"></use><use x="400" y="900" href="#symbol-1" width="100" height="100" overflow="visible"></use><use x="100" y="300" href="#symbol-1" width="100" height="100" overflow="visible"></use><use x="0" y="400" href="#symbol-1" width="100" height="100" overflow="visible"></use><use x="0" y="700" href="#symbol-1" width="100" height="100" overflow="visible"></use><use x="900" y="500" href="#symbol-1" width="100" height="100" overflow="visible"></use><use x="100" y="700" href="#symbol-1" width="100" height="100" overflow="visible"></use><use x="100" y="1000" href="#symbol-1" width="100" height="100" overflow="visible"></use><use x="800" y="700" href="#symbol-1" width="100" height="100" overflow="visible"></use><use x="1100" y="1000" href="#symbol-1" width="100" height="100" overflow="visible"></use><use x="0" y="300" href="#symbol-1" width="100" height="100" overflow="visible"></use><use x="300" y="300" href="#symbol-1" width="100" height="100" overflow="visible"></use><use x="900" y="900" href="#symbol-1" width="100" height="100" overflow="visible"></use><use x="800" y="0" href="#symbol-1" width="100" height="100" overflow="visible"></use><use x="600" y="1100" href="#symbol-1" width="100" height="100" overflow="visible"></use><use x="700" y="600" href="#symbol-1" width="100" height="100" overflow="visible"></use><use x="1100" y="200" href="#symbol-1" width="100" height="100" overflow="visible"></use><use x="700" y="300" href="#symbol-1" width="100" height="100" overflow="visible"></use><use x="400" y="700" href="#symbol-1" width="100" height="100" overflow="visible"></use><use x="800" y="300" href="#symbol-1" width="100" height="100" overflow="visible"></use><use x="300" y="0" href="#symbol-1" width="100" height="100" overflow="visible"></use><use x="300" y="500" href="#symbol-1" width="100" height="100" overflow="visible"></use><use x="600" y="600" href="#symbol-1" width="100" height="100" overflow="visible"></use><use x="800" y="100" href="#symbol-1" width="100" height="100" overflow="visible"></use><use x="1000" y="400" href="#symbol-1" width="100" height="100" overflow="visible"></use><use x="500" y="500" href="#symbol-1" width="100" height="100" overflow="visible"></use><use x="1000" y="300" href="#symbol-1" width="100" height="100" overflow="visible"></use><use x="1100" y="400" href="#symbol-1" width="100" height="100" overflow="visible"></use><use x="700" y="700" href="#symbol-1" width="100" height="100" overflow="visible"></use></g></svg>